<svg xmlns="http://www.w3.org/2000/svg" data-name="3" viewBox="0 0 4680 3120"><rect width="4680" height="3120" fill="#fff" data-name="3" opacity="0"/><path fill="#94aeeb" d="m798.59,2496.15s-291.2-133.59-286.68-223.9c4.51-90.3,80.6-71.09,82.42-107.6,1.82-36.51-205.68-85.4-200.5-189.16,5.18-103.75,130.27-24.31,133.25-83.87,2.98-59.56-218.75-286.38-115.77-342.87,102.99-56.49,190.41,275.33,222.69,246.13,32.28-29.21,4.32-124.99,95.01-89.63,90.69,35.35,24.02,367.18,114.81,285.03,90.78-82.14,127.2-1.35,148.81,67.15,21.62,68.5,17.82,362,17.82,362l-211.86,76.71Z"/><path fill="#b8c9f2" d="m725.24,1703.83c8.2,83.94,16.62,227.82-10.67,308.71-129.84-212.08-260.76-407.86-299.68-465.59-1.19.55-2.38,1.15-3.58,1.81-1.25.69-2.46,1.4-3.61,2.14,29.01,43.06,111.13,165.83,206.18,315.87-48.62-30.81-107.01-68.09-150.01-96.05,3.62,5.64,7.21,11.21,10.73,16.69,59.26,38.36,133.37,85.28,149.47,95.46,6.96,11.02,13.98,22.18,21.05,33.45l-129.52-60.69c2.04,4.04,3.85,7.9,5.4,11.54l132.11,61.9c37.31,59.67,75.71,122.28,112.97,184.91-87.15,3.66-271.97-106.88-366.14-167.33-1.1,2.47-2.06,5.14-2.89,8.03,96.7,62.23,285.24,174.74,373.71,167.17,56.94,95.96,111,191.68,154.16,276.71-76.7,10.38-301.27-105.95-405.54-162.9-1.02,2.48-1.96,5.11-2.81,7.89,106.55,58.35,334.47,176.29,412.22,162.65,2.31,4.59,4.59,9.14,6.83,13.67l6.45-5.78c-16.84-33.93-36.14-70.83-57.87-110.69,23.1-58.16,45.49-242.82,55.96-339-2.5-1.68-5.09-3.16-7.78-4.38-9.98,91.48-31.47,270.13-53.38,333.88-42.49-77.48-93.99-165.86-154.43-265.02-1.51-2.47-3.01-4.94-4.52-7.4,30.32-80.69,22.39-226.75,13.93-313.93-1.6-.87-3.25-1.64-4.96-2.31-1.28-.5-2.54-.97-3.77-1.42Z"/><path fill="#b8c9f2" d="m341.7,2130.63c30.81-65.79,183.81,43.04,183.81,43.04,0,0,12.48-41.56,54.22-42.79,87.05-2.57,77.76,211.54,115.06,186.69,37.3-24.84,37.78-65.16,99.77-36.12,61.99,29.04,69.08,190.79,69.08,190.79l-190.85,70.14s-141.75-1.8-141.09-59.91c.66-58.11,43.78-54.91,37.29-72.82-6.48-17.91-125.96,23.71-140.02-39.1-14.06-62.81,50.77-51.56,44.29-69.47-6.48-17.91-152.37-126.03-131.56-170.46Z"/><path fill="#94aeeb" d="m757.61,2271.36c-2.99.06-5.74.43-8.3,1.06,9.76,28.29,44.62,138.39,12.17,181.91-51.03-54.4-117.02-113.94-197.75-178.35-17.73-14.14-35.37-27.86-52.65-41.04-4.01-26.49-11.76-55.58-20.91-83.88-3.37-1.99-6.91-4.03-10.58-6.09,9.25,27.61,17.36,56.31,22.05,82.79-11.64-8.8-23.09-17.35-34.28-25.6l-68.02-90.44c-3.95-.81-7.82-1.42-11.57-1.8l56.9,75.65c-36.2-26.25-68.78-48.86-94.65-66.42-1.97,1.79-3.77,3.86-5.36,6.23,52.16,35.39,132.11,91.66,214.03,157.02,8.39,6.7,16.64,13.35,24.72,19.96-13.16,17.26-67.14,12.7-111.39,5.01-2.28,2.38-6.62,4.16-11.75,6.24,35.47,6.86,86.67,13.77,114.48,3.7,6.36-2.3,11.51-5.5,14.95-9.8,14.49,11.92,28.48,23.69,41.95,35.31-41.41,23.43-146.05,38.53-194.79,44.52,2.26,2.8,4.87,5.22,7.79,7.31,43.23-5.44,119.21-16.78,167.03-34.09,10.35-3.75,19.39-7.78,26.49-12.09,62.13,54,112.99,104.53,151.9,150.81l8.52-3.13c-9.73-11.65-20.22-23.58-31.48-35.76,36.1-45.9,1.53-157.09-9.51-189.03Z"/><path fill="#5c84e0" d="m3651.05,2370.62s-23.04-178.96-72.18-156.77c-49.13,22.19-63.89-72.05-112.48-108.19,0,0-169.55-123.33-182.61-88.74-13.07,34.58,28.97,75.33,10.79,100.89-32.67,45.95,102.3,79.65,67.25,78.26-35.04-1.38-36.71,51.41,25.53,74.93,62.25,23.52,263.69,99.62,263.69,99.62Z"/><path fill="#4d79dd" d="m3651.05,2370.62s-23.04-178.96-72.18-156.77c-49.13,22.19-63.89-72.05-112.48-108.19,0,0-36.88-26.83-77.57-51.95-12.49,46.42,84.4,64.05,79.47,77.09-6.93,18.33-48.96-41.51-88.53,3.39-32.23,36.57,28.27,139.61,71.37,160.91,83.2,31.43,199.91,75.52,199.91,75.52Z"/><path fill="#94aeeb" d="m3552.84,2332.46s-12.42-363.32,71.56-401.24c83.98-37.92,101.96,40,135.91,24.67,33.95-15.33-18.27-226.23,78.22-269.8,96.48-43.58,82.65,106.8,138.04,81.79,55.39-25.02,157.87-331.59,257.01-264.5,99.14,67.09-161.04,300.75-119.54,316.43,41.5,15.68,115.33-54.24,125.48,44.44,10.14,98.68-321.74,192.62-205.02,236.72,116.71,44.09,60.41,114.7,8.36,166.17-52.05,51.47-275.08,147.59-275.08,147.59l-214.92-82.26Z"/><path fill="#5c84e0" d="m4055.8,2110.23c-11.07,16.56-20.24,28.33-26.51,31.16-30.99,13.99-20.36-45.08-86.24-56.24-18.54-3.14-41.84,21.45-65.75,58.4-45.45-11.52-87.23,13.04-122.22,49.91,1.71-15.97.37-30.84-5.34-43.48-33.96-75.19-66.01-38.66-119.62-45.19-38.15-4.64,40.15-101.47,59.09-180.69-16.33-5.29-36.93-5.47-64.81,7.12-83.98,37.92-71.56,401.24-71.56,401.24l98.37,37.65c-.06.18-.11.35-.16.52l116.72,44.09s223.04-96.12,275.08-147.59c48.54-48,100.78-112.64,12.96-156.9Z" opacity=".42"/><path fill="#b8c9f2" d="m4239.04,1860.16c-72.29,46.49-198.83,121.07-284.86,133.96,131.88-216.4,248.47-426.2,282.71-488.35-1.05-.82-2.15-1.62-3.31-2.4-1.2-.82-2.41-1.58-3.62-2.28-25.54,46.34-98.65,177.92-190.46,333.92,5.31-58.42,11.94-128.71,17.29-180.7-3.43,5.9-6.81,11.75-10.14,17.49-7.21,71.58-15.27,160.6-17.01,179.94-6.76,11.44-13.6,22.99-20.53,34.64l-5.24-145.67c-2.72,3.73-5.37,7.17-7.96,10.27l5.35,148.58c-36.75,61.59-75.64,125.54-115.09,188.46-43.87-77.32-29.64-296.32-18.64-409.83-2.75.15-5.62.52-8.63,1.11-11.43,116.63-25.71,339.93,22.31,416.62-60.51,96.28-122.15,189.83-179.17,268.52-45.1-64.72-44.12-322.46-41-443.49-2.72.23-5.54.6-8.46,1.13-3.33,123.75-4.22,385.28,44.32,449.43-3.08,4.23-6.15,8.41-9.21,12.55l8.24,3.16c22.92-31.06,47.4-65.72,73.43-103.97,63.48-6.11,241.33-71.73,333.4-106.99.36-3.05.49-6.08.35-9.1-87.59,33.52-259.57,97.15-327.56,106.95,50.47-74.58,106.65-162.39,168.43-263.33,1.54-2.51,3.08-5.03,4.61-7.54,87.26-10.06,216.01-85.2,291.12-133.44.05-1.86-.02-3.71-.22-5.57-.14-1.39-.3-2.76-.47-4.08Z"/><path fill="#b8c9f2" d="m3483.17,1762.64c67.48-30.47,113.68,155.2,113.68,155.2,0,0,37.22-23.89,70.34,2.85,69.06,55.74-80.12,215.25-34.78,220.77,45.34,5.52,72.44-25.36,101.16,38.22,28.71,63.58-73.08,193.45-73.08,193.45l-194.19-72.3s-108.49-95.4-69.44-139.93c39.05-44.53,70.29-13.46,77.15-31.61,6.86-18.16-113.19-65.2-82.42-123.12,30.78-57.92,73.48-6.22,80.34-24.38,6.86-18.16-34.32-198.57,11.25-219.15Z"/><path fill="#94aeeb" d="m3711.65,2147.36c-2.35-1.94-4.72-3.48-7.13-4.68-11.21,28.36-57.26,136.67-111.23,148.83-3.4-75.94-14.98-165.78-34.73-269.15-4.34-22.7-8.89-45.01-13.52-66.67,14.47-23.16,27.76-50.81,39.45-78.77-1.29-3.77-2.67-7.7-4.15-11.73-11.15,27.5-23.91,55.09-37.85,78.68-3.17-14.53-6.36-28.74-9.55-42.54l7.35-115.1c-2.52-3.25-5.1-6.29-7.76-9.06l-6.14,96.28c-10.6-44.32-20.81-83.42-29.19-114.16-2.72.08-5.48.49-8.27,1.27,16.89,61.98,41.44,158.54,61.48,263.45,2.05,10.75,4.02,21.36,5.89,31.84-21.64,4.63-60.38-34.7-89.52-70-3.34.33-7.88-1.17-13.23-2.97,22.9,28.83,57.93,68.13,86.13,78.78,6.45,2.44,12.55,3.37,18.07,2.34,3.31,18.84,6.33,37.22,9.05,55.14-47.58-9.34-138.56-67.05-180.25-94.74-.11,3.66.31,7.27,1.18,10.82,37.06,24.46,103.37,66.08,151.85,84.4,10.5,3.97,20.17,6.84,28.51,8.21,12.26,82.99,18.11,155.82,17.52,217.44l8.67,3.23c.2-15.47-.01-31.65-.64-48.55,58.37-11.58,105.37-120.54,118.01-152.57Z"/><path fill="#b8c9f2" d="m3767.76,2414.72s116.55-308.5,172.26-299.06c55.71,9.44,3.73,68.59,29.93,56.75,26.21-11.83,112.11-207.84,155.94-166.96,43.83,40.89-7.1,82.9,31.6,89.61,38.7,6.72,66.95-130.81,146.52-116.55,79.58,14.26,9.11,80.5-29.47,109.39-38.58,28.9,37.67,21.96,45.69,72.58,18.38,116.12-237.03,76.93-221.7,110.87,15.33,33.95,155.83,16.39,117.6,80.98-38.23,64.59-346.36,100.9-346.36,100.9l-102.02-38.54Z"/><path fill="#9bb3ec" d="m4031.05,2381.34c26.53-25.19,61.88-43.8,56.46-76.12-1.7-10.15-7.14-18.59-16.22-25.21,20.06-20.79,43.97-44.12,38.57-74.63-3.28-18.56-16.28-34.67-40.03-44.78-121.35-51.63-302.06,254.12-302.06,254.12l102.02,38.54s126.58-14.92,227.55-42.64c-9.41-28.51-37.03-32.96-66.28-29.28Z"/><path fill="#d0dcf6" d="m3697.22,2387s67.87-228.76,144.21-212.76c76.34,16,9.99,92.28,51.29,92.78,41.3.5,84.81-119.9,165.12-81.41,80.3,38.49-62.75,92.87-12.6,111.82,50.14,18.94-39.65,50.25-56.71,95.4-17.06,45.16,151.33-.24,144,66.94-10.44,95.68-165.91,30.07-165.91,30.07l-269.39-102.84Z"/><path fill="#eff3fc" d="m4049.6,2511.08c-49.62-32.64-159.01-91.72-216-79.36-2.41,1.57-4.8,3.11-7.18,4.61l-10.05-3.84c10.96-6.75,21.95-14.05,32.88-21.77,2.37-57.16,25.84-114.25,40.05-143.95h0c.13.02.26.04.39.05,0,0,0,0,.01,0,.53.06,1.07.11,1.64.14.05,0,.09,0,.14,0,.1,0,.21.01.31.01.06,0,.12,0,.18,0,.09,0,.18,0,.27,0,.15,0,.31,0,.47,0,.15,0,.29,0,.44,0,.04,0,.08,0,.13,0,.11,0,.22,0,.33,0,.04,0,.09,0,.14,0,.1,0,.21,0,.31-.01.05,0,.1,0,.15,0,.14,0,.27-.02.41-.03.06,0,.13-.01.19-.02.08,0,.16-.01.23-.02.08,0,.15-.02.23-.02.06,0,.13-.01.19-.02.09-.01.17-.02.25-.03.05,0,.1-.01.15-.02.32-.04.64-.09.96-.14.03,0,.06,0,.1-.02.11-.02.21-.04.32-.06.02,0,.04,0,.06-.01.49-.1.98-.21,1.47-.33,0,0,0,0,0,0-13.05,26.56-36.93,81.92-40.85,138.25,14.58-10.6,29.02-21.89,43.15-33.53-11.59-23.51,15.33-89.69,36.75-135.3,0,0,.02-.02.03-.03,1.11-1.17,2.22-2.36,3.35-3.55.01-.01.03-.03.04-.04.25-.26.49-.52.74-.79,4.7-4.99,9.54-10.14,14.57-15.17-27.22,54.52-57.16,127.52-48.91,149.43,76.25-63.84,142.4-136.8,168.83-167.04,2.15,2.38,3.7,4.81,4.73,7.25-23.68,27.06-75.26,83.93-136.59,138.97-33.63,30.18-65.29,55.58-94.92,76.18,63.28-5.61,189.52,65.72,222.49,90.69-7.37.43-14.98.2-22.6-.48Z"/><g><path fill="#e6edfa" d="m3407.71,376.7l-332.05,1194.99c-3.37,12.13,3.73,24.7,15.86,28.07l737.71,204.99c84.71,23.54,146.29-61.09,178.66-177.6l279.54-1006.01c3.37-12.13-3.73-24.7-15.86-28.07l-835.79-232.24c-12.13-3.37-24.7,3.73-28.07,15.86Z"/><path fill="#e6edfa" d="m3611.13,1616.72s170.06,10.4,338.08-186.31c168.02-196.72,202.89-328.9,202.89-328.9,0,0-140.21,528.43-169.26,595.99-14.34,33.36-56.54,105.93-118.27,110.86-50.57,4.04-141.95-66.27-141.95-66.27l-111.5-125.38Z"/><path fill="#dbe4f8" d="m3739.02,1620.08l-801.92-225.8c-4.51,91.22,36.13,169.65,104.62,188.68l801.92,225.8c-68.49-19.03-109.13-97.46-104.62-188.68Z"/><path fill="#aabfef" d="m4055.23,878.26l-242.12-67.28c-3.68-1.02-5.83-4.83-4.81-8.51,1.02-3.68,4.83-5.83,8.51-4.81l242.12,67.28c3.68,1.02,5.83,4.83,4.81,8.51-1.02,3.68-4.83,5.83-8.51,4.81Z"/><path fill="#aabfef" d="m4037.11,943.47l-242.12-67.28c-3.68-1.02-5.83-4.83-4.81-8.51s4.83-5.83,8.51-4.81l242.12,67.28c3.68,1.02,5.83,4.83,4.81,8.51-1.02,3.68-4.83,5.83-8.51,4.81Z"/><path fill="#aabfef" d="m4024.31,989.53l-242.12-67.28c-3.68-1.02-5.83-4.83-4.81-8.51s4.83-5.83,8.51-4.81l242.12,67.28c3.68,1.02,5.83,4.83,4.81,8.51s-4.83,5.83-8.51,4.81Z"/><path fill="#aabfef" d="m4006.19,1054.74l-242.12-67.28c-3.68-1.02-5.83-4.83-4.81-8.51,1.02-3.68,4.83-5.83,8.51-4.81l242.12,67.28c3.68,1.02,5.83,4.83,4.81,8.51-1.02,3.68-4.83,5.83-8.51,4.81Z"/><path fill="#aabfef" d="m4037.44,1165.11l-705.29-195.98c-3.68-1.02-5.83-4.83-4.81-8.51,1.02-3.68,4.83-5.83,8.51-4.81l705.29,195.98c3.68,1.02,5.83,4.83,4.81,8.51-1.02,3.68-4.83,5.83-8.51,4.81Z"/><path fill="#aabfef" d="m4016.6,1240.11l-705.29-195.98c-3.68-1.02-5.83-4.83-4.81-8.51s4.83-5.83,8.51-4.81l705.29,195.98c3.68,1.02,5.83,4.83,4.81,8.51s-4.83,5.83-8.51,4.81Z"/><path fill="#aabfef" d="m3995.76,1315.1l-705.29-195.98c-3.68-1.02-5.83-4.83-4.81-8.51,1.02-3.68,4.83-5.83,8.51-4.81l705.29,195.98c3.68,1.02,5.83,4.83,4.81,8.51-1.02,3.68-4.83,5.83-8.51,4.81Z"/><path fill="#aabfef" d="m3974.92,1390.09l-705.29-195.98c-3.68-1.02-5.83-4.83-4.81-8.51,1.02-3.68,4.83-5.83,8.51-4.81l705.29,195.98c3.68,1.02,5.83,4.83,4.81,8.51-1.02,3.68-4.83,5.83-8.51,4.81Z"/><path fill="#aabfef" d="m3924.37,1593.2l-242.12-67.28c-3.68-1.02-5.83-4.83-4.81-8.51,1.02-3.68,4.83-5.83,8.51-4.81l242.12,67.28c3.68,1.02,5.83,4.83,4.81,8.51-1.02,3.68-4.83,5.83-8.51,4.81Z"/><path fill="#aabfef" d="m3460.91,1450.07c3.68,1.02,5.83,4.83,4.81,8.51-1.02,3.68-4.83,5.83-8.51,4.81l-242.13-67.28c-3.68-1.02-5.83-4.83-4.81-8.51,1.02-3.68,4.83-5.83,8.51-4.81l242.13,67.28Z"/><path fill="#aabfef" d="m2938.59,1438.12s188.43,79.48,399.89,135.66c211.47,56.18,400.87,78.57,400.87,78.57l-.34-32.27-801.92-225.8s-2.11,21.18,1.49,43.84Z"/><g><path fill="#aabfef" d="m3494.76,594.82c-6.61-1.84-12.44-4.58-17.48-8.23-5.05-3.65-9.1-7.97-12.16-12.98-3.06-5-5-10.46-5.81-16.36-.82-5.9-.34-12.05,1.43-18.42,1.77-6.37,4.53-11.88,8.28-16.52,3.75-4.64,8.22-8.31,13.42-11.02,5.2-2.71,10.91-4.32,17.11-4.85,6.2-.52,12.61.14,19.22,1.97,8.1,2.25,14.89,5.66,20.36,10.23,5.47,4.57,9.5,10.1,12.11,16.59l-21.95,10.81c-1.59-3.75-3.62-6.87-6.1-9.39-2.48-2.51-5.57-4.28-9.27-5.31-2.91-.81-5.68-1.07-8.3-.78-2.62.29-5.03,1.1-7.23,2.44-2.2,1.34-4.12,3.16-5.77,5.45-1.65,2.3-2.92,5.02-3.79,8.16-.87,3.15-1.2,6.13-.96,8.95.23,2.82.94,5.37,2.13,7.65,1.19,2.28,2.83,4.22,4.93,5.82,2.1,1.6,4.6,2.8,7.51,3.61,3.7,1.03,7.26,1.11,10.68.23,3.42-.87,6.78-2.5,10.07-4.89l13.22,20.58c-5.56,4.14-11.86,6.77-18.91,7.9-7.05,1.13-14.63.57-22.74-1.68Z"/><path fill="#aabfef" d="m3581.39,618.89c-6.69-1.86-12.59-4.64-17.7-8.35-5.12-3.71-9.22-8.09-12.3-13.14-3.09-5.05-5.06-10.54-5.92-16.46-.86-5.92-.42-11.98,1.31-18.2,1.75-6.29,4.51-11.73,8.29-16.32,3.77-4.59,8.29-8.25,13.54-10.99,5.25-2.74,11.02-4.37,17.32-4.91,6.29-.54,12.79.12,19.47,1.98,6.77,1.88,12.69,4.67,17.76,8.37,5.08,3.7,9.15,8.07,12.24,13.13,3.09,5.05,5.07,10.52,5.93,16.4.87,5.88.43,11.96-1.32,18.26-1.73,6.22-4.49,11.64-8.27,16.26-3.79,4.63-8.31,8.31-13.56,11.05-5.25,2.73-11.01,4.38-17.26,4.93-6.25.55-12.77-.11-19.53-1.99Zm6.26-22.54c2.6.72,5.15.92,7.65.6,2.51-.32,4.85-1.13,7.03-2.43,2.18-1.3,4.1-3.1,5.76-5.39,1.66-2.29,2.93-5.05,3.83-8.28.9-3.22,1.23-6.25.99-9.07-.23-2.82-.95-5.35-2.15-7.59-1.2-2.24-2.79-4.15-4.77-5.71-1.98-1.57-4.27-2.71-6.86-3.43-2.6-.72-5.15-.92-7.65-.6-2.51.32-4.85,1.13-7.03,2.43-2.19,1.3-4.1,3.1-5.76,5.39-1.65,2.3-2.93,5.06-3.83,8.28-.9,3.23-1.23,6.25-.99,9.07.23,2.82.95,5.35,2.15,7.59,1.2,2.24,2.79,4.14,4.77,5.71,1.98,1.57,4.27,2.71,6.87,3.43Z"/><path fill="#aabfef" d="m3638.68,632.77l22.96-82.62,22.9,6.36,28.05,61.95-10.62-2.95,13.97-50.28,27.15,7.54-22.96,82.62-22.9-6.36-28.05-61.95,10.62,2.95-13.97,50.28-27.15-7.54Z"/><path fill="#aabfef" d="m3751.51,664.12l16.96-61.02-24.2-6.72,6-21.6,76.24,21.19-6,21.6-24.2-6.72-16.96,61.02-27.85-7.74Z"/><path fill="#aabfef" d="m3810.76,680.59l22.96-82.62,39.77,11.05c7.71,2.14,14.03,5.26,18.96,9.34,4.92,4.08,8.27,8.89,10.04,14.42,1.77,5.54,1.77,11.49,0,17.86-1.77,6.37-4.83,11.43-9.18,15.18-4.35,3.75-9.67,6.06-15.98,6.94-6.31.88-13.31.24-21.02-1.9l-24.31-6.76,15.57-8-8.95,32.22-27.85-7.74Zm35.95-21.41l-8.88-16.07,22.54,6.26c3.85,1.07,6.95,1,9.28-.22,2.33-1.22,3.91-3.32,4.74-6.31.83-2.99.56-5.61-.81-7.85-1.37-2.24-3.98-3.9-7.83-4.97l-22.54-6.26,15.9-9.18-12.4,44.61Zm13.5,35.15l-11.94-35.74,29.51,8.2,12.17,35.8-29.74-8.26Z"/><path fill="#aabfef" d="m3889.72,702.53l59.07-72.58,27.38,7.61,13.16,92.65-28.8-8-7.39-76.81,10.86,3.02-45.96,61.99-28.32-7.87Zm25.48-8.43l12.66-18.1,38,10.56,1.51,22.03-52.17-14.5Z"/><path fill="#aabfef" d="m4034.84,744.89c-6.61-1.84-12.44-4.58-17.48-8.23-5.05-3.65-9.1-7.97-12.16-12.98-3.06-5-5-10.46-5.81-16.36-.82-5.9-.34-12.05,1.43-18.42,1.77-6.37,4.53-11.88,8.28-16.52,3.75-4.64,8.22-8.31,13.42-11.02,5.2-2.71,10.91-4.32,17.11-4.85,6.2-.52,12.61.14,19.22,1.97,8.1,2.25,14.89,5.66,20.36,10.23,5.47,4.57,9.5,10.1,12.11,16.59l-21.95,10.81c-1.59-3.75-3.62-6.87-6.1-9.39-2.48-2.51-5.57-4.28-9.27-5.31-2.91-.81-5.68-1.07-8.3-.78-2.62.29-5.03,1.1-7.23,2.44-2.2,1.34-4.12,3.16-5.77,5.45-1.66,2.3-2.92,5.02-3.79,8.16-.87,3.15-1.2,6.13-.96,8.95.23,2.82.94,5.37,2.13,7.65,1.19,2.28,2.83,4.22,4.93,5.82,2.1,1.6,4.6,2.8,7.51,3.61,3.7,1.03,7.26,1.11,10.68.23,3.42-.87,6.78-2.5,10.07-4.89l13.22,20.58c-5.56,4.14-11.86,6.77-18.91,7.9-7.05,1.13-14.63.57-22.74-1.68Z"/><path fill="#aabfef" d="m4097.79,760.35l16.96-61.02-24.2-6.72,6-21.6,76.24,21.19-6,21.6-24.2-6.72-16.96,61.02-27.85-7.74Z"/></g><path fill="#2057d5" d="m3244.91,1376.68c-1.36-.91-2.36-2.25-2.91-3.94-.93-2.88.06-5.76.6-7.3,9-26.08,29.61-47.92,55.13-58.41,3.99-1.64,8.73-3.19,13.54-2.21,3.75.77,6.78,2.93,9.01,5.77,3.32-3.28,6.62-6.57,9.9-9.88,14.7-14.85,29.44-30.87,36.38-50.05l-101.72,60.56c-1.49.89-3.42.4-4.31-1.09-.89-1.49-.4-3.42,1.09-4.31l108.66-64.69c1.09-.65,2.46-.57,3.47.17,1.02.75,1.49,2.04,1.19,3.27-5.78,24.19-23.08,43.19-40.29,60.58-3.7,3.74-7.44,7.47-11.21,11.17.86,2.33,1.32,4.77,1.37,7.08.09,4.9-1.18,9.53-2.86,13.85l19.4-7.89c2.65-1.08,10.7-4.33,15.77.66,2.32,2.3,3.19,5.66,2.57,9.47,11.25,3.76,20.26,13.9,22.77,25.49,4.72-3.59,10.48-6.42,15.81-6.12,3.49.2,6.46,1.75,8.61,4.5,3.01,3.85,2.97,8.55,2.94,12.7-.02,2.4-.03,4.67.48,6.64,2.12,8.1,12.58,11.36,31.07,9.7,22.75-2.03,45.52-.29,67.69,5.17,9.8,2.41,15.32,7.24,15.55,13.61.06,1.74-1.29,3.19-3.03,3.26-1.73.06-3.19-1.29-3.26-3.03-.17-4.63-7.58-6.95-10.76-7.73-21.49-5.29-43.57-6.98-65.63-5.01-8.21.73-33.17,2.97-37.72-14.38-.73-2.78-.71-5.58-.69-8.29.03-3.57.05-6.66-1.61-8.78-1.04-1.33-2.31-1.99-4.01-2.09-4.84-.27-11.51,4.15-15.66,8.37-.89.91-2.25,1.19-3.43.71-1.17-.48-1.96-1.62-1.96-2.9-.05-11.49-8.35-22.35-19.2-25.89-6.79,13.57-22.38,21.88-37.45,19.84-.92-.12-1.74-.65-2.24-1.44-.5-.79-.62-1.75-.33-2.64,4.7-14.67,20.62-24.81,35.89-23.08.19-1.45,0-2.8-.84-3.64-1.38-1.41-4.41-1.15-8.97.7l-26.55,10.79c-1.19.49-2.57.2-3.46-.74-.89-.93-1.12-2.32-.58-3.49,2.58-5.61,5.5-11.96,5.39-18.24-.01-.72-.08-1.45-.21-2.18-18.37,17.85-37.42,35.21-56.83,51.78-3.65,3.12-9.73,5.87-14.43,4.54-.78-.22-1.5-.55-2.13-.97Zm68.02-64.46c-.89-.59-1.86-1.02-2.93-1.23-3.15-.64-6.61.51-9.89,1.86-23.87,9.82-43.15,30.24-51.57,54.64-.44,1.27-.81,2.54-.56,3.31.17.54.4.68.77.79,1.93.54,5.96-.98,8.64-3.27,19.95-17.04,39.52-34.91,58.36-53.3-.79-1.12-1.74-2.09-2.83-2.81Zm38.22,32.02c-10.5-.48-21.08,5.73-25.92,15.04,10.35-.2,20.66-6.13,25.92-15.04Z"/><path fill="#2057d5" d="m3729.08,1457.06c8.44-19.4,21.94-36.62,38.47-50.1,8.29-6.73,17.32-12.58,26.97-17.26,2.44-1.1,4.86-2.28,7.32-3.32,2.5-.96,4.98-2,7.51-2.9,2.56-.82,5.1-1.69,7.69-2.42l3.91-1,1.95-.5.98-.25c.35-.08.82-.18,1.23-.24,6.66-1.16,14.73,1.47,18.28,8.78.87,1.76,1.25,3.65,1.4,5.43.04.88.08,1.77,0,2.6-.03.86-.17,1.66-.3,2.46-.56,3.18-1.67,5.94-2.88,8.56-.61,1.3-1.29,2.56-1.97,3.77l-1.99,3.41c-1.31,2.28-2.69,4.52-4.06,6.76-2.75,4.48-5.62,8.89-8.56,13.25-11.81,17.4-25.14,33.77-39.84,48.8l-5.57,5.58c-1.9,1.81-3.78,3.65-5.7,5.45l-2.9,2.67-1.45,1.34-1.56,1.38c-2.13,1.81-4.39,3.51-6.87,5.01-2.48,1.49-5.16,2.82-8.22,3.66-3.03.83-6.59,1.12-10.08.1-.88-.21-1.7-.59-2.51-.97-.85-.34-1.54-.89-2.29-1.37-1.47-1-2.74-2.31-3.76-3.73-2.05-2.87-3.09-6.21-3.31-9.5-.19-3.24.32-6.39,1.3-9.28.96-2.9,2.34-5.49,3.82-7.88,1.5-2.39,3.09-4.56,4.74-6.65l2.46-3.17,2.59-3.06c6.93-8.14,14.88-15.35,23.45-21.69,8.55-6.36,17.88-11.64,27.62-15.92l1.82-.81,1.86-.73,3.72-1.44c1.25-.45,2.52-.86,3.78-1.28,1.26-.42,2.51-.87,3.8-1.21,2.56-.73,5.1-1.49,7.71-2.05l1.94-.46.97-.23c.17-.04.3-.08.51-.11l.63-.11c1.68-.26,3.4-.22,5.06.16,3.32.72,6.43,2.86,8.13,5.98.89,1.57,1.36,3.53,1.25,5.35-.08,1.84-.65,3.43-1.3,4.83-.65,1.4-1.42,2.62-2.18,3.75l-2.23,3.23-4.43,6.4c-5.89,8.54-11.88,17.02-17.82,25.53v.02s-3.9-2.17-3.9-2.17c1.4-3.07,3.36-5.98,6.11-8.26,1.39-1.12,2.93-2.07,4.68-2.7,1.76-.65,3.62-.88,5.46-.8,1.85.11,3.71.56,5.41,1.48.85.46,1.66,1.02,2.37,1.71.37.33.68.71,1.01,1.09l.65.81c1.63,1.84,4.09,2.93,6.49,2.73.6-.03,1.18-.16,1.76-.34.28-.11.57-.19.84-.33l.42-.2.52-.27,4.13-2.18,8.26-4.36,8.26-4.36,4.13-2.18c1.01-.53,2.31-.85,3.58-.67,1.27.16,2.44.75,3.32,1.58.88.84,1.52,1.92,1.79,3.15.27,1.22.1,2.58-.44,3.69-.12.29-.28.55-.45.79-.16.23-.37.54-.46.64l-.71.89-1.39,1.81c-1.83,2.43-3.54,4.95-5.13,7.54-1.59,2.59-3.06,5.26-4.4,7.99-.16.34-.34.69-.49,1.02l-.33.86c-.14.28-.18.58-.24.88-.04.3-.17.59-.15.89-.14,1.19.1,2.39.53,3.51.42,1.13,1.2,2.13,2.1,2.94.43.44.97.73,1.48,1.07.55.25,1.09.53,1.68.65,1.15.3,2.38.39,3.55.08l.45-.08.43-.16.87-.32,2.09-.99c5.56-2.65,11-5.54,16.3-8.67,10.59-6.28,20.63-13.51,29.93-21.57l3.45-3.07,1.7-1.57.85-.78.21-.2s0-.01,0-.02c.02,0-.03.02-.02.05-.06.16,0,.22-.01.2,0,0,.02.03.09.05.07,0,.16.02.16,0,0,0,0,0,0,0l-.25.12-.5.25c-.34.16-.67.34-1,.51-.66.34-1.31.71-1.96,1.08-2.58,1.51-5.05,3.22-7.36,5.12-1.15.95-2.27,1.95-3.35,2.99-.54.52-1.07,1.05-1.58,1.59l-.77.82-.38.41-.29.39c-1.62,1.99-2.51,4.5-2.21,7.02.28,2.5,1.5,4.96,3.47,6.56.93.87,2.1,1.38,3.27,1.82,1.21.29,2.47.51,3.75.33l.96-.09,1.12-.22c.75-.15,1.5-.28,2.24-.46,1.49-.32,2.98-.68,4.46-1.05,11.83-3.04,23.18-7.95,33.48-14.51h0c1.04-.67,2.42-.36,3.08.68.66,1.04.36,2.42-.68,3.08-10.7,6.82-22.49,11.92-34.77,15.07-1.54.39-3.08.76-4.63,1.09-.77.18-1.55.32-2.33.48l-1.17.23-1.36.15c-1.81.24-3.69-.04-5.48-.51-1.75-.62-3.46-1.43-4.84-2.68-2.87-2.36-4.64-5.85-5.04-9.53-.44-3.69.89-7.52,3.21-10.31l.42-.54.41-.44.83-.88c.56-.59,1.13-1.15,1.71-1.72,1.16-1.12,2.37-2.19,3.62-3.22,2.49-2.05,5.16-3.9,7.95-5.53.7-.4,1.41-.8,2.12-1.17.36-.19.72-.38,1.08-.55l.54-.27.27-.13c.17-.07.36-.15.54-.21.74-.24,1.64-.32,2.46-.07.81.23,1.51.7,2.03,1.28,1.03,1.13,1.47,2.94.78,4.54-.17.37-.38.75-.64,1.03-.12.14-.27.3-.38.42l-.22.2-.87.8-1.73,1.6-3.53,3.14c-9.51,8.24-19.76,15.62-30.59,22.04-5.42,3.2-10.98,6.16-16.66,8.86l-2.13,1.01-1.31.5-.66.24-.7.14c-1.85.46-3.84.35-5.67-.14-.94-.22-1.79-.63-2.65-1.04-.8-.5-1.62-.99-2.3-1.65-1.4-1.26-2.58-2.8-3.27-4.58-.69-1.77-1.06-3.71-.84-5.63,0-.48.16-.94.24-1.41.09-.47.19-.94.38-1.37l.51-1.32.52-1.09c1.4-2.86,2.94-5.65,4.6-8.36,1.67-2.71,3.45-5.35,5.37-7.89l1.45-1.89.74-.93c.16-.19.15-.22.21-.31.06-.07.11-.14.13-.22.14-.29.17-.55.11-.86-.06-.3-.25-.62-.49-.85-.54-.46-1.03-.53-1.74-.2l-4.13,2.18-8.26,4.36-8.26,4.36-4.13,2.18-.52.27-.63.3c-.43.22-.88.36-1.33.53-.91.28-1.86.49-2.82.54-3.85.3-7.66-1.41-10.14-4.22l-.81-1c-.19-.21-.36-.44-.58-.62-.4-.4-.89-.73-1.41-1.01-1.04-.57-2.27-.88-3.53-.95-2.55-.15-5,.77-7.07,2.49-2.06,1.7-3.7,4.07-4.87,6.65l-3.89-2.17v-.02c5.67-8.7,11.28-17.43,16.98-26.1l4.26-6.51,2.11-3.23c.66-1.03,1.24-2.04,1.66-3.01.42-.96.68-1.88.67-2.65,0-.77-.17-1.42-.57-2.1-.84-1.44-2.39-2.48-4.14-2.81-.87-.18-1.79-.17-2.67,0l-.33.07-.44.11-.92.24-1.84.48c-2.46.59-4.86,1.39-7.28,2.15-1.21.35-2.39.82-3.58,1.25-1.19.44-2.38.86-3.56,1.31l-3.5,1.46-1.75.73-1.72.8c-9.18,4.21-17.95,9.36-25.95,15.52-8.01,6.13-15.42,13.07-21.82,20.84l-2.4,2.92-2.26,3.02c-1.53,2-2.97,4.05-4.2,6.08-2.48,4.05-3.96,8.24-3.66,12.18.15,1.87.78,3.65,1.79,4.99.51.67,1.07,1.25,1.77,1.68.7.46,1.39.83,2.17,1.01,1.51.43,3.32.36,5.27-.19,1.95-.54,3.97-1.53,5.92-2.73,1.95-1.21,3.85-2.64,5.65-4.2l1.35-1.21,1.4-1.31,2.8-2.63c1.86-1.76,3.67-3.57,5.51-5.35l5.38-5.48c14.16-14.79,27.12-30.74,38.57-47.72,2.84-4.26,5.63-8.55,8.29-12.92,1.33-2.19,2.67-4.37,3.93-6.59l1.93-3.32c.59-1.05,1.14-2.08,1.63-3.13.97-2.08,1.77-4.2,2.09-6.14.33-1.94.24-3.63-.32-4.74-.23-.6-.67-1.08-1.16-1.6-.59-.48-1.19-.98-1.93-1.27-1.44-.65-3.2-.86-4.94-.58-.23.04-.4.07-.68.13l-.91.23-1.82.45-3.64.9c-2.41.65-4.78,1.48-7.18,2.18-2.38.79-4.7,1.71-7.06,2.56-2.33.93-4.6,1.98-6.91,2.96-9.09,4.24-17.78,9.41-25.82,15.5-16.11,12.13-29.7,27.73-39.51,45.63-.59,1.08-1.95,1.48-3.03.89-1.02-.56-1.43-1.81-.98-2.85Z"/><g><path fill="#aabfef" d="m3508.84,960.49c-35.74-9.68-65.57-32.69-84-64.81-18.43-32.11-23.25-69.48-13.57-105.22,19.13-70.65,90.21-114.37,161.81-99.54,2.74.57,5.5,1.23,8.21,1.96,73.78,19.98,117.55,96.25,97.57,170.03-19.13,70.65-90.21,114.37-161.81,99.53-2.74-.57-5.5-1.23-8.21-1.96Zm-89.06-167.72c-9.06,33.46-4.55,68.45,12.71,98.53,17.26,30.07,45.19,51.62,78.65,60.68,2.54.69,5.13,1.31,7.7,1.84,67.05,13.89,133.6-27.05,151.51-93.2,18.7-69.08-22.28-140.5-91.36-159.21-2.54-.69-5.13-1.31-7.7-1.84-67.05-13.89-133.6,27.05-151.51,93.2Z"/><circle cx="3545.07" cy="826.69" r="118.65" fill="#fff"/><path fill="#aabfef" d="m3546.15,822.03c-11.18-3.03-20.03-11.27-24.37-21.37-3.24-7.34-4.02-15.86-1.69-24.46,5.36-19.78,25.84-31.78,45.62-26.42,20.07,5.43,31.7,26.13,26.34,45.91-2.33,8.6-7.29,15.57-13.8,20.27-8.85,6.53-20.64,9.18-32.11,6.08Z"/><path fill="#aabfef" d="m3465.24,869.22c-6.17,22.8,121.13,57.27,127.31,34.47l7.15-26.58c4.8-37.68-106.67-69.5-127.29-34.46l-7.17,26.57Z"/></g></g><g><path fill="#4674dc" d="m2970.54,1690.42h636.56c107.93,0,192.14,93.35,181.01,200.7-17.97,173.28-41.44,219.49-99.03,428.83-48.54,176.47-175,318.94-358.03,318.94h-575.08s214.57-948.48,214.57-948.48Z"/><path fill="#537edf" d="m2891.21,1690.42h606.47c107.93,0,192.14,93.35,181.01,200.7-17.97,173.28-14.64,131.82-68.94,331.33-48.06,176.6-175,318.94-358.03,318.94h-575.08s214.57-850.98,214.57-850.98Z"/><path fill="#3466d9" d="m2910.73,2638.34h436.9v16.66c0,7.11-5.77,12.88-12.88,12.88h-411.13c-7.11,0-12.88-5.77-12.88-12.88v-16.66h0Z"/></g><g><path fill="#b8c9f2" d="m2334.35,1520.54s.96,16.14,1.33,43.09c.03,3.42.07,7.02.09,10.77-4.96,4.89-12.5,11.82-22.21,20.31-62.45-33.87-85.32-94.31-85.32-94.31l77.77,14.75,28.35,5.38Z"/><path fill="#d7e1f7" d="m2332.41,1571.83c17.81-2.07,37.09-11.64,60.87-35.01,49.88-49.14,96.38-121.86,96.38-121.86,21.53-33.46.84-50.4-13.06-40.61,45.74-38.88,15.49-75.34-8.11-55.7,27.87-29.71-10.09-56.96-27.24-29.48l-1.47-.26c16.02-19.58-14.09-41.29-43.43-12.29l-119.99,113.71c2.33-8.66,10.02-92.94-39.96-92.27,0,0-14.3,96.43-16.91,131.83-2.62,18.18-2.28,34.33.07,48.6,19.46,61.81,88.46,93.76,112.85,93.34Z"/><path fill="#b8c9f2" d="m2409.41,1483.44l6.48-3.21c-56.21-113.35-96.29-115.67-98-115.75l-.25,7.23c.4,0,38.1,3.5,91.77,111.73Z"/><rect width="134.96" height="7.22" x="2356.06" y="1365.37" fill="#b8c9f2" transform="rotate(-48.23 2423.743 1369.002)"/><rect width="126.61" height="7.23" x="2380.21" y="1409.56" fill="#b8c9f2" transform="rotate(-48.61 2443.68 1413.194)"/><rect width="136.07" height="7.23" x="2326.65" y="1332.96" fill="#b8c9f2" transform="rotate(-47.51 2394.606 1336.572)"/><path fill="#b8c9f2" d="m2292.91,1476.45c26.97-65.76-12.4-91.56-12.8-91.8l-3.86,6.11,1.93-3.05-1.94,3.05c1.43.91,34.55,23.06,9.98,82.96l6.69,2.74Z"/><g><path fill="#cedaf6" d="m1623.85,1443.29l17.16,201.53,12.27,144.14s246.55,197.15,350.79,165.63c65.54-19.82,162.38-89.2,226.34-182.18,62.72-91.14,109.2-176.67,109.2-176.67l-161.55-134.89-204.34,199.69s-192.17-135.73-224.9-159.34c-30.78-22.2-124.99-57.9-124.99-57.9Z"/><path fill="#8da9ea" d="m1641.02,1644.83l12.27,144.14s246.55,197.15,350.79,165.63c65.54-19.82,162.38-89.2,226.34-182.18-70.53,45.47-248.66,114.56-307.74,99.85-59.06-14.69-214.23-161.51-281.67-227.44Z" opacity=".34"/><path fill="#6e92e4" d="m1017.02,1913.73l4.49-59.03-17.42-428.76,30.49-10.86,126.58-45.25,41.09-17.81,362.32,78.67,59.29,12.61s22.36,134.06,57.93,383.45c2.99,21.06,6.11,43.04,9.3,65.79,7.22,51.49,14.89,107.14,22.95,166.82,2.21,16.19,4.42,32.64,6.63,49.41,20.35,152,42.97,328.18,66.83,526.54h-824.88s43.62-578.42,43.62-578.42l4.03-53.44,1.69-22.23,5.07-67.48Z"/><path fill="#537edf" d="m1133.82,1623.61c-6.05,27.83-36.87,236.34-49.1,251.55-6.05,7.54-35.24-5.39-63.19-20.48l-17.42-428.76,30.49-10.86c33.48,59.29,104.16,186.18,99.22,208.54Z"/><path fill="#94aeeb" d="m1483.12,1805.53c-116.18,18.53-275.33-327.79-321.94-435.71l15.67-6.83,25.42-10.99,351.07,76.19,11.25,2.47c11.05,93.88,31.53,356.86-81.46,374.86Z"/><path fill="#cedaf6" d="m1176.83,1362.94c44.69,101.66,137.42,293.12,223.64,376.66,29.26,28.6,57.86,44.53,83.54,40.31,25.92-4.31,43.72-23.57,55.75-51.68,32.26-75.58,22.35-215.19,13.57-300.02l-351.06-76.23-25.44,10.97Z"/><path fill="#fff" d="m1239.22,1320.21c-7.03,1.27-36.95,31.84-36.95,31.84,0,0,107.72,184.05,152.32,201.02l85.15-53.42,110.11,49.98s-23.15-88.42-42.71-119.33c0,0-42.17-55.81-70.22-63.54-28.04-7.74-147.74-55.58-197.7-46.55Z"/></g><g><path fill="#d7e1f7" d="m1443.47,1285.21l31.42,122.85s24.01,62.11-26.32,76.47c-108.76,31.04-211.56-118.46-211.56-118.46l15.87-143.38,190.6,62.52Z"/><path fill="#b8c9f2" d="m1456.26,1343.43c-27.34-4.39-53.8-16.2-77.02-32.27-28.18-19.5-52.17-44.77-74.45-71.43l-51.92-17.03-15.87,143.38s45.96,51.91,93.67,92.25c4.77-26.99,6.98-28.98,17.09-54.16,6.94-17.28,8.86-7.26,24.7-16.04,10.59-5.87,72.46-2.08,92.47-5.19l-8.68-39.49Z"/><path fill="#d7e1f7" d="m1200.58,1158.59c11.14,84.26,83.93,161.94,154.75,193.06,67.78,29.87,148.56,8.58,172.89-20.56,22.51-27.1,29.73-66.59,28.31-109.67-.67-22.36-3.66-45.82-8.14-68.79-17.36-90.87-55.83-176.14-55.83-176.14-108.04-151.72-313.83,15.89-291.98,182.09Z"/><path fill="#b8c9f2" d="m1489.62,1253.89c-1.04,0-2.09-.36-2.95-1.08-1.92-1.63-2.16-4.51-.53-6.43,14.05-16.59,25.01-34.82,23.45-39.01-1.16-3.12-18.51-4.54-38.32-1.6-1.92.28-3.81-.68-4.71-2.4-15.22-29.13-17.88-80.86-17.99-83.04-.12-2.52,1.82-4.65,4.34-4.78,2.51-.13,4.65,1.82,4.78,4.34.02.5,2.49,48.49,15.55,76.4,14.23-1.85,40.64-3.62,44.91,7.92,4.31,11.62-16.08,37.5-25.05,48.08-.9,1.06-2.19,1.61-3.48,1.61Z"/><path fill="#3264d8" d="m1409.72,1172.41c2.56,7.49-.54,15.34-6.93,17.52-6.39,2.18-13.65-2.12-16.21-9.61-2.56-7.49.54-15.34,6.93-17.52,6.39-2.19,13.65,2.12,16.21,9.61Z"/><path fill="#3264d8" d="m1530.5,1150.14c2.56,7.49-.54,15.34-6.93,17.52-6.39,2.18-13.65-2.12-16.21-9.61-2.56-7.49.54-15.34,6.93-17.52,6.39-2.18,13.65,2.12,16.21,9.61Z"/><path fill="#b8c9f2" d="m1464.64,1291c-19.53,0-33.37-10.33-33.59-10.49-2-1.53-2.38-4.39-.85-6.4,1.53-2,4.38-2.38,6.39-.86,1.21.91,29.17,21.45,60.51-3.8,1.96-1.58,4.83-1.27,6.41.69,1.58,1.96,1.27,4.83-.69,6.41-13.6,10.97-26.85,14.45-38.19,14.45Z"/><path fill="#2b5fd7" d="m1363,1137.3s20.82-22.8,47.52-33.21c26.7-10.41,5.73-26.46-12.78-24-18.51,2.46-41.72,38.58-34.74,57.21Z"/><path fill="#2b5fd7" d="m1534.69,1106.56s-23.87-15.85-52.29-13.88c-28.42,1.97-3.03-25.54,17.44-22.91,26.47,3.4,34.85,36.78,34.85,36.78Z"/><path fill="#b8c9f2" d="m1421.16,1230.42c4.26,22.39-14.62,44.78-42.16,50.02-27.54,5.24-53.32-8.66-57.58-31.05-4.26-22.39,14.62-44.78,42.16-50.02,27.54-5.24,53.32,8.66,57.58,31.05Z"/><path fill="#b8c9f2" d="m1532.8,1206.44c3.88,10.81,12.91,18.71,24.4,22.52-.67-22.36-3.66-45.82-8.14-68.79-15.03,12-22.13,30.12-16.25,46.27Z"/><g><path fill="#567fdf" d="m1573.16,994.93c-.52-8.72-3.32-17.13-6.92-25.03-4.27-9.37-9.76-18.15-15.88-26.41-11.96-16.13-26.03-31.1-41.83-43.54-13.3-10.48-28.32-18.59-44.12-24.62-16.3-6.21-33.41-10.13-50.72-12.24s-35.95-2.41-53.89-1.09c-18.11,1.34-36.12,4.25-53.75,8.59-17.28,4.26-34.22,9.92-50.56,16.98-15.21,6.57-29.93,14.4-43.62,23.74-12.28,8.38-23.85,18-33.66,29.2-8.65,9.88-15.96,21.01-20.53,33.37-1.03,2.8-1.91,5.65-2.62,8.54-.58,2.34,3.03,3.34,3.61,1,3-12.11,8.94-23.23,16.4-33.16,8.47-11.27,18.94-21.06,30.15-29.56,12.61-9.56,26.32-17.66,40.55-24.56,15.45-7.49,31.57-13.56,48.05-18.36,17.06-4.96,34.55-8.58,52.2-10.67,17.62-2.09,35.43-2.72,53.14-1.58,17.22,1.11,34.37,3.91,50.93,8.81,15.96,4.73,31.34,11.47,45.35,20.49,15.64,10.07,29.43,23.03,41.72,36.93,6.99,7.9,13.44,16.26,19.21,25.08,5.3,8.09,10.03,16.72,13,25.95,1.27,3.94,2.19,7.99,2.56,12.12.07.77,1.26.79,1.22,0h0Z"/><path fill="#567fdf" d="m1223.61,1294.8c-14.76-5.82-27.99-15.29-39.71-25.87-11.88-10.72-22.48-23.23-30.01-37.4-3.72-7-6.35-14.4-8.7-21.95-2.46-7.93-4.51-15.99-6.14-24.13-3.18-15.93-4.76-32.18-4.84-48.41-.15-30.29,4.92-60.66,15.08-89.21,8.44-23.72,20.52-46.94,37.68-65.56,12.4-13.45,29.04-26.01,48.08-26.62,2.04-.07,4.07.01,6.1.22,2.4.25,2.38-3.5,0-3.75-19.23-1.98-37.13,8.54-50.67,21.25-18.5,17.38-31.59,40.21-41.06,63.54-11.48,28.28-17.71,58.74-18.83,89.22-.6,16.43.34,32.91,2.9,49.15,2.61,16.56,6.65,33.36,13.09,48.88,6.13,14.76,16.06,27.84,27.25,39.14,11.5,11.61,24.79,21.61,39.59,28.61,3.21,1.52,6.5,2.88,9.85,4.06.75.26,1.04-.89.32-1.17h0Z"/></g><path fill="#567fdf" d="m1282.94,1201.23c23.26-42.77,22.23-61.9,12.75-109.27,19.87,5.39,51.72,13.86,70.9,6.37,19.18-7.49,21.52-36.99,8.06-52.56,22.26,15.5,69.57,42.9,95.95,36.59,26.38-6.31,28.35-51.77,19.02-77.24,4.98,13.3,39.48,30.02,57.46,25.66,65.78-15.92,12.38-74.27,2.68-86.13-17.06-20.85-95.19-62.7-121.68-67.62-15.41-2.87-87.8-9.62-139.07,4.61-71.87,19.95-137.31,88.98-152.22,163.12-14.55,72.35,24.82,208.17,79.77,257.42l66.38-100.96Z"/><g><path fill="#b8c9f2" d="m1282.57,1196.96c3.21,33.32-13.19,62.16-36.64,64.42-23.45,2.26-45.06-22.91-48.28-56.23-3.21-33.32,13.19-62.16,36.64-64.42,23.45-2.26,45.06,22.91,48.28,56.23Z"/><path fill="#d7e1f7" d="m1282.57,1196.96c-1.4-14.57-6.46-27.38-13.51-37.22-22.44,6.86-37.36,36.45-34.1,70.26,1.11,11.52,4.2,22.15,8.71,31.28.76-.02,1.5.18,2.26.1,23.45-2.26,39.86-31.1,36.64-64.42Z"/></g><g><path fill="#6a8ee3" d="m1481.82,944.73c-11.07-9.25-23.75-16.43-37.3-21.35-13.59-4.93-28.28-7.3-42.72-7.25-7.35.02-14.68.74-21.9,2.09-8.16,1.53-16.14,3.83-24.11,6.11-14.51,4.15-29.36,8.43-44.61,7.4-12.2-.82-24.89-4.94-33.21-14.32-1.02-1.15-2.03-2.31-3.07-3.45-1.29-1.42-3.34.38-2.55,1.96,1.44,2.87,3.65,5.21,6.05,7.31s4.99,3.91,7.77,5.42c5.56,3.03,11.7,4.94,17.94,5.93,6.49,1.03,13.09,1.19,19.63.52,8.09-.83,16.03-2.72,23.86-4.88,15.4-4.24,30.56-9.42,46.6-10.61,14.53-1.07,29.14.35,43.17,4.27,13.97,3.9,27.29,9.95,39.15,18.34,1.51,1.07,3,2.18,4.46,3.32.58.45,1.41-.34.82-.82h0Z"/><path fill="#6a8ee3" d="m1391.69,961.51c-8.93-3.88-18.58-5.42-28.26-5.71-9.86-.3-19.7.58-29.53,1.26-9.79.67-19.69,1.25-29.48.26-9.77-.98-19.07-3.91-27.65-8.68s-16.53-11.12-24-17.69c-.94-.83-1.88-1.66-2.82-2.5-.69-.62-1.75-.68-2.44,0-.63.63-.7,1.81,0,2.44,7.59,6.75,15.43,13.33,24.12,18.63,8.59,5.23,17.95,8.94,27.92,10.44,9.82,1.48,19.78,1.23,29.65.48,9.91-.75,19.8-1.9,29.74-2.1,9.64-.19,19.38.59,28.55,3.76,1.15.4,2.28.83,3.4,1.3,1.08.45,1.88-1.43.8-1.9h0Z"/><path fill="#6a8ee3" d="m1285.39,1146.65c.53-14.07.97-28.22-.64-42.24-1.59-13.82-5.25-27.45-12.71-39.31-7.16-11.39-16.99-20.75-27.04-29.56-10.06-8.82-20.5-17.26-29.37-27.32-8.46-9.59-15.62-20.78-18.07-33.5-.28-1.48-.5-2.97-.64-4.47-.1-1.06-.84-1.98-1.98-1.98-.99,0-2.08.91-1.98,1.98,1.28,13.32,7.51,25.26,15.68,35.64,8.29,10.52,18.46,19.21,28.61,27.87,10.1,8.62,20.37,17.39,28.32,28.11,8.24,11.1,13.16,23.99,15.59,37.54,2.48,13.86,2.57,28.03,2.38,42.07-.02,1.72-.05,3.44-.08,5.16-.02,1.24,1.88,1.24,1.92,0h0Z"/><path fill="#6a8ee3" d="m1279.26,1049.56c-1.83-6.21-5.11-11.81-9.12-16.87-4.04-5.1-8.75-9.65-13.55-14.03s-10.06-8.8-14.74-13.56c-4.77-4.86-9.1-10.17-12.28-16.22-3.01-5.71-4.77-11.97-4.26-18.44.06-.83,0-1.65-.04-2.47-.07-1.65-2.23-1.86-2.79-.38-1.2,3.22-.83,6.97-.3,10.31.53,3.34,1.6,6.55,2.98,9.64,2.83,6.37,7.1,12.05,11.8,17.15,4.58,4.98,9.73,9.33,14.89,13.7,5.04,4.26,10.07,8.58,14.51,13.47,4.26,4.7,8,9.98,10.29,15.94.29.75.55,1.51.79,2.27.36,1.14,2.15.67,1.81-.5h0Z"/><path fill="#6a8ee3" d="m1233.06,1130.2c-1.62-8.29-3.31-16.59-5.92-24.63-2.61-8.03-6.17-15.71-11.48-22.34-5.69-7.12-13.3-12.06-20.9-16.91-1.95-1.24-3.9-2.46-5.82-3.75-.95-.64-1.89-1.28-2.82-1.95-.42-.3-.83-.6-1.25-.91-.19-.14-.38-.29-.58-.43-.11-.08-.22-.17-.33-.25.01,0-.44-.34-.27-.21-3.41-2.64-6.63-5.54-9.64-8.64s-5.83-6.45-8.28-9.85c-2.53-3.5-4.81-7.17-6.81-10.99-.51-.97-1-1.95-1.48-2.93-.45-.92-1.76-1.17-2.6-.68-.94.55-1.13,1.67-.68,2.6,3.82,7.92,8.79,15.27,14.66,21.81,5.93,6.62,12.8,12.22,20.26,17.03,7.53,4.86,15.48,9.12,21.71,15.64,5.55,5.81,9.63,13.08,12.65,20.58,3.14,7.81,5.27,15.99,7.23,24.17.25,1.03.49,2.05.73,3.08s1.82.6,1.61-.44h0Z"/><path fill="#6a8ee3" d="m1208.78,1050.21c-9.69-8.23-18.67-17.28-26.83-27.04-1.16-1.39-2.3-2.78-3.44-4.19-.57-.7-1.13-1.41-1.68-2.12s-1.07-1.51-1.75-2.05c-1.55-1.24-3.53.26-2.71,2.09.34.76.99,1.47,1.5,2.12s1.03,1.29,1.55,1.93c1.02,1.25,2.05,2.5,3.1,3.73,2.05,2.4,4.16,4.75,6.31,7.06,4.36,4.67,8.93,9.16,13.68,13.44,2.68,2.42,5.43,4.77,8.22,7.06.6.49,1.45.59,2.04,0,.52-.52.6-1.53,0-2.04h0Z"/></g></g></g><g><path fill="#8da9ea" d="m4108.03,2584.19c0,97.1-754.31,175.81-1684.8,175.81-234.31,0-457.44-4.99-660.18-14-100.17-4.46-195.34-9.9-284.43-16.21-8.8-.62-17.55-1.25-26.23-1.89-261.87-19.3-468.64-46.2-590.88-77.63-79.37-20.39-123.08-42.72-123.08-66.08,0-21.31,36.37-41.76,102.99-60.66,63.72-18.08,155.1-34.78,268.79-49.51,63.36-8.2,133.65-15.81,209.94-22.71,86.04-7.79,179.7-14.67,279.68-20.53,243.47-14.26,524.34-22.39,823.4-22.39,930.49,0,1684.8,78.71,1684.8,175.81Z"/><polygon fill="#98b2ec" points="4108.03 2584.19 4108.03 2513.02 3981.35 2561.18 4108.03 2584.19"/><polygon fill="#98b2ec" points="738.43 2584.19 738.43 2513.02 868.93 2557.3 738.43 2584.19"/><path fill="#a8bdef" d="m4108.03,2513.02c-3.59,94.74-823.77,175.73-1684.8,175.81-930.49.08-1684.8-78.71-1684.8-175.81s754.31-175.81,1684.8-175.81,1688.47,78.78,1684.8,175.81Z"/></g><g><path fill="#4875dd" d="m3239.07,1203.06c25.78,56.79,35.91,124.48,12.84,183.88-9.81,25.26-25.27,48.51-45.44,66.67-9.83,8.85-20.81,16.43-32.65,22.35-12.88,6.44-26.73,10.6-40.69,13.95-27.41,6.57-56.02,10.04-81.78,22.14-13,6.11-24.28,14.6-34.29,24.86-10.78,11.03-20.22,23.34-31.56,33.82-22.71,20.99-53.5,32.17-84.37,30.84-31.69-1.37-64.54-13.94-95.46-1.26-27.89,11.44-45.84,37.06-69.85,54.13-11.54,8.21-25.21,15.07-39.7,14.9-11.71-.14-23.61-4.48-31.9-12.88-3.89-3.95-7.53-9.23-8.61-14.76-.24-1.24-2.13-.71-1.89.52,1.12,5.74,2.68,10.54,6.35,15.22,3.55,4.52,8.42,8.05,13.54,10.6,10.91,5.42,23.58,6.68,35.39,3.81,30.33-7.37,50.15-33.86,73.36-52.55,12.18-9.81,25.86-17.53,41.53-19.78,17.09-2.46,34.41.73,51.3,3.23,16,2.37,31.95,4.03,48.07,1.74,15.24-2.17,30.06-7.31,43.41-14.98,13.59-7.81,24.8-18.39,35.22-29.98,10.46-11.64,20.47-24.02,33.19-33.33,23.88-17.47,53.72-22.76,82.03-28.72,14.49-3.05,29-6.29,42.93-11.39,12.94-4.73,25.17-11.18,36.31-19.3,21.83-15.91,39.34-37.38,51.51-61.43,28.66-56.64,24.79-123.59,1.89-181.47-2.88-7.29-6.06-14.46-9.49-21.51-.39-.8-1.55-.1-1.19.7h0Z"/><path fill="#4875dd" d="m3249,1187.91c-48.47-91.53-172.71-158.96-276.01-143.37-61.94,9.35-83.44,41.48-111.11,91.24-17.02,30.61-42.1,53.63-53.03,87.88-6.25,19.58-6.11,40.72-18.18,58.07-18.63,26.78-59.67,40.57-86.47,57.94-21.73,14.08-42.04,35.21-42.87,61.09-.71,21.92,12.73,42.01,14.52,63.87,3.72,45.68-43.31,85.77-34.71,130.79,5.33,27.89,30.66,47.63,40.82,74.14,8.01,20.88,6,44.26,11.61,65.9,13.13,50.6,79.69,107.34,131.05,70.96,38.52-27.28,38.69-84.94,67.09-122.64,38.37-50.92,114.85-51.59,167.32-87.82,10.52-7.27,20.28-16.29,25.67-27.89,8.29-17.84,5.18-39.17,12.42-57.46,7.95-20.09,27.17-33.52,46.9-42.32,19.73-8.81,40.97-14.25,59.82-24.8,84.83-47.5,85.64-179.14,45.16-255.58Z"/><path fill="#afc3f0" d="m2646.8,1501.94s.03-.04,0-.04-.03.04,0,.04h0Z"/><path fill="#4875dd" d="m2813.54,1248.46c-14.87,19.06-34.12,34.59-55.39,45.97-18.67,9.99-38.69,17.01-58.71,23.76-16.5,5.56-33.86,10.76-48.66,20.2-12.89,8.23-22.12,20.21-24.27,35.61-1.5,10.76-.18,21.97,2.92,32.34,4.57,15.29,12.79,29.03,18.8,43.73,2.4,5.88,4.82,12.1,5.37,18.48.44,5.07-.04,10.04-1.26,14.95-2.63,10.56-8.04,20.17-13.67,29.39-11.96,19.59-27.08,39.17-29.39,62.76-2.74,28,17.68,48.85,34.42,68.49,9.39,11.01,17.23,22.66,22.59,36.18,5.83,14.7,9.6,30.1,14.73,45.04,9.04,26.33,25.88,54.81,54.66,62.62,3.21.87,6.6,1.37,9.93,1.43,3.53.07,6.85-1.37,10.04-2.73,2.35-1,1.81-5.3-.74-5.67-3.4-.49-6.66-1.39-10.06-1.84-2.88-.38-5.78-1.07-8.55-1.95-5.84-1.86-11.33-5.04-16.09-8.86-10.6-8.5-18.66-19.96-24.25-32.27-12.68-27.93-16.04-59.51-34.4-84.86-7.96-10.99-17.49-20.68-26.04-31.2-7.84-9.64-14.94-20.58-16.76-33.12-3.23-22.2,11.03-42.67,22.26-60.45,11.61-18.39,24.55-38.8,21.19-61.55-1-6.75-3.58-13.21-6.22-19.46-3.07-7.25-6.56-14.31-9.99-21.38-5.88-12.12-11.06-24.63-11.97-38.22-.26-3.85-.19-8.42.31-11.79.51-3.37,1.61-7.44,2.78-10.04,2.86-6.35,6.79-10.98,12.21-15.41,11.95-9.78,28.53-15.29,43.31-20.41,19.39-6.72,39.03-12.99,57.49-22.06,20.66-10.15,39.83-23.37,54.76-41.04,3.97-4.7,7.66-9.64,11.08-14.76.96-1.44-1.34-3.28-2.43-1.88h0Z"/><path fill="#5a83e0" d="m2843.34,1294.34c-8.51,7.77-17.32,15.23-25.75,23.07-8.19,7.61-16.27,15.34-24.37,23.05-8.24,7.85-16.46,15.71-24.65,23.6-6.57,6.32-12.96,12.85-18.38,20.2-5.36,7.27-9.69,15.62-11.13,24.62-1.53,9.55.23,18.94,3.06,28.08,2.74,8.88,6.41,17.65,7.65,26.92.99,7.42-.09,14.78-2.39,21.85-4.66,14.32-13.47,26.86-20.76,39.9-7.22,12.91-13.77,27.34-12.56,42.5.79,9.9,4.82,18.75,9,27.62,4.38,9.32,7.57,18.83,9.22,29.02,3.35,20.65,1.23,41.79.23,62.54s-1.14,42.48,5.82,62.39c5.51,15.78,15.77,32.18,30.68,40.65,3.6,2.04,7.84,3.34,11.85,4.26,3.74.86,6.48-4.61,2.73-6.48-14.68-7.31-25.87-19.28-32.71-34.11-8.14-17.65-9.06-37.59-8.5-56.72.61-20.76,3.17-41.56,1.47-62.33-.84-10.26-2.56-20.52-5.97-30.25-3.22-9.2-8.39-17.57-11.53-26.78-4.8-14.06-1.3-27.57,5.24-40.66,6.73-13.48,15.51-25.87,21.51-39.73,3.02-6.97,5.22-14.1,6.05-21.67.95-8.68-.67-17.31-3.25-25.58-2.74-8.76-6.44-17.27-8.21-26.31-1.67-8.53-.67-17.16,3.02-25.04,3.78-8.07,9.38-15.08,15.39-21.59,6.89-7.46,14.29-14.48,21.5-21.63,7.82-7.75,15.61-15.54,23.39-23.34,7.79-7.82,15.3-15.83,22.88-23.85,3.84-4.06,7.75-8.06,11.62-12.09,1.34-1.39-.7-3.41-2.11-2.11h0Z"/><path fill="#5a83e0" d="m2829.28,1336.5c-8.01,12.22-5.83,26.86-2.48,40.25,1.84,7.35,4.05,14.62,5.6,22.04,1.44,6.92,2.57,14.06,1.63,21.13-1.59,11.97-9.93,21.78-17.33,30.84-8.06,9.86-16.96,19.84-21.04,32.15-2,6.03-2.42,12.42-1.18,18.65,1.44,7.29,6.15,12.9,11.33,17.96,2.5,2.44,5.06,4.82,7.3,7.51,2.36,2.84,4.17,6.25,5.61,9.63,3.2,7.48,4.61,15.71,4.63,23.82.02,8.31-1.57,16.36-4.44,24.15-3.15,8.53-7.61,16.51-11.78,24.57-3.79,7.32-7.41,14.77-9.92,22.63-2.15,6.73-3.49,13.7-4.14,20.73-2.85,30.96,10.34,60.95,31.19,83.34,3.12,3.35,6.59,5.97,10.53,8.27,2.59,1.51,6.4-1.71,4.39-4.39-2.7-3.6-5.43-7.01-8.53-10.27-2.88-3.03-5.64-6.18-8.2-9.49-4.67-6.04-8.76-12.6-12.07-19.49-6.03-12.54-9.23-26.35-9.17-40.18.06-13.93,3.6-27.28,9.67-39.93,7.61-15.86,17.43-31.07,19.89-48.83,2.21-15.97-.18-34.38-9.98-47.67-4.25-5.76-10.14-9.95-14.54-15.55-3.88-4.93-5.04-10.64-4.51-16.68.45-5.1,2.7-10.53,5.43-15.24,3.07-5.3,6.81-10.16,10.64-14.91,7.9-9.81,16.59-19.58,21-31.57,4.98-13.54,1.53-28.13-2.79-41.33-4.25-12.97-10.68-27.29-8.33-41.25.58-3.45,1.74-6.72,3.42-9.79.65-1.19-1.08-2.19-1.82-1.06h0Z"/><path fill="#4875dd" d="m3056.72,1061.75c-103.16,9.24-213.44,97.67-239.07,198.94-15.37,60.73,5.93,92.99,41.09,137.77,21.63,27.55,33.14,59.59,60.48,82.93,15.64,13.35,35.17,21.41,46.5,39.26,17.48,27.55,14.3,70.73,19.93,102.16,4.56,25.49,16.18,52.4,39.72,63.19,19.94,9.14,43.66,4.53,64.51,11.35,43.56,14.26,62.3,73.15,107.14,82.65,27.78,5.88,55.78-9.82,84.16-8.93,22.35.7,43.13,11.61,65.26,14.81,51.73,7.49,129.82-31.9,116.18-93.34-10.23-46.08-63.33-68.56-87.08-109.35-32.09-55.1-3.08-125.87-16.16-188.27-2.62-12.52-7.17-25.01-15.77-34.47-13.24-14.55-34.1-19.95-48.17-33.71-15.44-15.11-20.38-38.03-20.86-59.63-.48-21.6,2.73-43.29.3-64.75-10.94-96.6-131.99-148.34-218.15-140.62Z"/><path fill="#5a83e0" d="m3071.26,1146.28c9.68,5.2,19.2,10.69,28.88,15.88,9.69,5.19,19.56,10.09,29.36,15.07,9.68,4.92,19.38,9.78,29.06,14.7,7.41,3.77,14.79,7.71,21.52,12.61,6.28,4.57,11.91,10.22,15.46,17.19,4.23,8.3,4.37,17.8,4.2,26.9-.19,9.79-.74,19.73,1.7,29.31,1.67,6.53,4.74,12.72,8.59,18.22,7.86,11.22,18.48,20,28.56,29.13,4.95,4.49,9.83,9.08,14.18,14.17,2.09,2.44,3.4,4.14,5.27,7.09.8,1.26,1.55,2.55,2.24,3.87.84,1.6,1.35,2.72,1.76,3.76,3.05,7.88,3.04,15.9,2.07,24.21-1.22,10.5-2.57,20.64-1.51,31.24,2.1,20.97,9.83,40.51,17.39,60,7.09,18.27,14.4,37.29,15.13,57.1.57,15.4-2.8,31.68-12.44,44.14-2.5,3.22-4.82,6.45-7.73,9.33-2.86,2.82.81,7.63,4.29,5.57,3.55-2.1,7.39-4.64,10.06-7.83,2.78-3.31,5.21-6.91,7.22-10.74,3.95-7.53,6.52-15.76,7.75-24.16,2.87-19.68-1.31-39.26-7.63-57.88-6.73-19.83-15.62-38.9-20.72-59.28-2.52-10.09-3.97-20.42-3.45-30.84.53-10.55,3.29-21,2.09-31.6-3.32-29.33-31.51-44.82-49.86-64.48-4.54-4.86-8.12-9.36-11.22-15.42-1.51-2.95-2.53-5.64-3.39-9.17-1.13-4.61-1.45-9.33-1.55-14.06-.21-10.15.6-20.37-1.4-30.41-1.75-8.76-6.12-16.63-12.25-23.08-12.48-13.14-30.24-20.23-46.25-27.96-9.92-4.79-19.86-9.56-29.81-14.3-5.24-2.49-10.44-5.08-15.72-7.48s-10.19-4.33-15.25-6.56c-5.05-2.23-10.06-4.56-15.09-6.84-1.72-.78-3.24,1.65-1.51,2.58h0Z"/><path fill="#5a83e0" d="m3162.91,1244.54c8.9,8.47,9.95,20.98,9.97,32.59.03,12.58-1.21,25.56,2.9,37.69,3.62,10.68,11.35,18.08,20.29,24.52,8.42,6.06,18.02,11.27,25.38,17.76,1.84,1.62,3.58,3.34,5.17,5.21,1.21,1.43,2.52,3.29,3.68,5.53,2.06,3.97,3.38,9.14,2.17,14.12-1.59,6.52-5.9,12.09-8.36,18.34-2.69,6.84-3.21,14.73-2.55,21.99.73,8.02,2.87,15.76,6.28,23.06,3.24,6.95,7.85,13.13,12.96,18.81,9.9,11.01,21.73,20.32,29.58,32.96,7.24,11.66,11.35,25.07,11.96,38.7.68,15.36-2.85,30.66-9.36,44.55-1.94,4.14-3.64,8.18-5.02,12.54-.96,3.04,3.2,5.45,5.37,3.12,3.24-3.48,5.63-7.08,7.58-11.41,1.83-4.06,3.48-8.21,4.87-12.44,2.54-7.77,4.15-15.82,4.88-23.97,1.33-14.91-1.05-29.98-6.93-43.74-2.75-6.44-6.28-12.51-10.53-18.07-4.75-6.23-10.26-11.75-15.84-17.23-5.44-5.34-11.01-10.68-15.62-16.77-4.47-5.9-7.86-12.48-9.95-19.59-2.1-7.16-2.99-14.77-2-22.2.41-3.12,1.19-6.27,2.45-9.13,1.38-3.14,3.15-6.1,4.67-9.18,3.22-6.51,4.72-13.02,3.19-20.23-1.12-5.25-3.72-9.97-7.03-14.14-6.64-8.37-16.22-14.04-25.08-19.75-2.28-1.46-4.55-2.93-6.8-4.44-2.02-1.36-4.46-3.09-5.96-4.29-3.86-3.07-7.42-6.54-9.79-10.32-6.39-10.21-6.53-23.4-7.15-35.04-.62-11.71-.98-24.74-7.96-34.72-1.67-2.39-3.66-4.5-5.94-6.32-1.03-.82-2.49.53-1.49,1.49h0Z"/><path fill="#d7e1f7" d="m2894,1588.19c3.12,23.76,11.84,45.26,32.16,65.24,65.61,46.23,147.49,11.68,196.06-52.21,4.08-5.36-33.3-42.95-33.21-44.46l-9.87-156.89-198.28,37.16s13.01,138.07,13.14,151.16Z"/><path fill="#7093e4" d="m3227.1,1595.31l-138.1-36.99s-3.96,49.15-97.31,48.22c-102.31-1.02-96.86-34.36-96.86-34.36l-189.64,30.39-26.68,322.97s15.81,287.49,44.32,352.01l-20.72,73.08,610.89,29.73.96-740.72-86.85-44.33Z"/><path fill="#678de2" d="m3110.32,2075.39c17.02,19.85,31.29,29.97,37.98,55.25,5.64,21.28,11.81,59.34,33.84,99.44,31.63,57.58,68.57,108.98,110.58,141.29-72.88-13.39-150.35-26.64-173.69-96.97-12.21-36.79-13.99-76.52-27.39-112.9-11.34-30.8-58.87-155.65-59.78-174.57,24,23.57,52.51,58.21,78.46,88.47Z"/><path fill="#678de2" d="m2714.37,2236.07c2.01-9.32,7.2-17.58,11.5-26.1,10.68-21.16,16.1-44.63,26.28-66.04,18.62-39.16,51.98-69.21,86.52-95.42s71.4-49.95,101.16-81.47l1.24.73c-32.3,52.21-225.05,387.9-232.85,382.21-7.71-5.62,4.14-104.6,6.15-113.92Z"/><path fill="#7093e4" d="m2420.33,2125.01c22.02-77.91,145.48-423.77,145.48-423.77,0,0,26.37-80.57,146.37-101.35l-13.95,319.51,109.86-98.64s138.62,100.04,136.28,140.32l-7.42,7.83,2.88-1.86s-224.51,378.01-384.12,418.21c-7.5,2.72-78.69,10.96-111.1-39.97-35.57-55.9-46.29-142.36-24.27-220.28Z"/><path fill="#7093e4" d="m3026.23,1980.45l131.02-140.35,115.53,148.9-45.68-395.25s187.77,33.05,227.05,160.71c13.36,43.41,94.04,472.63,91.48,503.44s-62.33,116.97-100.84,136.73c-32.1,16.48-82.03,34.01-140.88-14.12,0,0,0,0,0,0-.05-.05-.11-.09-.16-.14-6.56-5.38-13.24-11.58-20.01-18.68-118.91-118.45-257.52-381.25-257.52-381.25Z"/><path fill="#b8c9f2" d="m2977.52,1818.54c5.49,9.63,4.48,22.57-2.43,31.23-11.84-7.75-21.81-17.99-31.67-28.13-.82-.84-1.64-1.69-2.46-2.53l-8.12-23.14,21.67-11.63,20.09-2.64,2.92,36.84Z"/><path fill="#b8c9f2" d="m2943.81,1804.05c4.86,8.64,8.98,17.81,10.94,27.53,1.96,9.72,1.66,20.06-2.06,29.25-.32.78-.69,1.59-1.37,2.07-.52.37-1.16.51-1.78.64-3.53.75-7.07,1.5-10.6,2.25-2.49-4.69-4.56-9.61-6.16-14.68l11.04-47.07Z"/><path fill="#d7e1f7" d="m3101.75,1946.52s-28.03-41.31-35.85-49.91c-7.82-8.6-16.42-10.95-16.42-10.95,0,0-41.45-24.24-54.74-40.66-13.29-16.42-33.63-46.14-33.63-46.14l-10.17-3.13-10.17,10.17s3.91,46.92-16.42,52.39l-10.95-3.13v-89.93s65.69-44.57,65.69-44.57l51.61-27.37s37.54,67.25,48.48,77.42c10.95,10.17,70.86,73.33,77.35,80.36,0,0-4.32,37.06-54.8,95.45Z"/><g><path fill="#d7e1f7" d="m3090.45,1668.77l-89.15-35.13-110.98,42.32s-46.31,114.18-51.9,122.96c-5.59,8.78-30.34,36.02-30.34,36.02,0,0,2.4,16.15,15.29,32.2,10.98,13.68,22.52,28.94,32.62,36.01,0,0,46.37-21.98,51.9-44.33,5.53-22.36,24.89-71.86,24.89-71.86l16.49-31.14,31.77-21.56,33.84,4.79s4.48,21.56,21,15.97l16.52-8.78-18.68-23.15s23.51,27.95,38.66,14.37l5.57-6.39-18.36-15.97s17.57,12.78,23.15,3.19l-17.57-31.94s27.39.8,25.27-17.57Z"/><path fill="#b8c9f2" d="m2808.08,1834.93s.8-.76,2.27-2.33c1.5-1.64,3.64-3.98,6.42-7.02,2.79-3.1,6.22-6.95,10.19-11.56,1.97-2.31,4.1-4.79,6.3-7.51,2.14-2.76,4.65-5.55,6.49-9.11,6.93-14.18,14.2-31.86,22.83-52.2,8.54-20.37,18.1-43.5,28.49-68.95l-.46.45c33.41-12.69,70.79-26.89,111.03-42.18h-.69c28.06,11.07,58.06,22.91,89.13,35.18l-.63-.82c.13,2.61,0,5.33-1.34,7.64-1.33,2.29-3.49,4.08-5.98,5.36-5.02,2.56-11.11,3.4-16.93,3.44h-1.73s.82,1.5.82,1.5c3.27,5.95,6.79,12.34,10.33,18.78,2.42,4.41,4.84,8.8,7.24,13.16v-1c-.99,1.65-2.6,2.71-4.53,2.94-1.92.25-3.99-.11-5.97-.7-3.96-1.29-7.76-3.36-11.17-5.74l-1.25,1.58c6.17,5.37,12.3,10.69,18.37,15.96l-.1-1.41c-1.86,2.14-3.72,4.27-5.56,6.39l.09-.09c-2.77,2.39-6.32,3.63-9.93,3.36-3.6-.24-7.17-1.54-10.38-3.4-6.44-3.68-12.11-8.76-16.94-14.22l-1.51,1.24c6.34,7.85,12.57,15.56,18.69,23.14l.3-1.44c-5.57,2.97-11.08,5.9-16.52,8.8l.14-.06c-2.35.62-4.79,1.2-7.11.64-2.31-.46-4.41-1.65-6.12-3.3-3.41-3.35-5.43-8.06-6.58-12.6l-.16-.63-.6-.08c-11.66-1.64-22.91-3.22-33.84-4.75l-.33-.05-.28.19c-11.07,7.53-21.62,14.71-31.74,21.61l-.17.11-.09.18c-5.76,10.92-11.22,21.29-16.43,31.17l-.02.04v.04c-8.09,21.04-15.06,40.2-20.51,57.28-1.33,4.28-2.6,8.42-3.64,12.46-.47,2.06-1.18,3.91-1.83,5.75-.78,1.78-1.79,3.46-2.76,5.06-4.31,6.26-9.57,10.98-14.41,14.95-9.86,7.81-18.35,12.77-24.09,16.07-2.88,1.65-5.12,2.83-6.61,3.64-1.5.8-2.26,1.24-2.26,1.24,0,0,.82-.31,2.36-1.05,1.53-.75,3.81-1.87,6.72-3.46,5.83-3.18,14.4-8.03,24.4-15.8,4.91-3.96,10.27-8.66,14.73-15.04,1.02-1.64,2.07-3.36,2.89-5.21.7-1.92,1.45-3.89,1.92-5.89,1.06-4.01,2.36-8.12,3.71-12.38,5.54-17,12.6-36.12,20.76-57.1l-.04.08c5.24-9.86,10.75-20.21,16.55-31.11l-.26.29c10.15-6.86,20.71-14.01,31.81-21.51l-.61.14c10.93,1.56,22.18,3.17,33.83,4.83l-.76-.72c1.24,4.92,3.27,9.77,7.07,13.56,1.91,1.85,4.36,3.26,7.06,3.8,2.73.64,5.47,0,8.07-.69h.05s.09-.06.09-.06c5.44-2.89,10.95-5.81,16.53-8.77l1.02-.54-.73-.9c-6.11-7.59-12.33-15.31-18.66-23.17l-1.51,1.24c5.01,5.67,10.71,10.8,17.47,14.69,3.36,1.94,7.17,3.37,11.22,3.65,4.06.32,8.27-1.13,11.38-3.86l.04-.04.04-.05c1.85-2.12,3.71-4.25,5.57-6.38l.66-.76-.76-.66c-6.07-5.28-12.19-10.6-18.36-15.97l-1.25,1.58c3.63,2.52,7.48,4.63,11.76,6.04,2.15.64,4.46,1.09,6.85.77,2.4-.25,4.77-1.77,6.01-3.92l.29-.5-.27-.5c-2.4-4.37-4.81-8.76-7.24-13.16-3.54-6.43-7.05-12.83-10.33-18.77l-.92,1.5c6.18-.06,12.37-.87,17.91-3.67,2.73-1.41,5.24-3.44,6.81-6.17,1.6-2.77,1.75-5.94,1.58-8.86l-.03-.59-.6-.23c-31.08-12.23-61.1-24.04-89.17-35.08l-.34-.14-.34.13c-40.21,15.39-77.56,29.68-110.93,42.45l-.33.13-.13.33c-10.38,25.43-19.84,48.6-28.2,69.05-8.51,20.36-15.7,38.16-22.44,52.26-1.74,3.45-4.22,6.27-6.32,9.04-2.16,2.73-4.26,5.23-6.2,7.56-3.93,4.6-7.28,8.51-10.01,11.7-2.7,3.11-4.78,5.5-6.24,7.18-1.41,1.62-2.09,2.49-2.09,2.49Z"/><path fill="#b8c9f2" d="m3066.52,1687.52c.1-.07-.49-1.3-1.96-3.28-1.46-1.97-3.89-4.67-7.45-7.3-7.18-5.09-17.34-11.41-28.55-18.58-11.3-7.05-21.29-13.57-29.08-17.81-4.04-2.03-8.1-1.95-10.41-.9-2.38,1.02-3.07,2.41-2.99,2.43.13.14,1.01-.99,3.25-1.69,2.22-.73,5.78-.62,9.51,1.44,7.32,4.4,17.38,11.22,28.63,18.24,11.01,6.89,20.97,13.13,28.8,18.03,7.12,4.87,9.95,9.67,10.25,9.41Z"/><path fill="#b8c9f2" d="m2932.55,1686.19c.03.13,2.22-.25,6.13-1.14,3.91-.9,9.54-2.33,16.41-4.4,6.87-2.06,14.99-4.77,23.83-8.21,4.45-1.7,8.89-3.93,13.84-3.13,4.97.72,10.25,1.77,15.38,3.34,5.15,1.58,9.95,3.77,14.03,6.71,4.09,2.95,7.54,6.5,10.9,9.83,6.67,6.7,12.67,12.78,17.9,17.69,5.21,4.94,9.64,8.71,12.83,11.15,1.6,1.22,2.87,2.13,3.77,2.69.89.57,1.38.84,1.42.78.09-.13-1.67-1.47-4.69-4.08-3.02-2.62-7.27-6.52-12.33-11.57-5.08-5.03-10.96-11.19-17.57-17.98-3.32-3.36-6.8-7.01-11.06-10.13-4.28-3.11-9.3-5.41-14.6-7.03-5.32-1.62-10.54-2.65-15.76-3.38-2.64-.34-5.45-.05-7.88.74-2.46.77-4.67,1.77-6.86,2.63-8.76,3.52-16.79,6.35-23.58,8.58-6.79,2.23-12.34,3.87-16.18,5-3.84,1.13-5.96,1.76-5.93,1.91Z"/><path fill="#b8c9f2" d="m2921.12,1721.91c.04.13,1.73-.3,4.74-1.19,3.39-1.06,7.63-2.38,12.68-3.95,5.47-1.79,11.78-3.85,18.72-6.11,3.53-1.18,7.22-2.4,11.03-3.67,3.84-1.25,7.74-2.75,11.81-3.53,8.2-1.65,16.08,1.34,22.74,4.22,6.85,3.02,13.3,4.85,18.32,7.16,10.18,4.59,14.05,10.92,14.4,10.5.05-.04-.17-.42-.65-1.09-.46-.69-1.24-1.65-2.3-2.82-2.12-2.33-5.7-5.4-10.83-7.88-5.1-2.54-11.5-4.51-18.18-7.58-3.4-1.53-7.06-3.04-11.08-4.03-3.99-.98-8.45-1.36-12.8-.48-4.34.84-8.26,2.38-12.07,3.64-3.8,1.31-7.47,2.57-10.99,3.79-6.88,2.42-13.15,4.62-18.58,6.52-4.96,1.82-9.14,3.34-12.47,4.56-2.93,1.12-4.53,1.8-4.48,1.94Z"/></g><g><path fill="#678de2" d="m3250.98,1770.95s-7.12,139.02-5.96,144.78c1.15,5.77,194.92,238.75,194.92,238.75,0,0-137.25-219.14-146.48-243.36-9.23-24.22-42.48-140.17-42.48-140.17Z"/><path fill="#678de2" d="m2722.12,1746.66s-9.99,133.23-14.43,147.66-200.95,199.84-200.95,199.84c0,0,166.53-232.04,166.53-237.59s48.85-109.91,48.85-109.91Z"/></g><path fill="#d7e1f7" d="m2833.01,1312.81c.06,2.82.06,5.68.09,8.59.48,25.6,3.67,50.64,10.26,73.35,8.51,29.33,22.69,54.8,44.04,72.62,88.5,73.81,237.81-9.33,260.2-159.81,23.54-158.12-131.5-363.93-263.61-186.67-27.6,37.04-50.55,115.62-50.96,191.14-.02.26-.02.52-.02.78Z"/><path fill="#d7e1f7" d="m3099.49,1419.23c9.65,5.75,32.7,7.25,44.69-1.61,14.23-10.48,23.08-22.41,29.14-38.99,9.63-26.38,1.97-64.52-26.32-61.44-16.06,1.76-25.23,14.54-26.34,19.44,0,0,9.61,50.36-20.39,69.95-7.4,4.84-6.21,9.42-.78,12.65Z"/><path fill="#b1c4f0" d="m3134.33,1292.07s.03-.04,0-.04-.03.04,0,.04h0Z"/><path fill="#b1c4f0" d="m3134.1,1291.91c-.27.48-.54.96-.82,1.45-.07.12-.03.3.1.37s.29.03.37-.1c.27-.48.54-.96.82-1.45.07-.12.03-.3-.1-.37s-.29-.03-.37.1h0Z"/><path fill="#4875dd" d="m3100.72,1228.28c-8.16-10.09-13.81-21.92-19.89-33.3-6.01-11.25-12.16-22.63-20.87-32.06-8.59-9.31-19.66-17.31-32.18-20.15-6.15-1.39-12.7-1.49-18.79.23-5.7,1.61-10.68,4.88-15.22,8.59-4.73,3.86-9.01,8.22-13.67,12.16-4.88,4.14-10.31,7.57-16.27,9.94-11.74,4.66-24.91,5.66-37.16,2.48-6.82-1.77-12.9-5.19-19.34-7.95-6.68-2.86-13.53-4.21-20.81-3.8-7.38.42-14.6,2.22-21.78,3.88-6.39,1.48-12.92,3.11-19.52,3-9.35-.15-20.6-3.31-26.32-11.29-2.94-4.1-3.75-9.07-2.57-13.95,1.43-5.93,4.82-11.13,6.84-16.85.99-2.79,1.52-5.78,1.41-8.75-.07-2.01-3.14-2.02-3.13,0,.02,6.25-3.27,11.86-5.73,17.42-2.37,5.34-4.12,10.99-2.84,16.85,2.16,9.89,11.82,15.82,20.95,18.3,5.02,1.36,10.35,1.9,15.54,1.46,7.16-.61,14.17-2.53,21.15-4.13,7.24-1.66,14.64-3.15,22.11-2.62,7.41.52,13.9,3.67,20.51,6.78,6.1,2.87,12.32,5.11,19.01,6.08,6.37.92,12.8.86,19.17-.13,6.19-.97,12.21-2.9,17.82-5.67,5.7-2.82,10.72-6.62,15.43-10.87,9-8.11,17.7-17.82,30.47-19.16,13.18-1.39,25.88,4.87,35.73,13.15,20.3,17.04,28.54,43.26,43.56,64.34,1.71,2.4,3.51,4.73,5.44,6.97.57.66,1.48-.29.94-.94h0Z"/><g><path fill="#4875dd" d="m3206.26,1276.67c-4.18,19.96-31.86,38.02-52.24,38.87-20.38.86-27.92,8.69-41.01-6.95-15.48-18.5-21.39-42.92-31.55-64.79-10.16-21.88-35.64-52.34-59.73-53.5-31.97-1.55-57.3,17.89-89.3,17.17-14.75-.33-28.61-8.37-43.36-8.12-24.17.41-47.29,22.78-69.69,13.69-20.1-8.15-23.11-36.02-16.62-56.71,11.71-37.34,40.85-83.32,78.09-95.33,37.16-11.98,76.62-29.93,113.17-25.25,32.18,4.12,57.6-1.06,88.92,13.58,15.18,7.1,30.37,14.19,45.55,21.29,23.96,11.2,43.31,70.47,49.34,96.21,0,0,40.33,53.08,28.43,109.84Z"/><path fill="#5a83e0" d="m3097.77,1228.8c-1.8-2.74-3.42-5.59-4.8-8.57-1.36-2.93-2.9-6.05-3.64-9.2-.37-1.58-.74-3.06-1.31-4.57-.62-1.62-1.22-3.25-1.81-4.88-1.14-3.14-2.2-6.3-3.39-9.42-4.7-12.31-9.81-24.84-18.84-34.68-9.53-10.39-23.01-16.1-37.09-16.03-7.26.04-14.41,1.61-21.03,4.58-7.05,3.16-12.65,8.23-18.22,13.46-2.73,2.56-5.33,4.97-8.26,6.91-1.18.78-2.41,1.51-3.67,2.16-.6.31-1.21.61-1.82.89-.16.07-1.21.52-.21.1-.41.17-.82.33-1.24.49-2.57.97-5.25,1.67-7.96,2.13-.33.06-.65.1-.98.16-1.13.19,1-.11-.13.02-.66.07-1.32.14-1.98.2-1.45.13-2.9.22-4.35.26-2.86.06-5.73-.07-8.57-.33-.7-.06-1.4-.14-2.09-.21-.35-.04-.7-.08-1.05-.12-.2-.03-1.4-.19-.21-.02-1.54-.21-3.07-.45-4.6-.71-6.04-1.04-12-2.44-17.96-3.84-11.83-2.78-23.85-5.76-36.06-5.97-5.85-.1-11.83.51-17.45,2.2-6.62,2-12.18,5.49-17.57,9.74-.7.55-1.39,1.1-2.08,1.65-.35.28-.69.55-1.04.82-.02.02-1.17.9-.47.37-1.39,1.06-2.81,2.08-4.29,3-.74.45-1.49.88-2.26,1.27-.38.2-.77.38-1.17.56.85-.39-.45.17-.51.19-.69.25-1.4.47-2.11.65-.57.15-1.51.13-2.01.41.72-.4.75-.09.09-.02-.28.03-.56.05-.84.06-.55.03-1.1.03-1.64,0-.27-.01-.54-.04-.81-.05-.69-.04-.6.25.16.04-.44.12-1.37-.26-1.8-.37-.51-.13-1-.31-1.49-.47-.54-.18-.81,0,.13.07-.2-.01-.53-.24-.71-.33-.47-.23-.93-.49-1.37-.76-.22-.14-.45-.28-.66-.43-.3-.21-1.34-.69-.15-.07-.88-.46-1.72-1.51-2.38-2.23-.19-.21-.37-.42-.55-.63-.55-.66,0-.41.01.04,0-.37-.93-1.33-1.15-1.68-.65-1.03-1.19-2.11-1.71-3.21-.47-.99.36.96-.03-.07-.11-.3-.23-.6-.34-.9-.26-.72-.5-1.46-.7-2.2-.38-1.33-.67-2.69-.89-4.06-.03-.21-.18-1.42-.04-.21-.04-.37-.09-.73-.12-1.1-.09-.88-.15-1.76-.18-2.64-.06-1.59-.04-3.19.06-4.78.05-.83.12-1.67.21-2.5.05-.43.09-.85.15-1.27-.13.99.13-.77.16-.94.35-2.06.84-4.03.9-6.13.05-1.83.41-3.24.93-5.1.52-1.84-.64-3.85-2.47-4.36-2.03-.56-3.63.7-4.36,2.47s-1.37,3.33-2.2,5.02c-.97,1.96-1.38,3.94-1.72,6.09-.59,3.67-.95,7.39-.83,11.11.19,6.26,1.52,12.59,4.55,18.12,2.48,4.53,6.34,8.61,11.12,10.71,5.16,2.26,10.82,2.57,16.22.89,3.71-1.15,7.09-3.1,10.21-5.38,1.68-1.23,3.3-2.52,4.93-3.82.69-.55,1.38-1.1,2.08-1.65.63-.5-.16.11.48-.37.41-.31.82-.62,1.24-.92,2.54-1.84,5.2-3.3,8.02-4.64.46-.22-.29.12-.31.13.16-.06.31-.13.47-.19.31-.12.62-.24.94-.36.68-.25,1.36-.48,2.05-.7,1.32-.41,2.66-.76,4.02-1.04.65-.14,1.3-.26,1.96-.37.38-.06.77-.11,1.15-.18-.93.16-.17.02.29-.03,1.39-.16,2.79-.27,4.19-.32,2.86-.12,5.73-.03,8.59.19,1.46.11,2.92.26,4.38.44.17.02,1.24.16.63.08s.47.07.64.09c.77.11,1.54.23,2.31.35,3,.49,5.98,1.07,8.95,1.7,12.24,2.6,24.3,5.97,36.74,7.53,11.79,1.48,23.92.76,34.56-4.97,6.73-3.62,11.89-9.21,17.3-14.47,5.05-4.91,10.43-8.74,17.03-10.88,12.62-4.09,26.92-2.58,38.15,5.01,10.44,7.06,16.82,18.69,21.82,30.24,2.67,6.16,5.07,12.44,7.74,18.61.66,1.53,1.33,3.05,2.02,4.57.69,1.53,1.76,2.78,2.63,4.21,1.72,2.82,3.26,5.73,5.08,8.49,1.74,2.62,3.53,5.2,5.51,7.65.43.54,1.33-.16.96-.74h0Z"/></g><g><path fill="#4875dd" d="m3144.82,1110.83c50.11,40.35,99.96-62.56,52.3-125.65-13.43-17.78-35.88-27.74-58.12-26.24-22.24,1.5-43,12.28-60.36,26.25-14.76,11.87-28.13,27.35-30.85,46.1-2.47,17.02,4.45,34.49,15.71,47.49,11.26,13,26.48,22,42.25,28.85l39.07,3.22Z"/><path fill="#4875dd" d="m3170.07,993.75c.54.02,1.07.05,1.61.1.11.01.23.03.34.04.37.03-.28-.04-.29-.04.28.08.6.09.88.15,1.02.19,2.03.46,3.02.79.4.13,1.06.54,1.47.55.01,0-.71-.31-.35-.15.1.05.2.09.3.13.27.12.54.25.8.38.94.46,1.87.97,2.77,1.51s1.81,1.15,2.68,1.78c.11.08.89.68.33.24s.19.16.32.26c.42.34.84.69,1.25,1.05,1.7,1.48,3.28,3.1,4.83,4.73s2.98,3.3,4.38,5.03c.32.4.64.8.95,1.2.08.11.23.25.29.37.02.05-.65-.84-.34-.44.21.27.42.55.63.82.73.96,1.45,1.92,2.16,2.9,2.85,3.9,5.56,7.9,8.05,12.04,2.82,4.68,5.35,9.54,7.48,14.57l-.5-1.19c2.92,6.92,5.06,14.16,6.07,21.61l-.19-1.4c.83,6.3.84,12.65,0,18.95l.2-1.46c-.68,4.99-1.96,9.87-3.91,14.51l.56-1.32c-1.95,4.58-4.56,8.81-7.6,12.74l.87-1.13c-2.74,3.52-5.77,6.81-8.9,9.97-3.06,3.09-6.18,6.13-9.41,9.05-1.85,1.67-3.75,3.29-5.72,4.82l1.16-.89c-3.78,2.92-7.81,5.49-12.21,7.35l1.38-.58c-2.84,1.19-5.78,2.03-8.83,2.46l1.54-.21c-3.14.42-6.32.38-9.45-.03l1.53.21c-2.19-.3-4.25-.87-6.32-1.63l1.32.56c-.69-.3-1.39-.59-2.09-.88l1.32.55c-1.73-.74-3.36-1.67-4.85-2.82l1.06.82c-.51-.4-1-.85-1.57-1.17-.53-.29-1.18-.49-1.75-.73l1.18.5c-1.11-.47-2.1-1.04-3.37-1.04,1.03.43,2.06.85,3.09,1.28l-.14-.16c-1.53-1.71-4.65-1.67-6.19,0-1.68,1.83-1.63,4.36,0,6.19l.14.16-1.28-3.09c-.11,1.32.65,2.81,1.27,3.95.57,1.04,1.56,1.87,2.48,2.61,1.54,1.24,3.15,2.43,4.93,3.31,3.69,1.83,7.7,2.93,11.8,3.25,7.82.61,15.64-1.71,22.45-5.42,7.07-3.86,13.21-9.31,18.96-14.89s11.82-11.78,16.67-18.58c4.72-6.62,8.08-14.23,9.73-22.19,1.75-8.43,1.73-16.9.49-25.4-2.32-15.88-9.8-30.7-18.96-43.7-2.46-3.49-5.06-6.89-7.74-10.22-2.29-2.85-4.69-5.61-7.32-8.16-2.76-2.67-5.96-5.08-9.31-6.97-3.46-1.95-7.11-3.15-11.04-3.64-1.69-.21-3.39-.21-5.08-.03-1.58.17-3.12,1.28-3.05,3.05.08,1.69,1.34,2.99,3.05,3.05h0Z"/><path fill="#5a83e0" d="m3173.86,999c1.19,1.8,2.29,3.66,3.3,5.57.52.99,1.02,1.98,1.49,2.99.22.48.44.95.65,1.43.11.24.2.49.31.72,0,.02-.27-.64-.13-.31.06.15.12.3.19.45,1.65,4.02,2.92,8.19,3.81,12.44.5,2.41.92,4.84,1.25,7.28l-.14-1.08c.86,6.5.87,13.09,0,19.59l.16-1.17c-.87,6.36-2.6,12.57-5.08,18.49l.47-1.11c-1.96,4.63-4.42,9.04-7.48,13.03l.74-.95c-2.29,2.95-4.89,5.64-7.85,7.92l.96-.74c-2.37,1.81-4.92,3.33-7.66,4.5l1.14-.48c-2.64,1.11-5.41,1.88-8.24,2.28l1.28-.17c-3.72.5-7.48.62-11.21.14l1.07.14c-.94-.13-1.86-.31-2.8-.42l1,.13c-.54-.07-1.04-.18-1.57-.11-.25.03-.5.05-.75.07-1.29.11-2.36.7-2.88,1.94s-.18,2.44.65,3.45c.5.6.96,1.12,1.65,1.53.48.29,1,.51,1.51.74,1.27.55,2.56,1.1,3.89,1.47s2.8.5,4.19.62c1.11.1,2.22.13,3.33.11,1.47-.04,2.96-.29,4.4-.56,1.07-.2,2.13-.45,3.18-.75,2.48-.72,4.91-1.72,7.21-2.91,8.34-4.33,14.87-11.85,19.33-20.01,2.23-4.08,4.11-8.44,5.44-12.9,1.32-4.43,2.15-8.98,2.65-13.58.47-4.26.55-8.56.26-12.84-.31-4.52-.91-9.11-2.09-13.49-2.3-8.48-6.06-16.64-11.21-23.76-.71-.98-1.45-1.95-2.2-2.9-.82-1.03-2.55-.94-3.49-.21-1,.77-1.42,2.31-.68,3.43h0Z"/><path fill="#5a83e0" d="m3150.68,1019.71c.4,5.29.6,10.6.4,15.9-.05,1.36-.13,2.73-.24,4.09-.1,1.27-.17,2.58-.4,3.84.18-.98-.03.17-.06.36-.05.33-.1.67-.16,1-.11.66-.23,1.33-.35,1.99-.24,1.25-.51,2.49-.82,3.73-.73,2.92-1.68,5.78-2.85,8.55l.4-.94c-1.7,3.98-3.94,7.76-6.58,11.2l.68-.88c-2.21,2.86-4.76,5.45-7.61,7.67l.92-.71c-2.89,2.23-6.14,4.06-9.49,5.49l1.08-.46c-.99.42-1.95.86-2.9,1.35-.65.33-1.31.64-1.97.93l.92-.39c-1.17.49-2.82.8-3.64,1.79-.69.84-1.06,1.68-.91,2.78s.7,1.82,1.58,2.42c1.31.88,3.51.61,5.04.5s3.03-.24,4.45-.72c2.67-.91,5.17-2.11,7.51-3.69,4.67-3.16,8.57-7.12,11.86-11.69,6.95-9.65,9.3-21.86,9.5-33.55.12-7.1-.62-14.18-1.66-21.19-.17-1.17-1.57-1.85-2.61-1.71s-2.15,1.15-2.06,2.34h0Z"/></g><g><path fill="#b8c9f2" d="m2937.37,1389.69c-.84,0-1.68-.3-2.34-.92-.35-.33-8.73-8.08-16.92-17.39-15.7-17.85-16.31-25-15.4-28.82,1.54-6.52,9.99-10.38,26.59-12.16,7.97-.85,15.67-.96,19.5-.96,10.66-31.4,6.92-83.79,6.88-84.33-.14-1.9,1.29-3.56,3.19-3.7,1.93-.14,3.56,1.29,3.7,3.19.17,2.31,4.08,57.05-8.12,89.55-.52,1.38-1.86,2.28-3.32,2.24-18.75-.46-40.49,2.62-41.7,7.76-1.39,5.87,14.64,25.1,30.29,39.54,1.4,1.3,1.49,3.48.2,4.89-.68.74-1.61,1.11-2.54,1.11Z"/><path fill="#3264d8" d="m3011.84,1294.51c-1.73,8.25,2.57,16.14,9.61,17.62,7.04,1.48,14.15-4.02,15.88-12.27,1.73-8.26-2.57-16.15-9.61-17.62-7.04-1.48-14.15,4.02-15.88,12.27Z"/><path fill="#3264d8" d="m2881.24,1286.69c-1.73,8.25,2.57,16.14,9.61,17.62,7.04,1.48,14.15-4.02,15.89-12.27,1.73-8.25-2.57-16.14-9.61-17.62-7.04-1.48-14.15,4.02-15.89,12.27Z"/><path fill="#b8c9f2" d="m3007.29,1357.33c-1.59,24.22,21.29,45.44,51.09,47.4,29.8,1.95,55.25-16.1,56.84-40.32,1.59-24.22-21.29-45.44-51.09-47.4-29.8-1.95-55.25,16.1-56.84,40.33Z"/><path fill="#b8c9f2" d="m2833.01,1312.02v.78c.06,2.82.06,5.68.09,8.59.48,25.6,3.67,50.64,10.26,73.35,14.17-8.11,30.03-24.89,30.92-38.66,1.39-20.37-18.33-37.73-41.24-44.07h-.02Z"/><path fill="#517cde" d="m3003.01,1443.7c-1.49,2.22-3.24,4.17-5.13,6.11-12.5,12.58-32.82,19.34-51.65,16.49-8.29-1.2-16.16-4.38-22.81-8.73-10.7-7.19-18.56-17.63-20.86-29.15-1.33-6.62,0-14.92,7.05-17.83,1.6-.63,3.45-.86,5.16-.96,3.17.06,6.59.78,9.74,1.36,17.36,3.48,35.58,3.54,53.06.16,6.23-1.34,12.31-1.89,17.31-1.14,5.13.75,9.19,2.81,11.49,6.94,4.73,8.4,2.04,18.65-3.38,26.74Z"/><path fill="#fff" d="m2994.9,1410.03c-.21,4.49-1.22,8.95-4.18,12.07-3.23,3.51-8.01,4.87-12.64,5.71-16.69,3.4-34.24,3.08-50.8-1.05-3.94-.99-8.14-2.39-10.59-5.6-2.45-3.21-2.51-7.44-1.91-11.52,3.17.06,6.59.78,9.74,1.36,17.36,3.48,35.58,3.54,53.06.16,6.23-1.34,12.31-1.89,17.31-1.14Z"/><path fill="#b8c9f2" d="m2997.88,1449.81c-12.5,12.58-32.82,19.34-51.65,16.49-8.29-1.2-16.16-4.38-22.81-8.73,6.62-8.46,17.93-13.27,28.91-15.06,15.49-2.63,32.09-.48,45.54,7.29Z"/><path fill="#4d79dd" d="m3076.64,1254.23c-1.24,0-2.45-.65-3.1-1.82-9.81-17.57-24.09-26.15-42.47-25.51-14.07.49-25.44,6.41-25.55,6.47-1.73.91-3.87.25-4.79-1.47-.92-1.73-.26-3.87,1.47-4.79.51-.27,12.72-6.67,28.36-7.28,14.7-.57,35.14,4.01,49.16,29.13.95,1.71.34,3.87-1.37,4.82-.55.31-1.14.45-1.72.45Z"/><path fill="#4d79dd" d="m2859.45,1245.49c-.7,0-1.41-.21-2.02-.64-1.61-1.12-2-3.33-.88-4.93,16.44-23.6,37.24-26.14,51.8-24.12,15.5,2.16,27.02,9.74,27.5,10.06,1.63,1.08,2.07,3.28.98,4.91-1.08,1.63-3.28,2.07-4.91.99h0c-.11-.07-10.83-7.09-24.78-8.97-18.21-2.46-33.28,4.67-44.78,21.18-.69.99-1.79,1.52-2.91,1.52Z"/></g><path fill="#b5c8f1" d="m3099.49,1419.23c9.65,5.75,32.7,7.25,44.69-1.61,14.23-10.48,23.08-22.41,29.14-38.99,9.63-26.38,1.97-64.52-26.32-61.44,0,0,17.99,23.11,2.99,59.21-14.99,36.08-47.21,40.14-47.21,40.14,0,0-1.41,1-3.3,2.69Z"/><path fill="#b8c9f2" d="m2969.27,1520.15c-44.16,6.11-63.35,2.06-81-6.71l-4.92-49.63c18.75,20.22,53.39,29.89,66.44,30.16,36.29.73,48.09.73,92.23-22.32,0,0-24.25,41.79-72.75,48.5Z"/></g><g><path fill="#94aeeb" d="m2175.29,1164.91h-361.75c-11.55,0-22.6,4.7-30.61,13.02l-90,93.42c-10.48,10.88-28.87,3.46-28.87-11.65v-497.15c0-50.11,40.62-90.73,90.73-90.73h434.89c40.78,0,73.84,33.06,73.84,73.84v331.02c0,48.73-39.5,88.23-88.23,88.23Z"/><path fill="#d2ddf7" d="m2086.82,790.2c-11.92-14.85-26.08-27.77-42.09-38.17-13.09-8.51-27.41-15.33-42.74-20.13-6.98-2.19-14.17-3.96-21.54-5.27-27.31-4.88-54.33-3.07-79.53,4.29-65.66,19.16-118.85,76.03-132.16,150.55-8.46,47.39.68,93.66,22.59,131.55,16.77,29,41.04,53.08,70.61,68.98,12.85,6.9,26.69,12.26,41.37,15.81,3.43.83,6.91,1.56,10.43,2.19,16.44,2.94,32.77,3.45,48.67,1.79,79.34-8.27,147.68-70.72,163.02-156.62,10.3-57.68-5.48-113.72-38.63-154.97Zm-109.52,274.35c-18.41,4.3-37.85,5.01-57.48,1.51-1.09-.19-2.17-.4-3.25-.63-15-3.03-29.01-8.35-41.76-15.56-30.96-17.49-54.49-46.06-66.74-79.9-9.21-25.42-12.04-53.81-6.88-82.71,9.13-51.12,41.2-92.09,82.98-113.23,27.18-13.75,58.45-19.13,90.21-13.45,5.03.9,9.95,2.06,14.76,3.45,15.44,4.48,29.65,11.44,42.34,20.4h0c16.22,11.44,29.94,26.13,40.46,43.03,19.78,31.76,28.32,71.34,21.07,111.93-11.4,63.82-58.55,111.81-115.72,125.17Z"/><path fill="#a6bcee" d="m1974.38,760.57c-80.59-14.39-158.13,42.33-173.19,126.69-15.07,84.36,38.05,164.41,118.63,178.8,80.59,14.39,158.13-42.32,173.2-126.68,15.07-84.36-38.05-164.42-118.64-178.81Zm.97,291.05c-10.58,1.8-21.48,2.28-32.51,1.3h0c-3.72-.33-7.45-.83-11.19-1.5-7.86-1.4-15.42-3.51-22.65-6.24-22.26-8.4-41.29-22.76-55.72-40.98-23.84-30.1-35.13-70.75-27.66-112.59,10.25-57.42,52.89-100.5,104.45-112.11,16.14-3.63,33.17-4.18,50.35-1.11,8.85,1.58,17.33,4.05,25.37,7.3,9.65,3.9,18.68,8.93,26.95,14.93,10.08,7.29,19.05,16,26.69,25.81,23.4,30.01,34.43,70.31,27.02,111.78-10.69,59.86-56.58,104.14-111.09,113.42Z"/><path fill="#d2ddf7" d="m2086.44,938.2c-10.69,59.86-56.58,104.14-111.09,113.42-10.58,1.8-21.48,2.28-32.51,1.3h0c-3.72-.33-7.45-.83-11.19-1.5-7.86-1.4-15.42-3.51-22.65-6.24-22.26-8.4-41.29-22.76-55.72-40.98-23.84-30.1-35.13-70.75-27.66-112.59,10.25-57.42,52.89-100.5,104.45-112.11,16.14-3.63,33.17-4.18,50.35-1.11,8.85,1.58,17.33,4.05,25.37,7.3,9.65,3.9,18.68,8.93,26.95,14.93,10.08,7.29,19.05,16,26.69,25.81,23.4,30.01,34.43,70.31,27.02,111.78Z"/><path fill="#b8c9f2" d="m2169.41,952.77l-.04.24c-5.37,30.09-17.1,57.36-33.46,80.56-41,58.17-111.11,90.76-183.17,77.89-13.37-2.39-26.13-6.22-38.18-11.32,69.41,12.07,136.87-18.96,176.95-74.49,16.64-23.05,28.56-50.32,33.94-80.47l.04-.24c2.45-13.78,3.4-27.48,2.98-40.89-.4-13.28-2.15-26.29-5.14-38.85-.92-3.86-1.94-7.69-3.1-11.46-4.39-14.51-10.45-28.32-17.99-41.15-25.7-43.79-68.54-76.18-120.97-85.8,13.05-.61,26.34.21,39.7,2.6,55.37,9.89,100.37,44.56,126.56,91.29,7.2,12.84,12.97,26.6,17.15,41,1.1,3.77,2.08,7.58,2.96,11.43,2.85,12.57,4.5,25.56,4.84,38.8.35,13.42-.64,27.1-3.09,40.87Z"/><path fill="#dbe4f8" d="m2169.41,952.77l-.04.24c-5.37,30.09-17.1,57.36-33.46,80.56l-44.4-7.93c16.64-23.05,28.56-50.32,33.94-80.47l.04-.24,43.92,7.84Z"/><path fill="#a6bcee" d="m2172.5,911.9l-44.02-7.86c-.4-13.28-2.15-26.29-5.14-38.85l44.32,7.92c2.85,12.57,4.5,25.56,4.84,38.8Z"/><path fill="#dbe4f8" d="m2164.7,861.66l-44.46-7.94c-4.39-14.51-10.45-28.32-17.99-41.15l45.29,8.09c7.2,12.84,12.97,26.6,17.15,41Z"/><path fill="#dbe4f8" d="m1919.82,1066.05c19.62,3.5,39.07,2.79,57.48-1.51l-14.87,37.24c-15.9,1.66-32.23,1.15-48.67-1.79-3.52-.63-7.01-1.36-10.43-2.19l13.25-32.38c1.08.22,2.16.43,3.25.63Z"/><path fill="#dbe4f8" d="m2086.82,790.2l-14.87,37.25c-10.52-16.91-24.24-31.59-40.46-43.03l13.24-32.39c16.01,10.4,30.17,23.32,42.09,38.17Z"/><path fill="#dbe4f8" d="m1874.81,1049.87l-12.85,32.13c-29.57-15.91-53.83-39.99-70.61-68.98l16.72-43.05c12.25,33.84,35.78,62.42,66.74,79.9Z"/><path fill="#dbe4f8" d="m2001.99,731.89l-12.84,32.12c-4.81-1.39-9.73-2.55-14.76-3.45-31.76-5.67-63.03-.3-90.21,13.45l16.75-43.11c25.19-7.36,52.21-9.17,79.53-4.29,7.38,1.32,14.57,3.08,21.54,5.27Z"/><path fill="#dbe4f8" d="m2005.78,785.69l-96.79,259.5c-22.26-8.4-41.29-22.76-55.72-40.98l76.79-224.7c16.14-3.63,33.17-4.18,50.35-1.11,8.85,1.58,17.33,4.05,25.37,7.3Z"/><path fill="#dbe4f8" d="m2059.42,826.42l-84.07,225.2c-10.58,1.8-21.48,2.28-32.51,1.3l89.88-252.3c10.08,7.29,19.05,16,26.69,25.81Z"/><path fill="#a6bcee" d="m1932.05,985.2c-6.01-1.54-11.25-3.49-15.73-5.85-4.49-2.36-8.34-4.77-11.58-7.22-3.24-2.45-5.81-4.78-7.72-6.99-1.9-2.21-3.3-3.86-4.17-4.96-.85-1.24-1.38-2.35-1.59-3.32-.21-.97.35-2.2,1.69-3.67l11.12-12.05c1.16-1.35,2.45-1.94,3.88-1.76,1.42.18,3.07,1.45,4.95,3.81,2.9,3.48,6.38,6.75,10.43,9.82,4.05,3.06,8.46,5.41,13.22,7.04l7.9-44.21c-4.82-3.04-9.59-6.39-14.3-10.04-4.71-3.65-8.84-7.78-12.38-12.39-3.54-4.61-6.17-9.84-7.89-15.68-1.71-5.84-1.9-12.54-.55-20.1.97-5.44,2.75-10.46,5.33-15.07,2.58-4.61,6.04-8.51,10.37-11.72,4.32-3.2,9.5-5.59,15.53-7.17,6.03-1.57,12.88-1.99,20.56-1.24l1.3-7.26c.22-1.21.81-2.15,1.77-2.84.96-.68,2.04-.92,3.23-.71l2.9.52c1.19.21,2.12.81,2.79,1.78.66.98.89,2.07.68,3.28l-1.34,7.48c4.82,1.33,9.3,3.03,13.46,5.09,4.15,2.07,7.79,4.2,10.92,6.4,3.13,2.2,5.72,4.22,7.77,6.07,2.04,1.85,3.52,3.24,4.42,4.18,1.05.97,1.56,2.23,1.51,3.78-.05,1.55-.55,2.87-1.51,3.94l-11.26,11.56c-2.42,2.38-4.6,2.61-6.56.7-2.74-2.67-6.05-5.6-9.92-8.79-3.88-3.19-8.3-5.85-13.28-7.99l-7.41,41.49c4.52,2.99,9.24,6.37,14.17,10.13,4.92,3.77,9.28,8.09,13.08,12.98,3.8,4.89,6.73,10.36,8.79,16.42,2.05,6.06,2.43,12.8,1.1,20.2-2.21,12.39-8.03,22-17.44,28.81-9.42,6.82-21.71,9.34-36.86,7.57l-4.21,23.58c-.22,1.21-.84,2.11-1.86,2.71-1.03.6-2.13.79-3.32.58-1.34-.24-2.79-.7-4.35-1.36-1.57-.67-2.17-1.99-1.82-3.95l4.21-23.58Zm24.58-137.61c-5.78-.25-10.35.88-13.71,3.4-3.36,2.52-5.43,5.97-6.22,10.35-.81,4.53-.07,8.53,2.23,11.98,2.29,3.45,5.99,7.19,11.1,11.22l6.6-36.95Zm-8.8,114.93c5.15.3,9.57-.63,13.25-2.78,3.68-2.15,5.98-5.79,6.89-10.93.78-4.38.19-8.77-1.78-13.18-1.97-4.41-5.72-8.74-11.24-13l-7.13,39.9Z"/></g><g><path fill="#cedaf6" d="m765.63,2243.63c11.58,148.31,603.79,203.93,603.79,203.93l65.53-234.05-391.81-111.65s62.98-432.92,57.27-481.58c-5.68-48.28-94.9-192.08-96.31-194.34-.01-.01-.01-.02-.01-.02,0,0-111,41.41-131.86,80.81-20.86,39.4-118.18,588.59-106.59,736.89Z"/><path fill="#d7e1f7" d="m1422.11,2241.03s157.73-24.22,173.65-20.76c15.92,3.46,100.62,22.33,120.82,26.71,20.2,4.38-11.26,40.84-46.23,34.24,38.98,36.73,74.82,66.02,82.76,76.59,7.93,10.57,9.72,25.93-6.49,27.8,14.47,21.47,1.11,34.27-11.9,30.52-1.24,12.38-14.35,23.4-25.22,20.28-2.38,8.8-14.82,15.31-21.64,14.5-6.82-.81-87.62-5.84-99.29-9.99-11.67-4.15-113.67-61.12-128.13-63.79-14.46-2.68-56.51-1.38-56.51-1.38,0,0,21.23-133.73,18.18-134.73Z"/><path fill="#a1b8ed" d="m1445.58,2376.64c-17.83-.71-40.83,0-40.83,0,0,0,21.23-133.73,18.18-134.73,0,0,18.02-2.69,32.44-4.83-18.21,44.17-19.03,92.71-9.79,139.56Z"/><g mask="url(#a)"><path fill="#b8c9f2" d="m1445.58,2376.64c-17.83-.71-40.83,0-40.83,0,0,0,21.23-133.73,18.18-134.73,0,0,18.02-2.69,32.44-4.83-18.21,44.17-19.03,92.71-9.79,139.56Z"/></g><path fill="#a1b8ed" d="m1604.14,2252.63c32.7,8.88,93.88,29.25,111.33-5.89.37.08.78.17,1.11.24,20.2,4.38-11.26,40.84-46.23,34.24,3.99,3.76-35.57-14.66-66.22-28.59Z"/><g mask="url(#b)"><path fill="#b8c9f2" d="m1604.14,2252.63c32.7,8.88,93.88,29.25,111.33-5.89.37.08.78.17,1.11.24,20.2,4.38-11.26,40.84-46.23,34.24,3.99,3.76-35.57-14.66-66.22-28.59Z"/></g><path fill="#a1b8ed" d="m1632.24,2311.72c38.28,21.01,75.54,41.19,116.93,53.94,3.76.69,5.52-1.23,6.21-4.4,5.84,10.18,5.77,22.67-8.76,24.35.81,1.2-78.5-40.48-114.38-73.89Z"/><g mask="url(#c)"><path fill="#b8c9f2" d="m1632.24,2311.72c38.28,21.01,75.54,41.19,116.93,53.94,3.76.69,5.52-1.23,6.21-4.4,5.84,10.18,5.77,22.67-8.76,24.35.81,1.2-78.5-40.48-114.38-73.89Z"/></g><path fill="#a1b8ed" d="m1608.94,2354.38c45.3,19.88,82.18,32.79,136.16,44.63,2.37.57,4.94-.02,7.15-1.3,3.33,13.94-7.2,21.4-17.53,18.43-.26,2.54-92.34-23.05-125.78-61.75Z"/><g mask="url(#d)"><path fill="#b8c9f2" d="m1608.94,2354.38c45.3,19.88,82.18,32.79,136.16,44.63,2.37.57,4.94-.02,7.15-1.3,3.33,13.94-7.2,21.4-17.53,18.43-.26,2.54-92.34-23.05-125.78-61.75Z"/></g><path fill="#a1b8ed" d="m1729.14,2428.67c-5.09,6.05-12.79,9.7-19.63,7.74-.23.84-79.34-4.66-113.93-37.03,46.17,19.19,82.6,22.26,133.56,29.28Z"/><g mask="url(#e)"><path fill="#b8c9f2" d="m1729.14,2428.67c-5.09,6.05-12.79,9.7-19.63,7.74-.23.84-79.34-4.66-113.93-37.03,46.17,19.19,82.6,22.26,133.56,29.28Z"/></g><polygon fill="#8da9ea" points="1367.35 2174.12 1307.39 2456.83 1389.56 2473.05 1483.2 2199.61 1367.35 2174.12"/><g opacity=".34"><path fill="#8da9ea" d="m920.66,2144.19l122.47-42.32s62.98-432.92,57.27-481.58c-5.68-48.28-94.9-192.08-96.31-194.34.79,2.63,60.39,201.63,39.04,266.01-21.41,64.57-121.69,449.22-122.47,452.23Z"/></g></g><g><path fill="#eff3fc" d="m2592.31,2378.64l-22.07,39.19-274.73,166.99-30.58,18.59c-4.3,2.62-9.92,1.32-12.64-2.94l-9.24-14.5c-2.76-4.33-1.48-10.07,2.86-12.82l31.92-20.21,268.48-170.03,46.01-4.27Z"/><polygon fill="#c3d2f4" points="2592.31 2378.64 2570.24 2417.83 2546.31 2382.91 2592.31 2378.64"/><path fill="#fff" d="m2295.51,2584.82l-12.2,7.42-18.37,11.17c-4.3,2.62-9.92,1.32-12.64-2.94l-9.24-14.5c-2.76-4.33-1.48-10.07,2.86-12.82l19.74-12.49,12.18-7.72c4.71,8.73,12.96,23.92,17.68,31.89Z"/><path fill="#c3d2f4" d="m2295.51,2584.82l-12.2,7.42-17.66-31.59,12.18-7.72c4.71,8.73,12.96,23.92,17.68,31.89Z"/><g><path fill="#6c90e3" d="m1762.13,2564.01l344.75,85.84c22.48,5,45.86-3.04,60.51-20.81l226.33-274.45c14.96-18.14,5.85-45.68-16.97-51.32l-321.71-79.61c-12.67-3.14-26.06.63-35.24,9.92l-273.47,276.8c-17.65,17.87-8.73,48.18,15.79,53.62Z"/><polygon fill="#fff" points="1795.39 2512.44 2125.36 2589.12 2333.9 2333.45 2038.07 2258.48 1795.39 2512.44"/><polygon fill="#d5dff7" points="2109.03 2553.21 2076.83 2598.41 1825.39 2535.45 1872.36 2490.3 2109.03 2553.21"/><rect width="6.93" height="238.06" x="2014.57" y="2370.71" fill="#2057d5" transform="rotate(-74.31 2018.024 2489.735)"/><rect width="6.93" height="240.57" x="2043.78" y="2338.52" fill="#2057d5" transform="rotate(-75.2 2047.32 2458.817)"/><rect width="6.93" height="243.04" x="2072.91" y="2306.9" fill="#2057d5" transform="rotate(-76.34 2076.17 2428.37)"/><rect width="6.93" height="242.33" x="2104.43" y="2273.85" fill="#2057d5" transform="rotate(-75.81 2108.083 2395.059)"/><rect width="6.93" height="241.29" x="2135.84" y="2242.09" fill="#2057d5" transform="rotate(-75.81 2139.35 2362.745)"/><rect width="6.93" height="246.81" x="2163.93" y="2206.81" fill="#2057d5" transform="rotate(-76.08 2167.42 2330.213)"/></g></g><g><path fill="#bccdf2" d="m1179.5,2482.58c-42.57,0-89.96-62.32-89.96-104.55s34.23-77.85,76.29-77.85,76.3,34.92,76.3,77.85c0,40.42-17,104.55-62.63,104.55Zm-13.66-156.51c-27.79,0-50.41,23.31-50.41,51.96,0,31.61,38.32,78.66,64.07,78.66,23.66,0,36.74-46.51,36.74-78.66,0-28.65-22.61-51.96-50.41-51.96Z"/><path fill="#bccdf2" d="m1390.13,2237.99l-27.85,279.72c-1.83,18.3-17.21,32.23-35.6,32.23h-112.01c-18.6,0-34.11-14.27-35.65-32.82l-23.17-279.13h234.28Z"/><path fill="#fff" d="m1183.02,1903.21c-7.85,26.28-11.36,53.32-6.9,79.34,2.21,12.96,5.9,25.61,11.03,37.74,5.27,12.08,11.81,23.66,19.26,34.71,7.71,10.9,15.88,21.58,25.13,31.45,2.19,2.38,4.58,5.33,6.98,8.2,2.34,2.91,4.84,5.64,7.03,8.7l6.21,9.55c2.15,3.11,3.43,6.94,5.14,10.37,1.8,3.4,2.67,7.36,3.79,11.14,1.31,3.71,1.52,7.82,1.99,11.78.3,1.98.25,3.99.07,6.02l-.41,6.03c-.28,1.99-.84,3.94-1.26,5.9-.44,1.96-.87,3.91-1.7,5.73l-2.26,5.5c-.92,1.73-1.94,3.41-2.91,5.1-.91,1.73-2.09,3.26-3.25,4.8-1.16,1.54-2.25,3.12-3.61,4.46-5.11,5.74-10.8,10.35-17.59,14.18l-4.32-6.85c9.59-8.44,17.44-19.79,20.1-31.47.52-1.42.64-2.93.81-4.41.15-1.48.44-2.94.5-4.41l-.2-4.44c0-1.47-.09-2.93-.51-4.4-.68-2.91-.87-5.85-2.19-8.67-1.12-2.83-1.85-5.73-3.6-8.4-1.63-2.69-2.75-5.51-4.69-8.08l-5.56-7.77c-1.98-2.52-4.34-4.85-6.48-7.28l-6.88-7.5c-4.92-5.27-9.82-10.55-14.32-16.25-4.74-5.47-8.91-11.46-13.1-17.41-7.9-12.25-15.3-25-20.55-38.82-5.2-13.81-8.9-28.28-10.23-43.02-3.03-29.56,4-59.23,16.95-84.59l7.49,3.07Z"/><path fill="#fff" d="m1284.77,1895.22c14.49,11.87,26.35,28.41,31.81,47.49,2.86,9.46,4.09,19.37,4.23,29.21.13,9.86-1.46,19.53-3.4,29-2.21,9.4-5.37,18.48-9.04,27.22l-2.45,6c-.72,1.88-1.62,3.76-2.23,5.64l-1.57,5.65c-.58,1.9-.64,3.7-1.04,5.57-.47,1.9-.29,3.64-.37,5.45-.21,1.87.29,3.49.45,5.25.06,1.81.89,3.3,1.24,5.05.77,1.53,1.33,3.23,2.38,4.68,3.6,6.1,10.5,11.29,17.71,14.57l-1.59,7.94c-10.28-1.07-19.86-5.45-27.52-13.56-1.92-1.97-3.37-4.4-4.93-6.71-1.13-2.51-2.71-4.99-3.37-7.68-.73-2.67-1.62-5.4-1.75-8.09-.25-2.7-.69-5.48-.42-8.08.2-2.6.06-5.39.64-7.87l1.54-7.55c.62-2.46,1.49-4.76,2.24-7.16.8-2.39,1.56-4.84,2.3-6.7,3.24-7.98,5.57-16.18,7.69-24.33,1.95-8.18,3.16-16.45,3.67-24.7.39-8.25-.2-16.45-1.6-24.57-2.87-16.28-10.5-31.61-20.55-46.17l5.9-5.55Z"/><path fill="#afc3f0" d="m1390.13,2237.99l-27.85,279.72c-1.83,18.3-17.21,32.23-35.6,32.23h-84.7c20.97-9.53,44.64-26.25,58.71-42.48,17.1-19.73,20.79-190.68,21.59-269.47h67.86Z"/></g><g><path fill="#6389e2" fill-rule="evenodd" d="m3140.27,2522.57c-8.53,8.38-37.57,14.55-72.1,14.55s-64.29-6.32-72.41-14.86h0c-56.09-55.11-72.76-112.82-84.55-226.74l313.94-.13c-11.78,113.92-28.79,172.08-84.88,227.19h0Z"/><path fill="#7799e5" d="m3211.18,2358.53c-1.42,7.27-8.46,12.01-15.73,10.59-7.27-1.42-12.01-8.46-10.6-15.73,4.23-21.42,20.51-35.23,39.02-39.34,7.71-1.71,15.79-1.74,23.5.07,7.85,1.84,15.4,5.57,21.92,11.35,15.64,13.87,24.86,39.2,15.96,77.7-8.22,35.57-27.86,54.09-48.12,59.74-8.35,2.33-16.8,2.45-24.68.67-7.97-1.81-15.36-5.57-21.48-10.99-13.76-12.17-21.1-32.38-14.13-57,2-7.13,9.4-11.28,16.52-9.28,7.13,2,11.28,9.4,9.28,16.52-3.82,13.49-.52,23.91,6.05,29.73,2.72,2.41,6.04,4.09,9.63,4.91,3.68.83,7.68.76,11.67-.35,11.76-3.28,23.49-15.5,29.13-39.91,6.3-27.24,1.43-43.71-7.57-51.68-3-2.66-6.54-4.39-10.27-5.27-3.87-.91-7.87-.9-11.65-.07-8.79,1.95-16.5,8.4-18.46,18.36Z"/><path fill="#7799e5" fill-rule="evenodd" d="m3140.27,2522.57c-7.31,7.18-29.71,12.74-57.72,14.18-28.41-1.46-51.04-7.16-58.01-14.5h0c-56.09-55.11-72.76-112.82-84.55-226.74l285.17-.12c-11.78,113.91-28.79,172.07-84.88,227.18h0Z"/><path fill="#fff" fill-rule="evenodd" d="m3068.18,2334.9c86.55,0,157.13-18.58,157.13-41.35s-70.59-41.35-157.13-41.35-157.13,18.58-157.13,41.35,70.59,41.35,157.13,41.35Z"/><path fill="#e6edfa" fill-rule="evenodd" d="m3068.18,2325.11c79.21,0,143.81-14.17,143.81-31.55,0-17.38-64.6-31.55-143.81-31.55s-143.81,14.17-143.81,31.55,64.6,31.55,143.81,31.55Z"/><path fill="#517cde" fill-rule="evenodd" d="m3191.27,2309.88c-25.2,9.13-70.9,15.23-123.1,15.23s-97.9-6.1-123.1-15.23c25.2-9.13,70.9-15.23,123.1-15.23s97.9,6.1,123.1,15.23Z"/><path fill="#92adea" fill-rule="evenodd" d="m3191.27,2309.88c-7.95,2.88-17.93,5.46-29.52,7.64-3.2-5.34-7.35-9.3-11.27-11.26-13.34-6.67-59.51-7.18-73.36-4.1-13.85,3.08-36.94,6.16-48.74,4.1-11.8-2.05-44.63,1.54-56.72,10.69-10.34-2.06-19.32-4.44-26.59-7.07,25.2-9.13,70.9-15.23,123.1-15.23s97.9,6.1,123.1,15.23Z"/><path fill="#4a77dd" fill-rule="evenodd" d="m3170.8,2310.85c4.15,0,7.53-.89,7.53-1.98s-3.38-1.98-7.53-1.98-7.53.89-7.53,1.98,3.38,1.98,7.53,1.98Z"/><path fill="#4a77dd" fill-rule="evenodd" d="m3071.5,2299.56c2.76,0,5.01-.59,5.01-1.32s-2.25-1.32-5.01-1.32-5.01.59-5.01,1.32c0,.73,2.25,1.32,5.01,1.32Z"/><path fill="#4a77dd" fill-rule="evenodd" d="m3165,2314.83c2.76,0,5.01-.59,5.01-1.32,0-.73-2.25-1.32-5.01-1.32s-5.01.59-5.01,1.32,2.25,1.32,5.01,1.32Z"/><path fill="#4a77dd" fill-rule="evenodd" d="m3054.41,2303.52c4.15,0,7.53-.89,7.53-1.98s-3.38-1.98-7.53-1.98-7.53.89-7.53,1.98,3.38,1.98,7.53,1.98Z"/><path fill="#4a77dd" fill-rule="evenodd" d="m2969.68,2312.05c2.76,0,5.01-.59,5.01-1.32s-2.25-1.32-5.01-1.32-5.01.59-5.01,1.32c0,.73,2.25,1.32,5.01,1.32Z"/><path fill="#fff" fill-rule="evenodd" d="m3158.93,2184.01c40.88-20.01,35.1-76.14-16.91-80.68-60.5-5.27-92.18,77.61-67.24,144.53,6.51-78.1,35.26-114.15,69.19-113.75,28.78.34,19.32,40.57,14.96,49.9Z" opacity=".68"/><path fill="#fff" fill-rule="evenodd" d="m3057.56,2225.58c-38.39-89.05,61.82-139.57,42.35-197.75-20.79,60.16-124.84,103.13-42.35,197.75Z" opacity=".68"/></g><g><path fill="#bccdf2" d="m2892.68,870.79c0-74.49-95.89-134.88-214.17-134.88-118.28,0-214.17,60.39-214.17,134.88s95.89,134.88,214.17,134.88c25.07,0,49.13-2.72,71.49-7.71l45.26,40.95c5.57,5.04,14.49,1.09,14.49-6.43v-55.11c50.45-24.68,82.93-63.24,82.93-106.59Z"/><circle cx="2582.22" cy="870.53" r="23.32" fill="#fff" transform="rotate(-22.5 2582.224 870.537)"/><circle cx="2678.52" cy="870.53" r="23.32" fill="#fff" transform="rotate(-76.72 2678.426 870.565)"/><circle cx="2774.82" cy="870.53" r="23.32" fill="#fff" transform="rotate(-22.5 2774.811 870.537)"/></g><g><path fill="#c3d2f4" d="m536.07,1148.51l23.94-5.7c7.65,17.37,18.84,32.83,32.95,45.54l-12.9,20.96c-1.62,2.64-.8,6.09,1.84,7.72l32.48,19.99c2.64,1.62,6.09.8,7.72-1.84l12.9-20.96c17.7,6.87,36.54,9.89,55.5,8.9l5.7,23.94c.72,3.01,3.74,4.88,6.76,4.16l37.1-8.83c3.01-.72,4.88-3.74,4.16-6.76l-5.7-23.94c17.37-7.65,32.83-18.84,45.54-32.95l20.96,12.9c2.64,1.62,6.09.8,7.72-1.84l19.99-32.48c1.62-2.64.8-6.09-1.84-7.72l-20.96-12.9c6.87-17.7,9.89-36.54,8.9-55.5l23.94-5.7c3.01-.72,4.88-3.74,4.16-6.76l-8.83-37.1c-.72-3.01-3.74-4.88-6.76-4.16l-23.94,5.7c-7.65-17.37-18.84-32.83-32.95-45.54l12.9-20.96c1.62-2.64.8-6.09-1.84-7.72l-32.48-19.99c-2.64-1.62-6.09-.8-7.72,1.84l-12.9,20.96c-17.7-6.87-36.54-9.89-55.5-8.9l-5.7-23.94c-.72-3.01-3.74-4.88-6.76-4.16l-37.1,8.83c-3.01.72-4.88,3.74-4.16,6.76l5.7,23.94c-17.37,7.65-32.83,18.84-45.54,32.95l-20.96-12.9c-2.64-1.62-6.09-.8-7.72,1.84l-19.99,32.48c-1.62,2.64-.8,6.09,1.84,7.72l20.96,12.9c-6.87,17.7-9.89,36.54-8.9,55.5l-23.94,5.7c-3.01.72-4.88,3.74-4.16,6.76l8.83,37.1c.72,3.01,3.74,4.88,6.76,4.16Zm126.71-148.38c48.46-11.53,97.26,18.51,108.79,66.96,11.53,48.46-18.51,97.26-66.96,108.79-48.46,11.53-97.26-18.51-108.79-66.96-11.53-48.46,18.51-97.26,66.96-108.79Z"/><path fill="#c3d2f4" d="m748.74,1368.85l13.36-6.39c6.71,9.25,15.25,16.93,25.17,22.61l-4.93,13.97c-.62,1.76.3,3.69,2.06,4.31l21.65,7.64c1.76.62,3.69-.3,4.31-2.06l4.93-13.97c11.29,1.8,22.76,1.18,33.79-1.81l6.39,13.36c.8,1.68,2.82,2.39,4.5,1.59l20.71-9.91c1.68-.8,2.39-2.82,1.59-4.5l-6.39-13.36c9.25-6.71,16.93-15.26,22.61-25.17l13.97,4.93c1.76.62,3.69-.3,4.31-2.06l7.64-21.65c.62-1.76-.3-3.69-2.06-4.31l-13.97-4.93c1.8-11.29,1.18-22.76-1.81-33.79l13.36-6.39c1.68-.8,2.39-2.82,1.59-4.5l-9.91-20.71c-.8-1.68-2.82-2.39-4.5-1.59l-13.36,6.39c-6.71-9.25-15.25-16.93-25.17-22.61l4.93-13.97c.62-1.76-.3-3.69-2.06-4.31l-21.65-7.64c-1.76-.62-3.69.3-4.31,2.06l-4.93,13.97c-11.29-1.8-22.76-1.18-33.79,1.81l-6.39-13.36c-.8-1.68-2.82-2.39-4.5-1.59l-20.71,9.91c-1.68.8-2.39,2.82-1.59,4.5l6.39,13.36c-9.25,6.71-16.93,15.26-22.61,25.17l-13.97-4.93c-1.76-.62-3.69.3-4.31,2.06l-7.64,21.65c-.62,1.76.3,3.69,2.06,4.31l13.97,4.93c-1.8,11.29-1.18,22.76,1.81,33.79l-13.36,6.39c-1.68.8-2.39,2.82-1.59,4.5l9.91,20.71c.8,1.68,2.82,2.39,4.5,1.59Zm55.72-103.4c27.05-12.94,59.58-1.46,72.52,25.59,12.94,27.05,1.46,59.58-25.59,72.52-27.05,12.94-59.58,1.46-72.52-25.59-12.94-27.05-1.46-59.58,25.59-72.52Z"/><g><path fill="#84a3e8" d="m548.9,1144.04l23.94-5.7c7.65,17.37,18.84,32.83,32.95,45.54l-12.9,20.96c-1.62,2.64-.8,6.09,1.84,7.72l32.48,19.99c2.64,1.62,6.09.8,7.72-1.84l12.9-20.96c17.7,6.87,36.54,9.89,55.5,8.9l5.7,23.94c.72,3.01,3.74,4.88,6.76,4.16l37.1-8.83c3.01-.72,4.88-3.74,4.16-6.76l-5.7-23.94c17.37-7.65,32.83-18.84,45.54-32.95l20.96,12.9c2.64,1.62,6.09.8,7.72-1.84l19.99-32.48c1.62-2.64.8-6.09-1.84-7.72l-20.96-12.9c6.87-17.7,9.89-36.54,8.9-55.5l23.94-5.7c3.01-.72,4.88-3.74,4.16-6.76l-8.83-37.1c-.72-3.01-3.74-4.88-6.76-4.16l-23.94,5.7c-7.65-17.37-18.84-32.83-32.95-45.54l12.9-20.96c1.62-2.64.8-6.09-1.84-7.72l-32.48-19.99c-2.64-1.62-6.09-.8-7.72,1.84l-12.9,20.96c-17.7-6.87-36.54-9.89-55.5-8.9l-5.7-23.94c-.72-3.01-3.74-4.88-6.76-4.16l-37.1,8.83c-3.01.72-4.88,3.74-4.16,6.76l5.7,23.94c-17.37,7.65-32.83,18.84-45.54,32.95l-20.96-12.9c-2.64-1.62-6.09-.8-7.72,1.84l-19.99,32.48c-1.62,2.64-.8,6.09,1.84,7.72l20.96,12.9c-6.87,17.7-9.89,36.54-8.9,55.5l-23.94,5.7c-3.01.72-4.88,3.74-4.16,6.76l8.83,37.1c.72,3.01,3.74,4.88,6.76,4.16Zm126.71-148.38c48.46-11.53,97.26,18.51,108.79,66.96,11.53,48.46-18.51,97.26-66.96,108.79-48.46,11.53-97.26-18.51-108.79-66.96-11.53-48.46,18.51-97.26,66.96-108.79Z"/><path fill="#94aeeb" d="m761.56,1364.38l13.36-6.39c6.71,9.25,15.25,16.93,25.17,22.61l-4.93,13.97c-.62,1.76.3,3.69,2.06,4.31l21.65,7.64c1.76.62,3.69-.3,4.31-2.06l4.93-13.97c11.29,1.8,22.76,1.18,33.79-1.81l6.39,13.36c.8,1.68,2.82,2.39,4.5,1.59l20.71-9.91c1.68-.8,2.39-2.82,1.59-4.5l-6.39-13.36c9.25-6.71,16.93-15.26,22.61-25.17l13.97,4.93c1.76.62,3.69-.3,4.31-2.06l7.64-21.65c.62-1.76-.3-3.69-2.06-4.31l-13.97-4.93c1.8-11.29,1.18-22.76-1.81-33.79l13.36-6.39c1.68-.8,2.39-2.82,1.59-4.5l-9.91-20.71c-.8-1.68-2.82-2.39-4.5-1.59l-13.36,6.39c-6.71-9.25-15.25-16.93-25.17-22.61l4.93-13.97c.62-1.76-.3-3.69-2.06-4.31l-21.65-7.64c-1.76-.62-3.69.3-4.31,2.06l-4.93,13.97c-11.29-1.8-22.76-1.18-33.79,1.81l-6.39-13.36c-.8-1.68-2.82-2.39-4.5-1.59l-20.71,9.91c-1.68.8-2.39,2.82-1.59,4.5l6.39,13.36c-9.25,6.71-16.93,15.26-22.61,25.17l-13.97-4.93c-1.76-.62-3.69.3-4.31,2.06l-7.64,21.65c-.62,1.76.3,3.69,2.06,4.31l13.97,4.93c-1.8,11.29-1.18,22.76,1.81,33.79l-13.36,6.39c-1.68.8-2.39,2.82-1.59,4.5l9.91,20.71c.8,1.68,2.82,2.39,4.5,1.59Zm55.72-103.4c27.05-12.94,59.58-1.46,72.52,25.59,12.94,27.05,1.46,59.58-25.59,72.52-27.05,12.94-59.58,1.46-72.52-25.59-12.94-27.05-1.46-59.58,25.59-72.52Z"/></g></g></svg>