<svg xmlns="http://www.w3.org/2000/svg" data-name="Layer 1" viewBox="0 0 531.39 334.4"><defs><clipPath id="a"><path fill="none" d="M75.48,116.55c0-20.69-1.81-78.35,37.46-78.06,39.73.3,37.46,57.37,37.46,78.06a37.46,37.46,0,0,1-74.92,0Z"/></clipPath></defs><path fill="#e8edf8" d="M170.62,47.84c14.47,12.57,11.13,42.81,2.55,58.6-16.66,30.63-52.48,62.1-89.27,61.91-18.37-.1-37.55-13.67-34.35-33.81,2-12.53,10.72-22.85,19.74-31.78,16-15.88,34-29.58,52.36-42.68C135.25,50.35,154.15,33.54,170.62,47.84Z"/><path fill="#e8edf8" d="M40.81,209.94C2,237.91-.71,292,22.12,331c24.43.91,474.72,3.45,476.64,0,43.76-78.74,50.17-219-22.39-283.58C452.3,26,422,12.35,390.54,5.28,348-4.31,301.39-1.63,263.41,19.87c-45,25.45-65.16,74.58-95.14,114-14.78,19.42-31.88,36.71-54.56,46.46-23.94,10.3-50.84,14-72.48,29.33Z"/><polygon fill="#aec8e8" points="508.2 135.62 469.96 135.81 471.41 278.53 509.65 278.34 508.2 135.62"/><polygon fill="#aec8e8" points="495.99 135.56 498.13 280.93 509.69 277.56 508.2 135.62 500.97 133.97 495.99 135.56"/><polygon fill="#aec8e8" points="469.96 135.9 471.51 278.87 484.12 280.16 482.12 133.51 474.89 131.86 469.96 135.9"/><path fill="#7fafde" d="M508,135.23l-17.95-35.1c-.61-1.18-3-1.16-3.59,0l-16.41,35.45a.83.83,0,0,0-.09.4c0,1,.4,4.83,5.24,4.8a6.45,6.45,0,0,0,5.15-2.27,2.41,2.41,0,0,1,3.23-.07,6.82,6.82,0,0,0,5,2,8.49,8.49,0,0,0,5.94-2.55,2.39,2.39,0,0,1,3.16.06,5.73,5.73,0,0,0,4.55,2.19c3.57,0,5.25-3,5.76-4.18A.92.92,0,0,0,508,135.23Z"/><path fill="#006cb7" d="M496,111.74l-5.93-11.61c-.61-1.18-3-1.16-3.59,0l-5.6,12.09A58,58,0,0,0,496,111.74Z"/><path fill="#006cb7" d="M510.05,272.57l-39.24.15a2.12,2.12,0,0,0-2,2.21h0a2.15,2.15,0,0,0,2.05,2.2l39.24-.15a2.12,2.12,0,0,0,2-2.21h0A2.15,2.15,0,0,0,510.05,272.57Z"/><path fill="#006cb7" d="M510.32,277l-39.23.14a2.12,2.12,0,0,0-2,2.22h0a2.13,2.13,0,0,0,2.05,2.19l39.23-.14a2.11,2.11,0,0,0,2-2.21h0A2.15,2.15,0,0,0,510.32,277Z"/><path fill="#006cb7" d="M509.89,281.39l-39.23.14a2.12,2.12,0,0,0-2,2.22h0a2.13,2.13,0,0,0,2.05,2.19l39.23-.14a2.12,2.12,0,0,0,2-2.21h0A2.15,2.15,0,0,0,509.89,281.39Z"/><line x1="482.1" x2="483.97" y1="137.75" y2="271.21" fill="none" stroke="#313440" stroke-linecap="round" stroke-linejoin="round" stroke-width=".72"/><line x1="498" x2="496.13" y1="270.43" y2="137.28" fill="none" stroke="#313440" stroke-linecap="round" stroke-linejoin="round" stroke-width=".72"/><line x1="471.5" x2="509.23" y1="272.77" y2="272.77" fill="none" stroke="#313440" stroke-linecap="round" stroke-linejoin="round" stroke-width=".72"/><line x1="471.09" x2="509.85" y1="277.12" y2="277.12" fill="none" stroke="#313440" stroke-linecap="round" stroke-linejoin="round" stroke-width=".72"/><line x1="471.13" x2="510.36" y1="281.53" y2="281.53" fill="none" stroke="#313440" stroke-linecap="round" stroke-linejoin="round" stroke-width=".72"/><path fill="#aec8e8" d="M503.28,327.53c8.74-4.87,21.74-14.93,18.26-21s-8.92-5.39-4.72-12S532,281.9,527.18,274.67s-15.55-9.24-21.42,4.86-1.61,21.15-9.13,19.68-14.08-3.93-19.22,9.77-3.75,17.62-3.75,17.62Z"/><path fill="none" stroke="#5593ce" stroke-linecap="round" stroke-linejoin="round" stroke-width="1.32" d="M490.51,293s15.91-30.22,30.22-42"/><circle cx="499.63" cy="270.97" r="2.07" fill="#5593ce"/><circle cx="503.23" cy="265.14" r="2.07" fill="#5593ce"/><path fill="#5593ce" d="M510,259a2.07,2.07,0,1,0-2.07,2.07A2.07,2.07,0,0,0,510,259Z"/><circle cx="513.2" cy="252.09" r="2.07" fill="#5593ce"/><circle cx="518.4" cy="247.21" r="2.07" fill="#5593ce"/><path fill="#5593ce" d="M526.3,248a2.07,2.07,0,1,0-2.07,2.06A2.07,2.07,0,0,0,526.3,248Z"/><circle cx="522.32" cy="255.06" r="2.07" fill="#5593ce"/><circle cx="517.66" cy="259.73" r="2.07" fill="#5593ce"/><circle cx="513.63" cy="264.07" r="2.07" fill="#5593ce"/><circle cx="510.55" cy="268.85" r="2.07" fill="#5593ce"/><circle cx="506.2" cy="273.94" r="2.07" fill="#5593ce"/><path fill="#7fafde" d="M473.37,326.84s26.39-25.95,24.19-36.07-7.91-8.36-10.11-10.56,11.88-12.5,12.53-17.38c1.1-8.14-3.29-13.85-8.57-14.29s9.23-17.16,3.08-22.44-20.46-7.7-20,9.46-9.72,14.12-12.54,18.69c-7,11.44,6.16,17.6,4,22.88s-10.06-6.09-14.49,4.21,4.37,47.26,4.37,47.26Z"/><path fill="#7fafde" d="M491.41,248.54c-5.28-.44,9.23-17.16,3.08-22.44a16.63,16.63,0,0,0-4.18-2.56c-2.06,3.14-5.32,8.28-7.7,12.9-3.74,7.26-3.3,16.28-.66,21.55s-8.14,19.8-8.58,26,6.6,6.82,5.94,11.22c-.59,3.9-14.34,27.56-17.42,32.82l11.48-1.15s26.39-25.95,24.19-36.07-7.91-8.36-10.11-10.56,11.88-12.5,12.53-17.38C501.08,254.69,496.69,249,491.41,248.54Z"/><path fill="#313440" d="M467.27,329.09s24.68-25,18.94-26.7-27.27,23.25-27.27,23.25,20.67-31.57,13.49-33.29-21.24,35.88-21.24,35.88,4.31-26.89,1.44-27.65-6.32,28.31-6.32,28.31Z"/><path fill="none" stroke="#5593ce" stroke-linecap="round" stroke-linejoin="round" stroke-width="1.07" d="M30.15,292.91s-13.4-25.46-25.46-35.38"/><circle cx="22.47" cy="274.33" r="1.74" fill="#5593ce"/><circle cx="19.43" cy="269.42" r="1.74" fill="#5593ce"/><path fill="#5593ce" d="M13.76,264.23A1.74,1.74,0,1,1,15.5,266,1.74,1.74,0,0,1,13.76,264.23Z"/><path fill="#5593ce" d="M9.29,258.43A1.75,1.75,0,1,1,11,260.17,1.74,1.74,0,0,1,9.29,258.43Z"/><path fill="#5593ce" d="M4.91,254.32a1.75,1.75,0,1,1,1.75,1.74A1.75,1.75,0,0,1,4.91,254.32Z"/><circle cx="1.74" cy="254.94" r="1.74" fill="#5593ce"/><circle cx="3.35" cy="260.93" r="1.74" fill="#5593ce"/><path fill="#5593ce" d="M5.54,264.86a1.74,1.74,0,1,1,1.74,1.74A1.74,1.74,0,0,1,5.54,264.86Z"/><path fill="#5593ce" d="M8.93,268.52a1.75,1.75,0,1,1,1.75,1.74A1.74,1.74,0,0,1,8.93,268.52Z"/><path fill="#5593ce" d="M11.52,272.54a1.75,1.75,0,1,1,1.75,1.74A1.74,1.74,0,0,1,11.52,272.54Z"/><path fill="#5593ce" d="M15.19,276.83a1.74,1.74,0,1,1,1.74,1.74A1.74,1.74,0,0,1,15.19,276.83Z"/><path fill="#aec8e8" d="M24.73,327.16c-7.37-4.1-18.32-12.58-15.39-17.69s7.52-4.55,4-10.09S.57,288.71,4.6,282.62s13.09-7.78,18,4.1S24,304.53,30.33,303.3s11.86-3.31,16.2,8.23,3.15,14.85,3.15,14.85Z"/><path fill="#aec8e8" d="M43.13,325.57S16.37,299.25,18.6,289s8-8.48,10.26-10.71-12-12.67-12.71-17.62c-1.11-8.25,3.35-14,8.7-14.49s-9.37-17.4-3.12-22.75S42.47,215.63,42,233s9.86,14.32,12.71,19c7.14,11.59-6.24,17.84-4,23.19S60.91,269,65.4,279.44,61,327.35,61,327.35Z"/><path fill="#7fafde" d="M24.85,246.18c5.35-.45-9.37-17.4-3.12-22.75A16.85,16.85,0,0,1,26,220.84c2.09,3.18,5.4,8.39,7.81,13.07,3.79,7.36,3.34,16.51.67,21.86s8.25,20.07,8.69,26.31-6.69,6.92-6,11.38c.6,4,14.54,27.94,17.66,33.27l-11.64-1.16S16.37,299.25,18.6,289s8-8.48,10.26-10.71-12-12.67-12.71-17.62C15,252.42,19.5,246.63,24.85,246.18Z"/><path fill="#313440" d="M36.31,328.68s-11.23-13.1-4.63-15.08,14.21,11.12,14.21,11.12-12.55-37.55-4.3-39.53,13.22,42.5,13.22,42.5,2-16.18,5.28-17.06.34,17.83.34,17.83Z"/><rect width="215.76" height="293.97" x="161.63" y="33.35" fill="#7fafde" rx="2.18"/><rect width="203.17" height="278.69" x="167.93" y="40.24" fill="#e8edf8"/><path fill="#006cb7" d="M322.87,26.61H285.14a17.49,17.49,0,0,0,2.05-8.24,17.68,17.68,0,1,0-33.31,8.24H216.16a3.73,3.73,0,0,0-3.73,3.73V41H326.6V30.34A3.73,3.73,0,0,0,322.87,26.61ZM269.51,11.48a6.89,6.89,0,1,1-6.89,6.89A6.91,6.91,0,0,1,269.51,11.48Z"/><polygon fill="#aec8e8" points="360.51 311.39 183.71 311.39 183.71 46.19 355.32 40.99 360.51 311.39"/><rect width="176.81" height="265.21" x="178.51" y="40.99" fill="#fff"/><rect width="33.83" height="33.81" x="196.07" y="175.92" fill="#fcb032"/><path fill="#fff" d="M210.44,203.65a2,2,0,0,1-1.43-.59L201,195a2,2,0,1,1,2.85-2.85l6.52,6.52,13.71-16a2,2,0,0,1,3.06,2.62L212,203a2.06,2.06,0,0,1-1.46.7Z"/><line x1="241.66" x2="342.93" y1="184.37" y2="184.37" fill="none" stroke="#c9d9f0" stroke-linecap="round" stroke-miterlimit="10" stroke-width="7.02"/><line x1="241.66" x2="292.29" y1="201.27" y2="201.27" fill="none" stroke="#c9d9f0" stroke-linecap="round" stroke-miterlimit="10" stroke-width="7.02"/><rect width="33.83" height="33.81" x="197.05" y="236.32" fill="#fcb032"/><path fill="#fff" d="M211.41,264.05a2,2,0,0,1-1.42-.59l-8.07-8.06a2,2,0,0,1,2.85-2.85l6.53,6.52,13.7-16a2,2,0,1,1,3.06,2.62l-15.12,17.62a2,2,0,0,1-1.45.71Z"/><line x1="241.66" x2="342.93" y1="244.77" y2="244.77" fill="none" stroke="#c9d9f0" stroke-linecap="round" stroke-miterlimit="10" stroke-width="7.02"/><line x1="241.66" x2="292.29" y1="261.67" y2="261.67" fill="none" stroke="#c9d9f0" stroke-linecap="round" stroke-miterlimit="10" stroke-width="7.02"/><rect width="33.83" height="33.81" x="196.1" y="119.35" fill="#fcb032"/><path fill="#fff" d="M210.46,147.08a2,2,0,0,1-1.42-.59L201,138.44a2,2,0,1,1,2.85-2.85l6.53,6.52,13.7-16a2,2,0,0,1,3.06,2.62L212,146.38a2,2,0,0,1-1.45.7Z"/><line x1="241.69" x2="342.95" y1="127.81" y2="127.81" fill="none" stroke="#c9d9f0" stroke-linecap="round" stroke-miterlimit="10" stroke-width="7.02"/><line x1="241.69" x2="292.32" y1="144.7" y2="144.7" fill="none" stroke="#c9d9f0" stroke-linecap="round" stroke-miterlimit="10" stroke-width="7.02"/><path fill="#7fafde" d="M209.11,84a10,10,0,0,1-4,.67c-5.41,0-8.19-3.36-8.19-7.81,0-5.34,3.81-8.31,8.54-8.31a9.3,9.3,0,0,1,3.85.7L208.58,72a7.5,7.5,0,0,0-3-.58c-2.81,0-5,1.69-5,5.17,0,3.13,1.86,5.1,5,5.1a8.82,8.82,0,0,0,3-.51Z"/><path fill="#7fafde" d="M225.05,76.44c0,5.13-3.11,8.24-7.68,8.24s-7.35-3.5-7.35-8c0-4.68,3-8.19,7.61-8.19C222.43,68.53,225.05,72.13,225.05,76.44Zm-11.3.21c0,3.06,1.44,5.22,3.81,5.22s3.75-2.27,3.75-5.31c0-2.81-1.34-5.22-3.78-5.22S213.75,73.61,213.75,76.65Z"/><path fill="#7fafde" d="M240.59,78.44c-.07-1.88-.14-4.15-.14-6.43h-.07c-.48,2-1.13,4.23-1.74,6.06l-1.9,6.1H234l-1.67-6.06c-.51-1.83-1-4.06-1.41-6.1h-.05c-.09,2.11-.16,4.53-.28,6.47l-.28,5.94H227l1-15.63h4.71L234.26,74c.49,1.81,1,3.76,1.32,5.59h.07c.44-1.81,1-3.88,1.49-5.62l1.67-5.19h4.61l.86,15.63h-3.46Z"/><path fill="#7fafde" d="M247,69a28.28,28.28,0,0,1,4.77-.33,7.45,7.45,0,0,1,4.78,1.26,4.53,4.53,0,0,1,1.67,3.61,5.06,5.06,0,0,1-1.43,3.72,7.3,7.3,0,0,1-5.08,1.64,8.3,8.3,0,0,1-1.21-.07v5.59H247Zm3.5,7.1a5.37,5.37,0,0,0,1.18.09c1.88,0,3-1,3-2.55,0-1.44-1-2.3-2.76-2.3a5.94,5.94,0,0,0-1.46.14Z"/><path fill="#7fafde" d="M260.48,68.79H264V81.45h6.22v3h-9.76Z"/><path fill="#7fafde" d="M275.88,68.79V84.42h-3.55V68.79Z"/><path fill="#7fafde" d="M282.58,80.41l-1.11,4H277.8l4.78-15.63h4.64l4.85,15.63h-3.8l-1.21-4Zm4-2.64-1-3.32c-.27-.93-.55-2.09-.78-3h-.05c-.23.93-.46,2.11-.72,3l-.93,3.32Z"/><path fill="#7fafde" d="M294.16,84.42V68.79h4.13l3.25,5.73a47,47,0,0,1,2.55,5.36h.07a56.23,56.23,0,0,1-.31-6.52V68.79h3.25V84.42h-3.71l-3.34-6a56.53,56.53,0,0,1-2.71-5.52l-.07,0c.09,2.07.14,4.27.14,6.82v4.71Z"/><path fill="#7fafde" d="M321.65,84a10,10,0,0,1-4,.67c-5.4,0-8.18-3.36-8.18-7.81,0-5.34,3.8-8.31,8.53-8.31a9.26,9.26,0,0,1,3.85.7L321.11,72a7.41,7.41,0,0,0-3-.58c-2.81,0-5,1.69-5,5.17,0,3.13,1.85,5.1,5,5.1a8.76,8.76,0,0,0,2.94-.51Z"/><path fill="#7fafde" d="M333.27,77.81h-5.75v3.71h6.42v2.9H324V68.79h9.65v2.9h-6.1v3.25h5.75Z"/><rect width="4.19" height="101.95" x="126.87" y="196.8" fill="#006cb7"/><rect width="7.14" height="101.95" x="125.39" y="212.15" fill="#7fafde"/><polygon fill="#006cb7" points="132.82 309.67 125.11 309.67 104.75 322.39 104.75 326.5 153.18 326.5 153.18 322.39 132.82 309.67"/><rect width="9.85" height="1.72" x="124.04" y="211.09" fill="#006cb7" rx=".15"/><rect width="5.79" height="28.07" x="126.07" y="171.52" fill="#7fafde"/><path fill="#006cb7" d="M133.46,167a4.5,4.5,0,1,0-4.5,4.49A4.5,4.5,0,0,0,133.46,167Z"/><path fill="#7fafde" d="M66.09,179.24v.16a1.07,1.07,0,1,1-2.14,0v-.16H51.23s-.33,1.15,1.31,1.31,71.25,6.73,71.25,6.73l.66-8Z"/><path fill="#313440" d="M64.9,190.73a.25.25,0,0,1-.25-.25V180.2a.25.25,0,0,1,.49,0v10.28A.25.25,0,0,1,64.9,190.73Z"/><path fill="#313440" d="M66.68,190.58a1.63,1.63,0,1,0-1.63,1.63A1.64,1.64,0,0,0,66.68,190.58Z"/><path fill="#7fafde" d="M191.68,179.24v.16a1.07,1.07,0,1,0,2.13,0v-.16h12.72s.33,1.15-1.31,1.31S134,187.28,134,187.28l-.66-8Z"/><path fill="#313440" d="M162.85,251.59h-.12c-.19,0-.29-.17-.23-.3l29.77-60a.4.4,0,0,1,.34-.16.39.39,0,0,1,.35.16l31.45,59.8c.06.12,0,.26-.23.3a.41.41,0,0,1-.45-.14l-31.1-59.14-29.44,59.29A.38.38,0,0,1,162.85,251.59Z"/><path fill="#313440" d="M192.87,190.73a.25.25,0,0,1-.25-.25V180.2a.25.25,0,0,1,.49,0v10.28A.25.25,0,0,1,192.87,190.73Z"/><path fill="#313440" d="M191.08,190.58a1.63,1.63,0,1,1,1.63,1.63A1.64,1.64,0,0,1,191.08,190.58Z"/><circle cx="128.96" cy="183.09" r="7.45" fill="#006cb7" transform="rotate(-13.24 128.952 183.066)"/><path fill="#fff" d="M129,190.79a7.7,7.7,0,1,1,7.7-7.7A7.71,7.71,0,0,1,129,190.79Zm0-14.9a7.2,7.2,0,1,0,7.21,7.2A7.21,7.21,0,0,0,129,175.89Z"/><path fill="#fff" d="M134.42,183.09a5.46,5.46,0,1,0-5.46,5.46A5.45,5.45,0,0,0,134.42,183.09Z"/><path fill="#006cb7" d="M132,183.09a3.08,3.08,0,1,0-3.08,3.08A3.08,3.08,0,0,0,132,183.09Z"/><rect width="7.14" height="3.65" x="125.39" y="219.58" fill="#006cb7"/><rect width="7.14" height="4.5" x="125.39" y="298.54" fill="#006cb7"/><rect width="7.14" height=".62" x="125.39" y="296.93" fill="#fcb032"/><rect width="7.14" height=".62" x="125.39" y="309.04" fill="#006cb7"/><path fill="#7fafde" d="M154,322.35H104.3a2.1,2.1,0,0,0-2.1,2.1h0a2.1,2.1,0,0,0,2.1,2.09H154a2.09,2.09,0,0,0,2.09-2.09h0A2.09,2.09,0,0,0,154,322.35Z"/><path fill="#006cb7" d="M163.08,247.46h61a3.6,3.6,0,0,1,3.6,3.6v6.64a0,0,0,0,1,0,0H159.48a0,0,0,0,1,0,0v-6.64A3.6,3.6,0,0,1,163.08,247.46Z" transform="rotate(180 193.575 252.585)"/><path fill="#313440" d="M35.19,251.59h-.12c-.19,0-.29-.17-.23-.3l29.77-60a.4.4,0,0,1,.34-.16.41.41,0,0,1,.35.16l31.45,59.8c.06.12,0,.26-.23.3a.41.41,0,0,1-.45-.14L65,192.14,35.53,251.43A.38.38,0,0,1,35.19,251.59Z"/><path fill="#006cb7" d="M35.42,247.46h61a3.6,3.6,0,0,1,3.6,3.6v6.64a0,0,0,0,1,0,0H31.82a0,0,0,0,1,0,0v-6.64A3.6,3.6,0,0,1,35.42,247.46Z" transform="rotate(180 65.915 252.585)"/><rect width="55.31" height="19.99" x="146.17" y="267.15" fill="#006cb7" transform="rotate(-114.32 173.816 277.142)"/><path fill="#7fafde" d="M163.44,278.44l2.65,5.85L79.85,327.11a6.72,6.72,0,0,1-9.11-3.25h0a6.72,6.72,0,0,1,3.58-9Z"/><rect width="35.42" height="24.54" x="155.9" y="264.97" fill="#aec8e8" transform="rotate(-114.32 173.605 277.243)"/><path fill="#7fafde" d="M157.26,265.25l.11,0,18.47-8.34a.28.28,0,0,0,.14-.37.29.29,0,0,0-.37-.14l-18.47,8.35a.27.27,0,0,0-.14.36A.28.28,0,0,0,157.26,265.25Z"/><path fill="#7fafde" d="M172,297.78l.11,0,18.47-8.34a.28.28,0,0,0-.23-.51l-18.47,8.35a.27.27,0,0,0-.14.36A.28.28,0,0,0,172,297.78Z"/><rect width="18.13" height="24.54" x="164.63" y="265.14" fill="#006cb7" transform="rotate(-114.32 173.681 277.406)"/><rect width="5.3" height="27.05" x="160.33" y="239.34" fill="#aec8e8" rx=".69" transform="rotate(-114.32 162.978 252.866)"/><rect width="5.3" height="27.05" x="182.73" y="288.9" fill="#aec8e8" rx=".69" transform="rotate(-114.32 185.367 302.424)"/><rect width="12.41" height="3.35" x="140.93" y="287.74" fill="#006cb7" rx=".43" transform="rotate(-114.32 147.127 289.41)"/><rect width="3.12" height="31.23" x="178.92" y="258.88" fill="#fff" rx=".41" transform="rotate(156.35 180.466 274.499)"/><path fill="#006cb7" d="M163.5,309.69h41.18a0,0,0,0,1,0,0v7.15a2.25,2.25,0,0,1-2.25,2.25H165.75a2.25,2.25,0,0,1-2.25-2.25v-7.15A0,0,0,0,1,163.5,309.69Z" transform="rotate(180 184.09 314.39)"/><path fill="#aec8e8" d="M155.41,317.16h57.35a0,0,0,0,1,0,0v7.33a2.31,2.31,0,0,1-2.31,2.31H157.73a2.31,2.31,0,0,1-2.31-2.31v-7.33A0,0,0,0,1,155.41,317.16Z" transform="rotate(180 184.09 321.98)"/><polygon fill="#f0b48f" points="449.31 264.38 446.28 245.07 431.44 248.58 433.99 263.42 438.3 268.84 445.48 267.41 449.31 264.38"/><path fill="#fcb032" d="M450.27,266.45c-.19-3.13,1.35-4.07.16-4.63s-2,.48-3.35,1.6-4.07,1.67-5.43.64S442,262,441,261.5s-6.14-2.63-7.74-2.39-2.39,3.11-3.59,4.39-7.26,6.22-9,8c0,0-6.3.16-7.5,2s-1.44,7-1.2,7.18,37.1,0,37.1,0A62,62,0,0,0,450.27,266.45Z"/><path fill="#fcb032" d="M420.86,271.48c1.76-1.76,7.82-6.71,9-8s2-4.15,3.59-4.39,6.78,1.92,7.73,2.39c.68.34,0,1,.09,1.66-1.07,1.18-3.2,2.18-4.23,3.45-1.36,1.67-5.91,6.14-7,6.3-.91.13-7.1-1-9.46-1.42Z"/><path fill="#fcb032" d="M446.37,263.88a4.56,4.56,0,0,0,.71-.46c1.35-1.12,2.15-2.16,3.35-1.6s-.35,1.5-.16,4.63a45.38,45.38,0,0,1,0,4.81c-1.9-.07-1.58-4.4-2.23-5.85C447.51,264.25,447.55,264.29,446.37,263.88Z"/><path fill="#fff" d="M412,280.65a13.34,13.34,0,0,1,.23-4.16c1.62.34,4.22.85,6.95,1.24,4.47.63,12.76.1,18.3-.43a51.87,51.87,0,0,1,12.15.26c-.28,1.88-.53,3.09-.53,3.09S412.21,280.81,412,280.65Z"/><path fill="#313440" d="M431.44,273.52a.14.14,0,0,0,.15-.12.15.15,0,0,0-.11-.19c-4.17-1-11.11-1.87-11.18-1.88a.16.16,0,1,0,0,.32,108.57,108.57,0,0,1,11.14,1.87Z"/><path fill="#313440" d="M433.13,270.24a.84.84,0,1,1,.84.84A.84.84,0,0,1,433.13,270.24Z"/><path fill="#313440" d="M431.08,272.34a.84.84,0,1,1,.84.84A.84.84,0,0,1,431.08,272.34Z"/><path fill="#fff" d="M433.78,270.76a.64.64,0,0,0,.27-1.22,32.83,32.83,0,0,0-9.14-2.71.64.64,0,0,0-.7.56.63.63,0,0,0,.56.7,32,32,0,0,1,8.73,2.61A.71.71,0,0,0,433.78,270.76Z"/><path fill="#fff" d="M431.76,273a.64.64,0,0,0,.27-1.21,32.69,32.69,0,0,0-9.14-2.72.64.64,0,0,0-.14,1.27,32.16,32.16,0,0,1,8.73,2.6A.71.71,0,0,0,431.76,273Z"/><path fill="#313440" d="M437.93,265.61a.84.84,0,1,1,.84.84A.84.84,0,0,1,437.93,265.61Z"/><path fill="#313440" d="M435.25,268a.84.84,0,1,1,1.68,0,.84.84,0,0,1-1.68,0Z"/><path fill="#fff" d="M436,268.52a.63.63,0,0,0,.27-1.21,33.06,33.06,0,0,0-9.14-2.72.65.65,0,0,0-.7.57.63.63,0,0,0,.57.7,32.44,32.44,0,0,1,8.73,2.6A.63.63,0,0,0,436,268.52Z"/><path fill="#fff" d="M438.62,266.13a.63.63,0,0,0,.27-1.21,32.69,32.69,0,0,0-9.14-2.72.64.64,0,0,0-.14,1.27,32.16,32.16,0,0,1,8.73,2.6A.71.71,0,0,0,438.62,266.13Z"/><path fill="#fff" d="M431.88,270a2.75,2.75,0,0,1-1.56-2.2,4.72,4.72,0,0,1,.67-2.53c.15-.3.29-.6.4-.89a4.1,4.1,0,0,0,.23-1.05,13.53,13.53,0,0,0-4.08,1.95l-.21.12a4.59,4.59,0,0,1-2.76.91,2.15,2.15,0,0,1-2-2,2.12,2.12,0,0,1,.56-1.29,5,5,0,0,1,3.47-1.83,26.77,26.77,0,0,1,4.31.22,3.71,3.71,0,0,1,3.65,2.42,8.58,8.58,0,0,1,1.07,2.75,3.3,3.3,0,0,1-1.08,3.08,2.65,2.65,0,0,1-1.62.54A2.69,2.69,0,0,1,431.88,270Zm.7-5.18a10.25,10.25,0,0,1-.44,1,3.63,3.63,0,0,0-.55,1.85,1.38,1.38,0,0,0,2.21,1,2,2,0,0,0,.59-1.89,7.34,7.34,0,0,0-.93-2.33,5.06,5.06,0,0,0-.58-.94A4.91,4.91,0,0,1,432.58,264.8Zm-5.88-2.33a3.7,3.7,0,0,0-2.56,1.38,1.05,1.05,0,0,0-.27.49c0,.27.45.64.82.68a3.39,3.39,0,0,0,2-.73l.21-.12a22.41,22.41,0,0,1,2.88-1.59A20.79,20.79,0,0,0,426.7,262.47Z"/><path fill="#010101" d="M446.16,274.47a.72.72,0,1,1,.72.72A.72.72,0,0,1,446.16,274.47Z"/><path fill="#9abce3" d="M445.92,274.47a1,1,0,1,1,1.91,0,1,1,0,0,1-1.91,0Zm.48,0a.48.48,0,1,0,1,0,.48.48,0,1,0-1,0Z"/><circle cx="443.56" cy="274.47" r=".72" fill="#010101"/><path fill="#9abce3" d="M442.61,274.47a1,1,0,1,1,.95.95A1,1,0,0,1,442.61,274.47Zm.48,0a.48.48,0,1,0,.47-.48A.47.47,0,0,0,443.09,274.47Z"/><path fill="#313440" d="M427.88,278A.09.09,0,0,0,428,278c.73-2.58,2.15-2.71,4.61-2.71,2.1,0,4.78-3.42,6.73-5.92.36-.45.69-.87,1-1.23,1.58-2,4-1.88,6.5-1.81l1.41,0a.08.08,0,0,0,.08-.08.07.07,0,0,0-.08-.08l-1.4,0c-2.57-.07-5-.14-6.64,1.87-.3.36-.63.79-1,1.24-1.94,2.47-4.59,5.85-6.61,5.85-2.54,0-4,.13-4.76,2.83a.07.07,0,0,0,.05.09Z"/><path fill="#313440" d="M422.82,276.06a57.94,57.94,0,0,0,6.71-.44.07.07,0,0,0,.07-.08.07.07,0,0,0-.09-.07c-14.75,1.72-16-2.3-16-2.34a.08.08,0,0,0-.16,0C413.37,273.31,414.23,276.06,422.82,276.06Z"/><path fill="#313440" d="M438.14,277.14a.08.08,0,0,0,.08-.07c0-.05,1-5.26,3.32-7.29s7.15-1.11,7.2-1.1a.08.08,0,0,0,.09-.06.07.07,0,0,0-.06-.09s-4.94-.95-7.33,1.13-3.37,7.33-3.38,7.39a.08.08,0,0,0,.07.09Z"/><path fill="#313440" d="M424.93,278.27c1.61,0,4.42-.25,7.38-.52s5.89-.53,7.59-.53c3.54,0,9.75.42,9.81.42a.07.07,0,0,0,.08-.07s0-.08-.07-.09-6.27-.42-9.82-.42c-1.7,0-4.7.27-7.6.53-3.21.29-6.53.59-8,.51-2.67-.16-11.55-1.66-11.64-1.68a.1.1,0,0,0-.09.07.09.09,0,0,0,.07.09c.09,0,9,1.52,11.65,1.68Z"/><polygon fill="#f0b48f" points="409.58 263.26 409.74 251.93 395.06 252.73 394.74 262.14 397.77 268.84 404.95 267.41 409.58 263.26"/><path fill="#f0b48f" d="M395.91,143.41s-5.6,8.62-12.07,8.62S362,129.61,362,129.61l6.76-9.34,14.51,11.06,2.59-5.32,12.65.87,1.29,7.76Z"/><path fill="#fcb032" d="M420.27,101.94s13.44,1.59,17.18,4.11c2.77,1.86-.25,15.87-2.29,23.72-.81,3.11-1.64,7.73-1.33,10.93L435,152.85l-41.53.53s1.65-20,1.51-22.41c0,0-7.19-.43-11.86-5.31a68.42,68.42,0,0,0,5.75-9.27c2.3-4.68,3.66-10.21,10-12.36s13.65-1.23,13.65-1.23Z"/><path fill="#f0b48f" d="M420.48,102s-6.05,4.63-8.89,3.54c-3.64-1.4-3.21-2.94-3.21-2.94l2.29-.33Z"/><path fill="#313440" d="M395,131.05a.08.08,0,0,0,.08-.07,37.14,37.14,0,0,0-.44-8,.07.07,0,0,0-.09-.06.08.08,0,0,0-.06.09,37.88,37.88,0,0,1,.43,8,.07.07,0,0,0,.07.08Z"/><path fill="#313440" d="M395,126.38h0a.07.07,0,0,0,0-.11L393.53,124a.07.07,0,0,0-.11,0,.09.09,0,0,0,0,.11l1.51,2.23A.09.09,0,0,0,395,126.38Z"/><path fill="#313440" d="M411.76,107.87a14.81,14.81,0,0,0,5.89-1.55.07.07,0,0,0,0-.1.08.08,0,0,0-.1,0c-.05,0-4.54,2.34-7.85,1.22,0,0-.08,0-.1,0a.08.08,0,0,0,.05.1A6.33,6.33,0,0,0,411.76,107.87Z"/><path fill="#313440" d="M390.31,136.87h0a.07.07,0,0,0,0-.11c-1.07-1.61-6.82-5.33-7.06-5.48a.08.08,0,0,0-.09.13c.06,0,6,3.85,7,5.44A.08.08,0,0,0,390.31,136.87Z"/><path fill="#313440" d="M383.12,149.35a1.89,1.89,0,0,0,.38,0,2.53,2.53,0,0,0,2-2c0-.06,0-.1-.07-.1a.07.07,0,0,0-.09.06,2.33,2.33,0,0,1-1.88,1.88c-.4.08-.66,0-.8-.14-.33-.42.17-1.46.17-1.47a.08.08,0,1,0-.14-.07s-.55,1.14-.16,1.64A.71.71,0,0,0,383.12,149.35Z"/><path fill="#313440" d="M394.51,112h0a.08.08,0,0,0,.07-.08A10.92,10.92,0,0,0,393.5,109a.08.08,0,0,0-.11,0,.09.09,0,0,0,0,.11,10.85,10.85,0,0,1,1.07,2.88A.08.08,0,0,0,394.51,112Z"/><path fill="#33b6be" d="M394,152.77h0l-.71.16s-.48,5.1-.8,10.77-4,91.79-4,91.79,8.08,6,26.17,1.28l-.75-70.31.53.11s6.81,50,10.64,69.77c0,0,9.36,6,27-4,0,0-13.4-77.22-14.47-82.33s-2.13-18.72-2.13-18.72l-9.78-.21L403,152.19Z"/><path fill="#313440" d="M394,152.85h0c14.17-.82,32.07-1.72,32.25-1.73a.08.08,0,0,0,.08-.08.09.09,0,0,0-.08-.08c-.18,0-18.09.91-32.26,1.73a.09.09,0,0,0-.08.08S394,152.85,394,152.85Z"/><path fill="#313440" d="M393.09,157.13h0c6.78-1,42.13-1.64,42.49-1.65a.08.08,0,1,0,0-.16h0c-.36,0-35.72.65-42.51,1.65a.1.1,0,0,0-.07.09A.08.08,0,0,0,393.09,157.13Z"/><path fill="#313440" d="M414.05,182.6h0a.07.07,0,0,0,0-.11l-4.45-6L408.49,156a.08.08,0,0,0-.08-.07.08.08,0,0,0-.08.08l1.17,20.43,0,0,4.46,6.06A.09.09,0,0,0,414.05,182.6Z"/><path fill="#313440" d="M414.47,186.65h0a.08.08,0,0,0,.07-.09c-.52-9.09-2.16-30.63-2.18-30.85a.07.07,0,0,0-.08-.07.08.08,0,0,0-.08.09c0,.21,1.66,21.75,2.18,30.84C414.4,186.61,414.43,186.65,414.47,186.65Z"/><path fill="#313440" d="M449.47,253h0a.09.09,0,0,0,.07-.1l-17.39-97.32a.08.08,0,0,0-.1-.07.08.08,0,0,0-.06.09l17.39,97.33A.08.08,0,0,0,449.47,253Z"/><path fill="#313440" d="M431.42,254.79a36.74,36.74,0,0,0,13.12-2.31,24.41,24.41,0,0,0,6.79-3.73.08.08,0,1,0-.11-.12,24.22,24.22,0,0,1-6.75,3.71,38.65,38.65,0,0,1-19.56,1.8.07.07,0,0,0-.09.07.08.08,0,0,0,.07.09A45,45,0,0,0,431.42,254.79Z"/><path fill="#313440" d="M410.64,256.64a.08.08,0,0,0,.08-.08l3.3-70.1a.08.08,0,0,0-.07-.08.08.08,0,0,0-.09.08l-3.3,70.09a.09.09,0,0,0,.08.09Z"/><path fill="#313440" d="M401,255.48a46.65,46.65,0,0,0,13-1.82.09.09,0,0,0,0-.11.09.09,0,0,0-.1-.05c-.13,0-12.35,4-24.53.11a.09.09,0,0,0-.1,0,.08.08,0,0,0,.06.1A38.47,38.47,0,0,0,401,255.48Z"/><path fill="#313440" d="M392.35,170.88l0,0c4.21-3.89,4.81-14.08,4.81-14.18a.07.07,0,0,0-.07-.08h0a.07.07,0,0,0-.07.07c0,.1-.61,10.23-4.77,14.07a.08.08,0,0,0,0,.11A.09.09,0,0,0,392.35,170.88Z"/><path fill="#fcb032" d="M409.74,266.45c-.19-3.13,1.36-4.07.16-4.63s-2,.48-3.35,1.6-4.07,1.67-5.43.64.32-2.08-.63-2.56-6.15-2.63-7.74-2.39-2.4,3.11-3.59,4.39-7.26,6.22-9,8c0,0-6.3.16-7.5,2s-1.43,7-1.19,7.18,37.09,0,37.09,0A62,62,0,0,0,409.74,266.45Z"/><path fill="#fcb032" d="M380.13,271.48c1.75-1.76,7.82-6.71,9-8s2-4.15,3.59-4.39,6.78,1.92,7.74,2.39c.68.34,0,1,.09,1.66-1.07,1.18-3.21,2.18-4.24,3.45-1.35,1.67-5.9,6.14-7,6.3-.9.13-7.09-1-9.45-1.42Z"/><path fill="#fcb032" d="M405.84,263.88a4.56,4.56,0,0,0,.71-.46c1.35-1.12,2.15-2.16,3.35-1.6s-.35,1.5-.16,4.63a42.86,42.86,0,0,1,0,4.81c-1.9-.07-1.57-4.4-2.22-5.85A2.83,2.83,0,0,0,405.84,263.88Z"/><path fill="#fff" d="M371.44,280.65a13.16,13.16,0,0,1,.24-4.16c1.61.34,4.22.85,6.94,1.24,4.47.63,12.77.1,18.3-.43a52,52,0,0,1,12.16.26c-.28,1.88-.54,3.09-.54,3.09S371.68,280.81,371.44,280.65Z"/><path fill="#313440" d="M390.91,273.52a.16.16,0,0,0,0-.31c-4.16-1-11.11-1.87-11.18-1.88a.16.16,0,0,0-.18.14.17.17,0,0,0,.14.18,108.57,108.57,0,0,1,11.14,1.87Z"/><path fill="#313440" d="M392.6,270.24a.84.84,0,1,1,.84.84A.85.85,0,0,1,392.6,270.24Z"/><path fill="#313440" d="M390.55,272.34a.84.84,0,1,1,.84.84A.85.85,0,0,1,390.55,272.34Z"/><path fill="#fff" d="M393.25,270.76a.64.64,0,0,0,.28-1.22,33,33,0,0,0-9.14-2.71.64.64,0,0,0-.71.56.63.63,0,0,0,.57.7A32.14,32.14,0,0,1,393,270.7.66.66,0,0,0,393.25,270.76Z"/><path fill="#fff" d="M391.23,273a.64.64,0,0,0,.28-1.21,32.82,32.82,0,0,0-9.14-2.72.64.64,0,0,0-.71.56.65.65,0,0,0,.57.71,32.3,32.3,0,0,1,8.73,2.6A.66.66,0,0,0,391.23,273Z"/><path fill="#313440" d="M397.4,265.61a.84.84,0,1,1,.84.84A.85.85,0,0,1,397.4,265.61Z"/><path fill="#313440" d="M394.73,268a.84.84,0,1,1,.84.83A.83.83,0,0,1,394.73,268Z"/><path fill="#fff" d="M395.43,268.52a.64.64,0,0,0,.28-1.21,33.06,33.06,0,0,0-9.14-2.72.66.66,0,0,0-.71.57.65.65,0,0,0,.57.7,32.3,32.3,0,0,1,8.73,2.6A.66.66,0,0,0,395.43,268.52Z"/><path fill="#fff" d="M398.09,266.13a.64.64,0,0,0,.28-1.21,32.82,32.82,0,0,0-9.14-2.72.64.64,0,0,0-.71.56.65.65,0,0,0,.57.71,32.3,32.3,0,0,1,8.73,2.6A.66.66,0,0,0,398.09,266.13Z"/><path fill="#fff" d="M391.36,270a2.74,2.74,0,0,1-1.57-2.2,4.81,4.81,0,0,1,.67-2.53c.15-.3.29-.6.4-.89a4.1,4.1,0,0,0,.23-1.05,13.64,13.64,0,0,0-4.08,1.95l-.2.12a4.59,4.59,0,0,1-2.76.91,2.16,2.16,0,0,1-2-2,2.07,2.07,0,0,1,.57-1.29,5,5,0,0,1,3.46-1.83,27,27,0,0,1,4.32.22,3.71,3.71,0,0,1,3.64,2.42,8.35,8.35,0,0,1,1.07,2.75,3.28,3.28,0,0,1-1.08,3.08,2.66,2.66,0,0,1-2.69.31Zm.7-5.18a10.29,10.29,0,0,1-.45,1,3.73,3.73,0,0,0-.55,1.85,1.38,1.38,0,0,0,2.21,1,2.05,2.05,0,0,0,.6-1.89,7.58,7.58,0,0,0-.93-2.33,6.41,6.41,0,0,0-.58-.94A5.84,5.84,0,0,1,392.06,264.8Zm-5.89-2.33a3.72,3.72,0,0,0-2.56,1.38.93.93,0,0,0-.26.49c0,.27.44.64.81.68a3.44,3.44,0,0,0,2-.73l.2-.12a23.1,23.1,0,0,1,2.88-1.59A20.79,20.79,0,0,0,386.17,262.47Z"/><path fill="#010101" d="M405.63,274.47a.72.72,0,1,1,.72.72A.72.72,0,0,1,405.63,274.47Z"/><path fill="#9abce3" d="M405.39,274.47a1,1,0,1,1,1,.95A1,1,0,0,1,405.39,274.47Zm.48,0a.48.48,0,1,0,1,0,.48.48,0,1,0-1,0Z"/><circle cx="403.04" cy="274.47" r=".72" fill="#010101"/><path fill="#9abce3" d="M402.08,274.47a1,1,0,1,1,1,.95A1,1,0,0,1,402.08,274.47Zm.48,0a.48.48,0,0,0,.48.48.49.49,0,0,0,.48-.48A.48.48,0,0,0,403,274,.47.47,0,0,0,402.56,274.47Z"/><path fill="#313440" d="M387.35,278a.1.1,0,0,0,.08-.06c.72-2.58,2.14-2.71,4.6-2.71,2.1,0,4.78-3.42,6.74-5.92.35-.45.68-.87,1-1.23,1.59-2,4-1.88,6.51-1.81l1.41,0a.09.09,0,0,0,.08-.08.08.08,0,0,0-.08-.08l-1.41,0c-2.57-.07-5-.14-6.63,1.87-.3.36-.64.79-1,1.24-1.93,2.47-4.58,5.85-6.61,5.85-2.53,0-4,.13-4.76,2.83a.08.08,0,0,0,.06.09Z"/><path fill="#313440" d="M382.3,276.06a58.21,58.21,0,0,0,6.71-.44.08.08,0,1,0,0-.15c-14.76,1.72-16-2.3-16-2.34a.08.08,0,0,0-.1-.06s-.07.06-.05.1S373.7,276.06,382.3,276.06Z"/><path fill="#313440" d="M397.61,277.14a.08.08,0,0,0,.08-.07c0-.05,1-5.26,3.33-7.29s7.14-1.11,7.19-1.1a.08.08,0,0,0,.09-.06.07.07,0,0,0-.06-.09c-.05,0-4.93-.95-7.33,1.13s-3.37,7.33-3.37,7.39a.08.08,0,0,0,.06.09Z"/><path fill="#313440" d="M384.4,278.27c1.62,0,4.43-.25,7.38-.52s5.9-.53,7.59-.53c3.54,0,9.75.42,9.81.42s.08,0,.09-.07a.09.09,0,0,0-.08-.09c-.06,0-6.27-.42-9.82-.42-1.7,0-4.7.27-7.6.53-3.21.29-6.53.59-7.95.51-2.68-.16-11.55-1.66-11.64-1.68a.08.08,0,0,0-.09.07.08.08,0,0,0,.06.09c.09,0,9,1.52,11.66,1.68Z"/><path fill="#f0b48f" d="M448.94,113.39c9.57,6.38,16.8,19.78,16.38,24.46s-4.58,11.91-25.21,21.49l-8-6.49L448,136.57l-9.47-10.63Z"/><path fill="#fcb032" d="M435.85,105.19c10.11,3.09,12.34,7.34,18.94,11.28,0,0-9,13.4-13,15.21,0,0-4.15-3.72-4.79-3.83s-3.29,8.72-3.29,8.72-3.2-7.55-3.09-8,1.7-14.26,1.7-14.26Z"/><path fill="#f0b48f" d="M433.21,151.58s-5.25,2.13-6.4,3.49-1.11,6.42-1.11,6.42,5.93,7.14,8.06,6,7.8-9.33,7.8-9.33Z"/><path fill="#f0b48f" d="M431.33,153.57a1.66,1.66,0,0,0-1.76-.36c-3.78,1.47-8.49,3-9.52,3a1.64,1.64,0,1,0-.06,3.28c2.14,0,6.67-1.35,8.66-2.12.84-.33,3.38-2.41,3.05-3.26A1.56,1.56,0,0,0,431.33,153.57Z"/><path fill="#f0b48f" d="M433.6,168.89c-6.89-1.8-9-5.74-9.56-8,.86-1.52,1.5-2.68,1.51-2.71a1.65,1.65,0,0,1,2.24-.65,2,2,0,0,1,.36.27,1.65,1.65,0,0,1,.29,2l-.11.2a1.65,1.65,0,0,1,1.17.08,1.6,1.6,0,0,1,.45.32,1.64,1.64,0,0,1,.38,1.74,1.57,1.57,0,0,1,.91.05,1.66,1.66,0,0,1,.61.38l.11.12a1.65,1.65,0,0,1,1.27-.28,1.62,1.62,0,0,1,.85.44,1.68,1.68,0,0,1,.46,1.48C434.51,164.44,434.09,166.62,433.6,168.89Z"/><path fill="#313440" d="M434.47,169a.09.09,0,0,0,.08-.06.08.08,0,0,0-.07-.1c-.1,0-10.13-1.7-10.94-9.87a.07.07,0,0,0-.09-.07.08.08,0,0,0-.07.09c.82,8.28,11,10,11.08,10Z"/><path fill="#313440" d="M426.47,161.57a.08.08,0,0,0,.08-.07l.1-1.55a.07.07,0,0,0-.07-.08.08.08,0,0,0-.09.07l-.1,1.54a.07.07,0,0,0,.07.09Z"/><path fill="#313440" d="M425.75,161h0l1.65-.34a.09.09,0,0,0,.07-.1.08.08,0,0,0-.1-.06l-1.65.35a.08.08,0,0,0-.06.09A.08.08,0,0,0,425.75,161Z"/><path fill="#313440" d="M428.89,163.64a.08.08,0,0,0,.08-.07l.1-1.54a.08.08,0,1,0-.16,0l-.1,1.54a.07.07,0,0,0,.07.08Z"/><path fill="#313440" d="M428.17,163.06h0l1.65-.35a.09.09,0,0,0,.07-.09.08.08,0,0,0-.1-.06l-1.65.34a.08.08,0,0,0-.06.1A.09.09,0,0,0,428.17,163.06Z"/><path fill="#313440" d="M432.16,166.12s.07,0,.08-.08l.1-1.54a.07.07,0,0,0-.07-.08.08.08,0,0,0-.09.07l-.1,1.54a.08.08,0,0,0,.07.09Z"/><path fill="#313440" d="M431.44,165.53h0l1.64-.34a.09.09,0,0,0,.07-.1.08.08,0,0,0-.1-.06l-1.65.34a.09.09,0,0,0-.06.1A.08.08,0,0,0,431.44,165.53Z"/><path fill="#313440" d="M420.46,157.64a1.28,1.28,0,0,0,.57-.13.77.77,0,0,0,.42-.53,1.08,1.08,0,0,0-.28-.79.08.08,0,0,0-.12,0,.08.08,0,0,0,0,.11,1,1,0,0,1,.24.67.61.61,0,0,1-.34.41c-.74.41-1.86-.39-1.87-.4a.08.08,0,0,0-.11,0,.07.07,0,0,0,0,.11A2.94,2.94,0,0,0,420.46,157.64Z"/><path fill="#313440" d="M437,128l-.06,0a23.47,23.47,0,0,0-4-2.27.11.11,0,0,1-.08-.14.13.13,0,0,1,.15-.08,22.89,22.89,0,0,1,4,2.3.12.12,0,0,1,0,.16A.14.14,0,0,1,437,128Z"/><path fill="#313440" d="M428.68,115a.13.13,0,0,1-.12-.11c-.76-7.13,4-10.4,4-10.43a.1.1,0,0,1,.15,0,.11.11,0,0,1,0,.16s-4.65,3.23-3.9,10.22a.11.11,0,0,1-.1.12Z"/><path fill="#f0b48f" d="M369.48,123.63s.81-4.73-2.47-7.8c-1.92-1.79-6.17-3-6.17-3s-7.28,7.13-6.34,9.26,8.25,8.24,8.25,8.24Z"/><path fill="#f0b48f" d="M368,121a1.58,1.58,0,0,0,.5-1.64c-1.09-3.74-2.19-8.38-2.09-9.36a1.57,1.57,0,1,0-3.13-.34c-.22,2,1.62,8.61,2.19,10.58a1.59,1.59,0,0,0,2,1.07A1.44,1.44,0,0,0,368,121Z"/><path fill="#f0b48f" d="M363.85,120.3a1.86,1.86,0,0,0,.39-.21,1.57,1.57,0,0,0,.34-2.2s-3.75-5.17-5.31-7.77l-1.61-2.7A1.57,1.57,0,1,0,355,109l1.61,2.69c1.63,2.73,5.31,7.8,5.46,8A1.58,1.58,0,0,0,363.85,120.3Z"/><path fill="#f0b48f" d="M360.89,120.82a1.58,1.58,0,0,0,.68-2.49c-2.46-3-6.61-8.23-7.29-9.71a1.58,1.58,0,0,0-2.87,1.31c1.08,2.34,7,9.59,7.73,10.41A1.57,1.57,0,0,0,360.89,120.82Z"/><path fill="#f0b48f" d="M358.23,121.57a1.51,1.51,0,0,0,.58-.37,1.58,1.58,0,0,0,0-2.23,88.59,88.59,0,0,1-6.69-7.33,1.57,1.57,0,0,0-2.59,1.79,88.09,88.09,0,0,0,7.06,7.78A1.55,1.55,0,0,0,358.23,121.57Z"/><path fill="#f0b48f" d="M357.08,123.39a1.58,1.58,0,0,0,.39-2.75c-.05,0-5-3.66-6.69-5.18a1.58,1.58,0,1,0-2.11,2.34c1.81,1.63,6.73,5.23,6.94,5.38A1.54,1.54,0,0,0,357.08,123.39Z"/><path fill="#313440" d="M364.6,125h0a.14.14,0,0,0,0-.19,5.41,5.41,0,0,1-1.07-7.42.13.13,0,0,0,0-.18.13.13,0,0,0-.18,0,5.76,5.76,0,0,0,1.1,7.77A.14.14,0,0,0,364.6,125Z"/><path fill="#313440" d="M355.05,121.06l0,0c0-.05,4.19-4.66,5.85-6.18a.14.14,0,0,0,0-.19.15.15,0,0,0-.19,0c-1.66,1.53-5.83,6.16-5.87,6.2a.14.14,0,0,0,0,.19A.13.13,0,0,0,355.05,121.06Z"/><path fill="#313440" d="M356.13,119.85a.12.12,0,0,0,.1,0,.13.13,0,0,0,0-.19l-3.79-2.9a.13.13,0,0,0-.18,0,.12.12,0,0,0,0,.18l3.79,2.9A.11.11,0,0,0,356.13,119.85Z"/><path fill="#313440" d="M357.9,117.67a.13.13,0,0,0,.1,0,.13.13,0,0,0,0-.19l-3.34-3.1a.14.14,0,0,0-.19,0,.13.13,0,0,0,0,.18l3.34,3.11A.16.16,0,0,0,357.9,117.67Z"/><path fill="#313440" d="M359.8,115.78a.12.12,0,0,0,.09,0,.14.14,0,0,0,0-.19l-2.14-2.17a.13.13,0,1,0-.18.18l2.13,2.18A.18.18,0,0,0,359.8,115.78Z"/><path fill="#dea583" d="M409.26,92.86s-1.71-1.76-3.15-1.25-1.64,3.61-.1,4.22,3.4-.59,3.4-.59Z"/><path fill="#313440" d="M406.46,95.15a.1.1,0,0,0,.05,0,.07.07,0,0,0,0-.09,1.19,1.19,0,0,1-.64-1.45,1.25,1.25,0,0,1,.53-.84c.31-.17.77-.13,1.53.12a.07.07,0,0,0,.08,0,.06.06,0,0,0,0-.08c-.81-.27-1.28-.3-1.63-.11a1.31,1.31,0,0,0-.59.91,1.35,1.35,0,0,0,.71,1.61Z"/><path fill="#313440" d="M407,84.35c-.74,1.16-.44,3.62.16,5.79s.52-4.24.52-4.24L409.09,84Z"/><path fill="#f0b48f" d="M410.33,98.86l-.11,4s3.41,1.53,9.33-.68l-.13-7.8-4.9,3.8Z"/><path fill="#313440" d="M410.29,100.28l0-1.42,4.19-.69,1.64-1.27,1.06-.07C415.35,100,411.31,100.27,410.29,100.28Z"/><path fill="#f0b48f" d="M407,85.45c-.37,1.19.2,2.94,0,5.39s-1,7.64,3.73,8.45S419.35,96,419.35,96l1.6-7.79c.75-3.61-1.66-6.38-5.3-7l-.25,0C408.27,80.18,407,85.45,407,85.45Z"/><path fill="#313440" d="M421.26,91.39l1-5.86-4-1s.25,2,.35,4.51a9.94,9.94,0,0,1-.27,3.49Z"/><path fill="#f0b48f" d="M419,92.45s1.56-1.89,3-1.5,1.95,3.46.46,4.19-3.44-.3-3.44-.3Z"/><path fill="#313440" d="M411.15,93.58a.1.1,0,0,0,.07,0,.1.1,0,0,0,0-.12,1.76,1.76,0,0,1-.73-1.37,1.33,1.33,0,0,1,.38-.9,5.82,5.82,0,0,0,.58-.91.09.09,0,1,0-.15-.08,6.42,6.42,0,0,1-.56.89,1.47,1.47,0,0,0-.42,1,1.94,1.94,0,0,0,.81,1.51Z"/><path fill="#313440" d="M414.19,91c0-.4.1-.73.26-.74s.31.31.32.71-.1.73-.26.74S414.2,91.42,414.19,91Z"/><path fill="#313440" d="M408.64,91c0-.4.1-.73.27-.74s.3.31.32.71-.1.74-.26.74S408.66,91.44,408.64,91Z"/><path fill="#313440" d="M422,94.5h0a1.35,1.35,0,0,0,.58-1.66,1.37,1.37,0,0,0-.67-.86c-.36-.16-.83-.09-1.61.24a.06.06,0,0,0,0,.08.07.07,0,0,0,.09,0,2,2,0,0,1,1.51-.25,1.25,1.25,0,0,1,.6.79,1.2,1.2,0,0,1-.52,1.51.05.05,0,0,0,0,.08A.05.05,0,0,0,422,94.5Z"/><path fill="#313440" d="M413.29,89c0,.14.17.22.3.27a5.61,5.61,0,0,0,2.14.4,1,1,0,0,0,.38-.06.51.51,0,0,0,.26-.56.69.69,0,0,0-.35-.4,1.88,1.88,0,0,0-.53-.14,2.77,2.77,0,0,0-2,.15C413.39,88.7,413.27,88.82,413.29,89Z"/><path fill="#313440" d="M407.92,89.38c.42,0,1-.16,1.28-.15s.82.15.87-.25a.72.72,0,0,0-.49-.56,2,2,0,0,0-.6-.09c-.46,0-1.19-.09-1.51.33a.38.38,0,0,0-.08.35A.55.55,0,0,0,407.92,89.38Z"/><path fill="#313440" d="M414.83,92.25H415a.06.06,0,0,0,.05-.07.07.07,0,0,0-.07-.06,1.12,1.12,0,0,1-.86-.19.06.06,0,0,0-.09,0,.07.07,0,0,0,0,.09A1.24,1.24,0,0,0,414.83,92.25Z"/><path fill="#313440" d="M408.71,92.06a1.2,1.2,0,0,0,.76-.24.06.06,0,1,0-.08-.09,1.22,1.22,0,0,1-.69.2.07.07,0,0,0,0,.13Z"/><path fill="#313440" d="M416.79,98h0a11.79,11.79,0,0,0,2-1.65s0-.06,0-.09a.07.07,0,0,0-.09,0,12.21,12.21,0,0,1-2,1.62.07.07,0,0,0,0,.09A.07.07,0,0,0,416.79,98Z"/><path fill="#313440" d="M411.39,98.65l.05,0a.06.06,0,0,0,0-.09s-.68-.62-.29-1.17a.07.07,0,0,0-.11-.07c-.45.65.31,1.33.32,1.33A0,0,0,0,0,411.39,98.65Z"/><path fill="#fff" d="M411.94,94.76c.83-.62,1.28-1.49,2.4-.88s-.6,2.55-2,2.51-2.05-.61-1.95-1.16S411.62,95,411.94,94.76Z"/><path fill="#fcb032" d="M407.19,83.94s.22-6.85,8.22-6.12c7.15.65,7.17,7.87,6.69,8.81,0,0-4.45-.45-5.91-.62S407.19,83.94,407.19,83.94Z"/><path fill="#fcb032" d="M418.77,86.27a24.9,24.9,0,0,1-10.24,1.31c-4.61-.62-6-.89-5.72-1.85S408,83.5,408,83.5,414.64,81.76,418.77,86.27Z"/><path fill="#313440" d="M413.16,87.16a20.53,20.53,0,0,0,4.53-.81.07.07,0,0,0,.05-.09.09.09,0,0,0-.1-.05,20.68,20.68,0,0,1-8,.72l-.62-.07c-3.51-.44-5-.62-4.93-1s2-1.16,3.38-1.67a.07.07,0,0,0,0-.09.07.07,0,0,0-.1,0c-.57.2-3.42,1.26-3.47,1.78s1.13.69,5.05,1.18l.62.08A18.47,18.47,0,0,0,413.16,87.16Z"/><path fill="#313440" d="M418.59,85.71v0a8.51,8.51,0,0,0-2.21-7.76s-.07,0-.1,0a.08.08,0,0,0,0,.11,8.31,8.31,0,0,1,2.18,7.56c-3.23.12-10.53-1.67-10.6-1.69a.08.08,0,0,0-.09.06.07.07,0,0,0,.05.09c.08,0,7.48,1.83,10.7,1.69Z"/><path fill="#34529c" d="M416.06,79.93c0-.14.26-.22.52-.18s.44.2.42.35-.26.22-.52.18S416,80.08,416.06,79.93Z"/><path fill="#fff" d="M413.2,84.26a30,30,0,0,1-3.67-.79l.13-.79,3.7.77Z"/><rect width="21.74" height="90.34" x="399.25" y="246.51" fill="#33b6be" transform="rotate(-90.1 410.153 291.669)"/><path fill="#313440" d="M444.78,285.8a5.81,5.81,0,1,1-5.79,5.82A5.82,5.82,0,0,1,444.78,285.8Z"/><path fill="#aec8e8" d="M444.78,285.05a6.56,6.56,0,1,1-6.54,6.57A6.57,6.57,0,0,1,444.78,285.05Zm0,1.5a5.06,5.06,0,1,0,5.07,5.05A5.08,5.08,0,0,0,444.79,286.55Z"/><rect width="10.87" height="35.42" x="403.84" y="273.96" fill="#fff" transform="rotate(-90.1 409.308 291.673)"/><rect width="10.87" height="8.25" x="417.49" y="287.53" fill="#313440" transform="rotate(-90.11 422.904 291.657)"/><rect width="1.34" height="14.9" x="408.55" y="282.24" fill="#7fafde" rx=".14" transform="rotate(-90.1 409.235 289.69)"/><rect width="1.34" height="10.2" x="410.91" y="288.23" fill="#7fafde" rx=".14" transform="rotate(-90.1 411.595 293.334)"/><rect width="1.34" height="5.44" x="396.4" y="286.99" fill="#7fafde" rx=".14" transform="rotate(-90.1 397.08 289.714)"/><rect width="24.32" height="101.07" x="403.33" y="264.37" fill="#006cb7" transform="rotate(-90.11 415.459 314.907)"/><path fill="#313440" d="M454.27,308.33a6.51,6.51,0,1,1-6.48,6.52A6.51,6.51,0,0,1,454.27,308.33Z"/><path fill="#aec8e8" d="M454.27,307.5a7.34,7.34,0,1,1-7.32,7.35A7.34,7.34,0,0,1,454.27,307.5Zm0,1.67a5.67,5.67,0,1,0,5.67,5.65A5.68,5.68,0,0,0,454.28,309.17Z"/><rect width="12.16" height="39.63" x="408.47" y="295.09" fill="#fff" transform="rotate(-90.11 414.515 314.911)"/><rect width="12.16" height="9.23" x="423.74" y="310.27" fill="#313440" transform="rotate(-90.11 429.79 314.886)"/><path fill="#7fafde" d="M406.15,312.7h0a.76.76,0,0,0,.76.76l15.17,0a.76.76,0,0,0,.75-.76h0a.76.76,0,0,0-.76-.75l-15.17,0A.76.76,0,0,0,406.15,312.7Z"/><path fill="#7fafde" d="M411.43,316.77h0a.76.76,0,0,0,.75.75l9.9,0a.74.74,0,0,0,.75-.75h0a.75.75,0,0,0-.75-.75l-9.9,0A.75.75,0,0,0,411.43,316.77Z"/><path fill="#7fafde" d="M397.85,312.72h0a.76.76,0,0,0,.75.75h4.59a.76.76,0,0,0,.75-.75h0a.75.75,0,0,0-.76-.75H398.6A.75.75,0,0,0,397.85,312.72Z"/><path fill="#313440" d="M512.7,334.4H3.08c-1.7,0-3.08-1.74-3.08-3.87s1.38-3.87,3.08-3.87H512.7c1.7,0,3.07,1.73,3.07,3.87S514.4,334.4,512.7,334.4Z"/><path fill="#fff" stroke="#7fafde" stroke-miterlimit="10" stroke-width="1.27" d="M60.72,150.7l10.33-3.49L60.6,143.86a8.53,8.53,0,0,1-6.28-6.36L50.74,122l-3.26,15.33a8.52,8.52,0,0,1-6.41,6.52l-9.72,3.54,9.5,3.16a8.5,8.5,0,0,1,6.57,6.65l3,15.05L54.13,157A8.5,8.5,0,0,1,60.72,150.7Z"/><path fill="#fff" stroke="#7fafde" stroke-miterlimit="10" stroke-width="1.27" d="M401.76,28.22l8.45-2.85-8.55-2.75a7,7,0,0,1-5.14-5.19L393.59,4.71l-2.66,12.54a7,7,0,0,1-5.24,5.33l-8,2.9,7.78,2.58a7,7,0,0,1,5.37,5.45l2.46,12.3,3-12.42A7,7,0,0,1,401.76,28.22Z"/><path fill="#fff" stroke="#7fafde" stroke-miterlimit="10" stroke-width="1.27" d="M468.57,86.43,477,83.58l-8.55-2.75a7,7,0,0,1-5.13-5.19l-2.93-12.72-2.67,12.54a6.94,6.94,0,0,1-5.24,5.33l-7.95,2.9,7.77,2.58a7,7,0,0,1,5.37,5.44L460.15,104l3-12.42A7,7,0,0,1,468.57,86.43Z"/><circle cx="112.77" cy="116.55" r="37.28" fill="#fff"/><g clip-path="url(#a)"><path fill="#fedcc3" d="M71.27,149.77c1.71,1,3.46,1.82,5.23,2.64L57.85,130.29,51.59,134A80.08,80.08,0,0,0,71.27,149.77Z"/><path fill="#fedcc3" d="M161.52,146a47.49,47.49,0,0,0,9.61-6.64c.64-.76,1.26-1.55,1.86-2.38-.79-.89-1.57-1.71-2.32-2.41l-9.43-.87-7.75,15.5A46.83,46.83,0,0,0,161.52,146Z"/><polygon fill="#313440" points="127.56 85 127.52 84.47 130.35 84.25 130.39 84.78 127.56 85"/><path fill="#dea583" d="M123.9,89.16s3.3-3.91,6.39-3,4,7.3.82,8.8-7.19-.75-7.19-.75Z"/><path fill="#313440" d="M130.08,93.54a.14.14,0,0,1-.12-.07.13.13,0,0,1,0-.18,2.52,2.52,0,0,0,1.13-3.14,2.6,2.6,0,0,0-1.23-1.67c-.67-.31-1.62-.17-3.18.46a.13.13,0,0,1-.17-.07.13.13,0,0,1,.07-.17c1.66-.67,2.64-.8,3.39-.46a3.15,3.15,0,0,1,.11,5.28Z"/><path fill="#313440" d="M127.45,71.06c1.71,2.31,1.43,7.5.5,12.11s-1.71-8.78-1.71-8.78L123,70.66Z"/><path fill="#f0b48f" d="M122.52,101.85l.81,8.33s-6.82,4.18-19.52.41l-.92-16.8L113.67,101Z"/><path fill="#313440" d="M122.81,104.81l-.29-3-8.85-.82-3.6-2.42h-2.23C112.21,105,120.68,104.94,122.81,104.81Z"/><path fill="#f0b48f" d="M127.51,73.36c1,2.44,0,6.17.83,11.27s3.26,15.79-6.56,18.18-18.51-5.67-18.51-5.67l-4.47-16c-2.08-7.44,2.54-13.58,10.06-15.4l.53-.12C124.13,62.54,127.51,73.36,127.51,73.36Z"/><path fill="#313440" d="M98.61,87.82l-3-12.1,8.22-2.66s-.23,4.3-.09,9.47,1.08,7.27,1.08,7.27Z"/><path fill="#313440" d="M119.48,90.94a.17.17,0,0,1-.15-.07.18.18,0,0,1,0-.25,3.71,3.71,0,0,0,1.34-3,2.86,2.86,0,0,0-.94-1.82A13.47,13.47,0,0,1,118.43,84a.18.18,0,0,1,.06-.24.17.17,0,0,1,.24.06A13.33,13.33,0,0,0,120,85.59a3.13,3.13,0,0,1,1,2,4,4,0,0,1-1.49,3.27A.16.16,0,0,1,119.48,90.94Z"/><path fill="#313440" d="M113.34,86c0-.84-.32-1.51-.66-1.5s-.6.69-.58,1.53.32,1.52.66,1.51S113.36,86.87,113.34,86Z"/><path fill="#313440" d="M124.92,85.27c0-.84-.32-1.51-.66-1.5s-.6.7-.57,1.54.31,1.51.65,1.5S124.94,86.11,124.92,85.27Z"/><path fill="#313440" d="M115.17,82.74c0,.3-.32.49-.59.62a12,12,0,0,1-4.41,1.13,2,2,0,0,1-.8-.07,1,1,0,0,1-.62-1.13,1.36,1.36,0,0,1,.67-.88A3.76,3.76,0,0,1,110.5,82a5.81,5.81,0,0,1,4.15,0C114.92,82.2,115.2,82.44,115.17,82.74Z"/><path fill="#313440" d="M126.41,83c-.88.13-2.06-.2-2.7-.14s-1.69.43-1.85-.4a1.5,1.5,0,0,1,1-1.23,4.38,4.38,0,0,1,1.24-.28c1-.12,2.46-.35,3.19.46a.85.85,0,0,1,.22.74A1.13,1.13,0,0,1,126.41,83Z"/><path fill="#313440" d="M112.16,88.7h-.26a.13.13,0,0,1-.13-.13.14.14,0,0,1,.14-.13,2.37,2.37,0,0,0,1.78-.54.14.14,0,0,1,.19,0,.13.13,0,0,1,0,.18A2.49,2.49,0,0,1,112.16,88.7Z"/><path fill="#313440" d="M125.21,88.18a2.65,2.65,0,0,1-1.64-.38.13.13,0,0,1,0-.19.13.13,0,0,1,.18,0,2.61,2.61,0,0,0,1.47.33.12.12,0,0,1,.14.13A.13.13,0,0,1,125.21,88.18Z"/><path fill="#313440" d="M108.9,100.88l-.06,0a24.63,24.63,0,0,1-4.47-3.14.13.13,0,0,1,0-.18.14.14,0,0,1,.19,0,25.25,25.25,0,0,0,4.4,3.09.14.14,0,0,1,.06.18A.15.15,0,0,1,108.9,100.88Z"/><path fill="#313440" d="M120.28,101.57a.13.13,0,0,1-.1,0,.14.14,0,0,1,0-.19s1.33-1.38.45-2.48a.13.13,0,0,1,0-.19.14.14,0,0,1,.18,0c1,1.29-.45,2.82-.46,2.84A.12.12,0,0,1,120.28,101.57Z"/><path fill="#fff" d="M118.56,93.52c-1.81-1.17-2.88-2.93-5.13-1.5s1.63,5.25,4.57,5,4.21-1.57,3.91-2.7S119.28,94,118.56,93.52Z"/><path fill="#313440" d="M108.79,59.78a10,10,0,0,1,2.95-3.05,4.67,4.67,0,0,1,4.51.08c1.46.86,2.4,2.51,4,3.09,2.79,1,5.05-1.57,7.57-2.22a4.17,4.17,0,0,1,5,3c1,3.15.7,8.34-2,10.61a6.71,6.71,0,0,1-4.27,1.38c-2.26,0-4.34-.66-6.62-.55a30.7,30.7,0,0,0-7.25,1.27c-3.19,1-6.3,2.35-9.57,3-2.18.45-5.8.73-7.6-.9-2.65-2.42-1.57-8.23,1.26-10.07,1.73-1.12,3.79-1,5.71-1.39a10.54,10.54,0,0,0,5.54-3.25C108.23,60.5,108.51,60.14,108.79,59.78Z"/><path fill="#313440" d="M112.17,91.33c-2.57,0-4.67-2.66-4.67-5.92s2.1-5.91,4.67-5.91,4.68,2.65,4.68,5.91S114.76,91.33,112.17,91.33Zm0-11.31c-2.29,0-4.15,2.42-4.15,5.39s1.86,5.39,4.15,5.39,4.16-2.42,4.16-5.39S114.46,80,112.17,80Z"/><path fill="#313440" d="M125.84,91c-2.58,0-4.68-2.65-4.68-5.91s2.1-5.92,4.68-5.92,4.68,2.65,4.68,5.92S128.42,91,125.84,91Zm0-11.31c-2.29,0-4.15,2.42-4.15,5.4s1.86,5.39,4.15,5.39S130,88.08,130,85.11,128.13,79.71,125.84,79.71Z"/><path fill="#313440" d="M116.63,86.09l-.28-.44a4.81,4.81,0,0,1,5.08-.35l-.27.44A4.34,4.34,0,0,0,116.63,86.09Z"/><rect width="8.61" height=".53" x="99.16" y="86.63" fill="#313440" transform="rotate(-8.5 103.48 86.914)"/><path fill="#f0b48f" d="M103.54,89.72S100,86,97,87s-3.56,7.51-.35,8.83,7.14-1.13,7.14-1.13Z"/><path fill="#313440" d="M97.61,94.42h-.06a3.16,3.16,0,0,1-.18-5.28c.74-.39,1.73-.31,3.41.27a.14.14,0,0,1,.09.17.13.13,0,0,1-.17.08c-1.59-.54-2.55-.63-3.2-.29a2.58,2.58,0,0,0-1.13,1.74,2.52,2.52,0,0,0,1.29,3.07.13.13,0,0,1,.07.17A.14.14,0,0,1,97.61,94.42Z"/><path fill="#fff" d="M129.07,110.76c-2-.42-3.12-.58-3.12-.58l-19.52.41a63.49,63.49,0,0,0-9.76,1.06c6.24,10.35,14.44,22.58,22.66,30.8A185.49,185.49,0,0,0,129.07,110.76Z"/><polygon fill="#fff" points="103.53 107 116.27 110.41 123.08 107.17 126.66 110.23 123.69 118 116.51 111.67 108.76 118.7 101.43 110.93 103.53 107"/><path fill="#fff" d="M134.66,112.17c-2.23-.65-4.13-1.1-5.59-1.41a185.49,185.49,0,0,1-9.74,31.69c-8.22-8.22-16.42-20.45-22.66-30.8-2.24.41-4.45.94-6.61,1.54,10.45,12.54,20.9,23,29.27,35.55C125.62,137.73,131.91,125.54,134.66,112.17Z"/><path fill="#7fafde" d="M71.27,149.77a85.16,85.16,0,0,0,27.16,9.28c11.11,1.94,22.85,2.68,34,.48h-.55c-4.89,0-4.88-7.56,0-7.59,10.14,0,20.53-1.21,29.67-5.93a45.42,45.42,0,0,0,4.37-2.61l4.78-8.82c-10.86-13.35-26.41-19.64-36-22.42-2.75,13.37-9,25.56-15.33,36.57-8.37-12.55-18.82-23-29.27-35.55-19.08,5.3-34.75,17.1-38.83,20.37A80.35,80.35,0,0,0,71.27,149.77Z"/><path fill="#313440" d="M108.76,118.82a.11.11,0,0,0,.08,0l7.67-7,7.1,6.26a.14.14,0,0,0,.11,0,.16.16,0,0,0,.09-.07l3-7.77a.13.13,0,0,0-.07-.16.12.12,0,0,0-.16.07l-2.91,7.6-7-6.21a.12.12,0,0,0-.16,0l-7.66,7-7.25-7.69a.14.14,0,0,0-.18,0,.15.15,0,0,0,0,.18l7.33,7.77A.14.14,0,0,0,108.76,118.82Z"/><path fill="#313440" d="M119.13,148.63l5.26,6.92.08,5.06.73-.06-.08-5.25-.07-.1-5.27-6.93-2.9-36.63-.73.06,2.91,36.85Z"/><path fill="#f15a2a" d="M114.83,112.82l-8.4-1.43a1.36,1.36,0,0,0-1.58,1.56l1.2,7.45a1.37,1.37,0,0,0,2.09.94l7-4.48,3.67-.1,8,3.42a.78.78,0,0,0,1.07-.82l-1.24-8.42a.77.77,0,0,0-1-.62l-6.89,2.36Z"/><path fill="#313440" d="M115.07,117a.18.18,0,0,0,.19-.15,11,11,0,0,0-.24-4.1.2.2,0,0,0-.24-.13.2.2,0,0,0-.14.23,10.38,10.38,0,0,1,.24,3.93.19.19,0,0,0,.16.22Z"/><path fill="#313440" d="M118.84,117a.18.18,0,0,0,.16-.09c.93-1.54,0-4.14,0-4.25a.19.19,0,0,0-.25-.11.19.19,0,0,0-.11.25s.92,2.53.08,3.91a.19.19,0,0,0,.07.26A.17.17,0,0,0,118.84,117Z"/><path fill="#313440" d="M114.08,113.83a.19.19,0,0,0,.19-.18.2.2,0,0,0-.18-.21c-.12,0-3.07-.25-4.2-.22a.19.19,0,1,0,0,.38h.22c1.23,0,3.92.23,4,.23Z"/><path fill="#313440" d="M111.5,115.79h.06c.5-.15,2.76-.63,2.78-.64a.18.18,0,0,0,.15-.22.2.2,0,0,0-.23-.15c-.09,0-2.3.48-2.82.65a.19.19,0,0,0-.12.24A.18.18,0,0,0,111.5,115.79Z"/><path fill="#313440" d="M119.84,113.38h0a25.88,25.88,0,0,1,4.56-.76.18.18,0,0,0,.22-.17.19.19,0,0,0-.16-.22,26.06,26.06,0,0,0-4.71.78.19.19,0,0,0-.14.23A.19.19,0,0,0,119.84,113.38Z"/><path fill="#313440" d="M123.08,115.21a.18.18,0,0,0,.19-.14.18.18,0,0,0-.13-.23c-.23-.07-2.43-.24-2.87-.27a.2.2,0,1,0,0,.39c1,.07,2.63.2,2.79.25Z"/><path fill="#313440" d="M114.24,120.59a.74.74,0,0,1,.74-.74.75.75,0,0,1,.75.74.76.76,0,0,1-.75.75A.75.75,0,0,1,114.24,120.59Z"/><circle cx="115.49" cy="127.03" r=".75" fill="#313440"/><circle cx="115.96" cy="133.87" r=".75" fill="#313440"/><circle cx="116.98" cy="140.46" r=".75" fill="#313440"/><polygon fill="#313440" points="124.55 155.73 124.96 155.12 102.18 139.51 101.55 131.56 101.42 131.46 81.1 116.38 80.66 116.98 100.84 131.96 101.47 139.92 101.62 140.02 124.55 155.73"/><polygon fill="#313440" points="122.66 151.44 134.27 134.33 134.22 134.17 132.81 129.51 142.34 114.78 141.73 114.38 132 129.4 132.06 129.56 133.47 134.21 122.05 151.03 122.66 151.44"/></g></svg>