<svg xmlns="http://www.w3.org/2000/svg" data-name="1" viewBox="0 0 715.58 480.97"><path fill="#d3e7fe" d="M397.9,56.22c-21.78-1.1-40.73-3-48.69-3.86C288,46,265.07,38.06,242.62,35.66,170.84,28,79.36,74.61,46.53,149.39c-18,40.93-13.86,80-11.44,95.28C52,350.84,168,441.68,282,455.87c98.73,12.28,172-44.82,318.62-159,43.33-33.76,83-70.78,82-118.28-.7-34-22-63.56-29.23-72.81-4.37-5.59-26.25-32.66-66.76-47.73C533.11,38.08,507.88,61.79,397.9,56.22Z"/><path fill="#fff" d="M139.82,389.13A281,281,0,0,1,46.14,255.44l1.59-.5a279.24,279.24,0,0,0,93.12,132.87Z"/><path fill="#fff" d="M135.64,375a173.1,173.1,0,0,1-14.08-12.85A176,176,0,0,1,94.88,327l1.45-.83a172,172,0,0,0,40.36,47.56Z"/><path fill="#fff" d="M672.21,187.67l-1.68-.08a107.52,107.52,0,0,0-25.78-73l1.27-1.09A109.23,109.23,0,0,1,672.21,187.67Z"/><g data-name="Planshet dlya bumagi"><path fill="#2b54ae" d="M495.48,54.28A9.3,9.3,0,0,0,488.43,51H290a9.24,9.24,0,0,0-9.17,7.86L233,366.71a9.29,9.29,0,0,0,9.17,10.7H440.65a9.23,9.23,0,0,0,9.17-7.85L497.6,61.74A9.27,9.27,0,0,0,495.48,54.28Z"/><path fill="#3772ce" d="M490.77,54.92A8.26,8.26,0,0,0,484.48,52H286a8.25,8.25,0,0,0-8.19,7L230.07,366.87a8.28,8.28,0,0,0,8.19,9.55H436.7a8.24,8.24,0,0,0,8.19-7L492.67,61.58A8.27,8.27,0,0,0,490.77,54.92Z"/><path fill="#3245a9" d="M238.26,375.46A7.33,7.33,0,0,1,231,367l24.08-155.12h-2l-24,154.83a9.25,9.25,0,0,0,9.14,10.67H398v-1.93Z"/><path fill="#3245a9" d="M491.51,54.29a9.25,9.25,0,0,0-7-3.23H286a9.2,9.2,0,0,0-9.14,7.83l-14.13,91h2l14.09-90.74A7.29,7.29,0,0,1,286,53H484.48a7.32,7.32,0,0,1,7.23,8.45L484,111.08h2l7.65-49.35A9.23,9.23,0,0,0,491.51,54.29Z"/><path fill="#fff" d="M440.48,356.19Q463.16,210.09,485.83,64a3.2,3.2,0,0,0-3.16-3.69H288.13A3.21,3.21,0,0,0,285,63q-22.66,146.1-45.35,292.2a3.2,3.2,0,0,0,3.16,3.69H437.32A3.2,3.2,0,0,0,440.48,356.19Z"/><path fill="#6fb6f6" d="M404,42.81a19.35,19.35,0,0,0,.3-3.06,15.55,15.55,0,0,0-14.21-16.19c-11.25-1.16-22.39,7.8-24.26,19v.06a6.81,6.81,0,0,1-6.44,5.53H345.87a1.17,1.17,0,0,0-1.12,1l-1.86,11.13a3.2,3.2,0,0,0,3.23,3.87h70.37A4.76,4.76,0,0,0,421,60.25l1.85-11.13a.79.79,0,0,0-.81-1H408.43A4.4,4.4,0,0,1,404,42.81Zm-19.42-5.49c4.07-.87,6.92,2.55,5.39,6.48a6.7,6.7,0,0,1-4.68,4c-4.07.87-6.92-2.55-5.4-6.48A6.72,6.72,0,0,1,384.54,37.32Z"/><path fill="#bcdafe" d="M450.41,184.78H316.28a3.19,3.19,0,0,1-3.15-3.67l8.16-53.27a3.19,3.19,0,0,1,3.16-2.71H458.57a3.19,3.19,0,0,1,3.16,3.67l-8.16,53.27A3.19,3.19,0,0,1,450.41,184.78Z"/><path fill="#3245a9" d="M401.93,183.9H316.28a2.31,2.31,0,0,1-2.28-2.66L322.16,128a2.31,2.31,0,0,1,2.29-2H450.53v-1.77H324.45a4.05,4.05,0,0,0-4,3.46L312.25,181a4.08,4.08,0,0,0,4,4.7h85.65Z"/><path fill="#a1cef6" d="M372,223.53,375.79,199a3.19,3.19,0,0,0-3.15-3.68H313.7a3.19,3.19,0,0,0-3.16,2.71l-3.76,24.57a3.19,3.19,0,0,0,3.15,3.68h58.94A3.19,3.19,0,0,0,372,223.53Z"/><path fill="#bcdafe" d="M447.22,223.53,451,199a3.19,3.19,0,0,0-3.15-3.68H388.89a3.19,3.19,0,0,0-3.16,2.71L382,222.56a3.19,3.19,0,0,0,3.15,3.68h58.94A3.19,3.19,0,0,0,447.22,223.53Z"/><path fill="#a1cef6" d="M441.45,236.92H307.32a3.19,3.19,0,0,0-3.16,2.71q-7.35,48-14.72,96.09a3.2,3.2,0,0,0,3.16,3.68H426.73a3.19,3.19,0,0,0,3.15-2.71q7.37-48,14.72-96.1A3.19,3.19,0,0,0,441.45,236.92Z"/><path fill="#6fb6f6" d="M297.86,218.12H275l3.5-22.85h22.88Zm-20.63-1.93h19l2.9-19h-19Z"/><path fill="#6fb6f6" d="M308.62,147.94H285.75l3.5-22.85h22.87ZM288,146h19l2.91-19h-19Z"/><path fill="#6fb6f6" d="M291.49,259.72H268.61l3.51-22.85H295Zm-20.62-1.93h19l2.91-19h-19Z"/><path fill="#6fb6f6" d="M285.14,301.26H262.27l3.5-22.85h22.87Zm-20.62-1.93h19l2.91-19h-19Z"/><path fill="#6fb6f6" d="M355.51,130.61l-27-.06a3.18,3.18,0,0,0-3.06,2.66h0a2.24,2.24,0,0,0,2.25,2.67l27,.06a3.2,3.2,0,0,0,3.06-2.66h0A2.24,2.24,0,0,0,355.51,130.61Z"/><path fill="#fff" d="M375.42,133.32h0a2.25,2.25,0,0,0,2.26,2.67l74.79.16a3.18,3.18,0,0,0,3-2.66h0a2.24,2.24,0,0,0-2.25-2.67l-74.79-.16A3.18,3.18,0,0,0,375.42,133.32Z"/><path fill="#fff" d="M399.2,145l-72.83-.16a3.2,3.2,0,0,0-3.06,2.66h0a2.24,2.24,0,0,0,2.25,2.67l72.84.16a3.17,3.17,0,0,0,3.05-2.66h0A2.23,2.23,0,0,0,399.2,145Z"/><path fill="#6fb6f6" d="M419.12,147.71h0a2.25,2.25,0,0,0,2.25,2.68l28.94.06a3.2,3.2,0,0,0,3.06-2.66h0a2.24,2.24,0,0,0-2.25-2.67l-28.95-.07A3.2,3.2,0,0,0,419.12,147.71Z"/><path fill="#fff" d="M345,200.75l-27-.06a3.2,3.2,0,0,0-3.05,2.66h0a2.23,2.23,0,0,0,2.25,2.67l27,.06a3.21,3.21,0,0,0,3.06-2.66h0A2.24,2.24,0,0,0,345,200.75Z"/><path fill="#6fb6f6" d="M442.83,201,392,200.87a3.2,3.2,0,0,0-3,2.65,2.23,2.23,0,0,0,2.15,2.66l50.83.12a3.21,3.21,0,0,0,3-2.66A2.23,2.23,0,0,0,442.83,201Z"/><path fill="#fff" d="M312.77,217.65a2.23,2.23,0,0,0,2.22,2.66l48.45.11a3.19,3.19,0,0,0,3.06-2.66,2.24,2.24,0,0,0-2.23-2.67l-48.45-.1A3.18,3.18,0,0,0,312.77,217.65Z"/><path fill="#fff" d="M386.72,217.78h0a2.24,2.24,0,0,0,2.25,2.67l28.95.07a3.2,3.2,0,0,0,3.05-2.66h0a2.24,2.24,0,0,0-2.25-2.67l-28.94-.07A3.2,3.2,0,0,0,386.72,217.78Z"/><path fill="#fff" d="M358.93,159.21l-34.72-.07a3.18,3.18,0,0,0-3,2.66h0a2.24,2.24,0,0,0,2.25,2.67l34.71.08a3.2,3.2,0,0,0,3.06-2.66h0A2.25,2.25,0,0,0,358.93,159.21Z"/><path fill="#fff" d="M394.77,162h0a2.23,2.23,0,0,0,2.25,2.67l51.14.12a3.2,3.2,0,0,0,3.06-2.66h0a2.25,2.25,0,0,0-2.25-2.68l-51.15-.11A3.2,3.2,0,0,0,394.77,162Z"/><path fill="#fff" d="M369.57,173.46l-47.5-.11A3.2,3.2,0,0,0,319,176h0a2.24,2.24,0,0,0,2.25,2.67l47.5.11a3.2,3.2,0,0,0,3.06-2.66h0A2.24,2.24,0,0,0,369.57,173.46Z"/><path fill="#fff" d="M365,292.44H311.86a3.39,3.39,0,0,1-3.35-3.91l6.21-40a3.4,3.4,0,0,1,3.35-2.87h53.18a3.39,3.39,0,0,1,3.35,3.91l-6.21,40A3.4,3.4,0,0,1,365,292.44Z"/><path fill="#3772ce" d="M367.16,291.55c1.67-1.82,2.2-4.5,2.46-6.88a45.73,45.73,0,0,0,.22-4.82l-16.9-20.59a1.83,1.83,0,0,0-2.72-.12l-15.35,15.51-8-11.07a1.83,1.83,0,0,0-2.71-.29l-13.28,11.84-2.14,13.25a3.44,3.44,0,0,0,3.48,3.91h54.06A5.93,5.93,0,0,0,367.16,291.55Z"/><path fill="#3245a9" d="M365,293.32H311.86a4.27,4.27,0,0,1-4.23-4.93l6.22-40a4.25,4.25,0,0,1,4.22-3.62h53.18a4.29,4.29,0,0,1,4.23,4.93l-6.22,40A4.24,4.24,0,0,1,365,293.32Zm-47-46.82a2.49,2.49,0,0,0-2.47,2.12l-6.22,40a2.54,2.54,0,0,0,.57,2,2.49,2.49,0,0,0,1.91.87H365a2.49,2.49,0,0,0,2.47-2.12l6.22-40a2.51,2.51,0,0,0-2.48-2.89Z"/><path fill="#6fb6f6" d="M366.84,256.47a3.85,3.85,0,0,1-3.66,3.16,2.64,2.64,0,0,1-2.67-3.16,3.84,3.84,0,0,1,3.66-3.16A2.64,2.64,0,0,1,366.84,256.47Z"/><path fill="#fff" d="M426.79,254.24l-36.45-.06a3.81,3.81,0,0,1-3.84-4.53h0a5.41,5.41,0,0,1,5.17-4.51l36.46.07a3.8,3.8,0,0,1,3.83,4.52h0A5.39,5.39,0,0,1,426.79,254.24Z"/><path fill="#6fb6f6" d="M394.73,269.42a3.8,3.8,0,0,0,3.82,4.52l25.33,0a5.39,5.39,0,0,0,5.17-4.51,3.81,3.81,0,0,0-3.82-4.52l-25.34,0A5.38,5.38,0,0,0,394.73,269.42Z"/><path fill="#6fb6f6" d="M421,293.73l-36.45-.07a3.8,3.8,0,0,1-3.84-4.52h0a5.39,5.39,0,0,1,5.17-4.51l36.45.06a3.81,3.81,0,0,1,3.84,4.53h0A5.41,5.41,0,0,1,421,293.73Z"/><path fill="#fff" d="M419.39,304.44l-36.45-.07h-7.07a5.4,5.4,0,0,0-5.17,4.51,3.8,3.8,0,0,0,3.84,4.52l36.45.07h7.07a5.4,5.4,0,0,0,5.17-4.51h0A3.8,3.8,0,0,0,419.39,304.44Z"/><path fill="#fff" d="M301.34,308.74a3.78,3.78,0,0,0,3.3,4.47l45.36.08a5.39,5.39,0,0,0,5.17-4.51,3.79,3.79,0,0,0-3.29-4.47l-45.37-.08A5.41,5.41,0,0,0,301.34,308.74Z"/><path fill="#6fb6f6" d="M470.53,73.26H297.65q-3,19.15-6,38.31H464.48Q467.51,92.42,470.53,73.26Z"/><path fill="#2b54ae" d="M297.14,142.34l-3.44-9.63a1.41,1.41,0,0,1,.86-1.8h0a1.41,1.41,0,0,1,1.8.85l2.33,6.53,9-18a1.42,1.42,0,0,1,1.89-.63h0a1.41,1.41,0,0,1,.63,1.9l-10.49,21A1.41,1.41,0,0,1,297.14,142.34Z"/><rect width="112.32" height="1.77" x="305.22" y="326.87" fill="#3772ce"/></g><path fill="#fff" d="M340.79,101.27l-3.26-6a7.91,7.91,0,0,1-.8,0h-4.66l-.94,6H327.3l3.23-20.63H339a10.42,10.42,0,0,1,4.53.89,5.41,5.41,0,0,1,2.65,2.53,6.45,6.45,0,0,1,.45,3.92,8.09,8.09,0,0,1-1.76,4,8.44,8.44,0,0,1-3.65,2.5l3.68,6.78ZM342,85a5.21,5.21,0,0,0-3.64-1.07h-4.48l-1.29,8.23H337A6.54,6.54,0,0,0,341,91a4.48,4.48,0,0,0,1.78-3A3.2,3.2,0,0,0,342,85Z"/><path fill="#fff" d="M353.29,99.16q-2-2.4-1.3-6.88l1.82-11.64h3.83l-1.8,11.5c-.64,4,.8,6.07,4.29,6.07s5.54-2,6.17-6.07l1.8-11.5h3.78l-1.83,11.64a11,11,0,0,1-3.45,6.88,10.3,10.3,0,0,1-7,2.41C356.73,101.57,354.63,100.76,353.29,99.16Z"/><path fill="#fff" d="M379.16,80.64H383L380.26,98H391l-.5,3.24H375.92Z"/><path fill="#fff" d="M411.46,98.06l-.5,3.21H395.49l3.23-20.63h15.06l-.5,3.21H402.05l-.84,5.37h10l-.5,3.15h-10l-.89,5.69Z"/><path fill="#fff" d="M419,100.89a7.91,7.91,0,0,1-3.24-1.8l1.79-3a8.46,8.46,0,0,0,2.86,1.64,10.48,10.48,0,0,0,3.59.63,7,7,0,0,0,3.55-.73,2.68,2.68,0,0,0,1.44-2,1.63,1.63,0,0,0-.4-1.46,3.68,3.68,0,0,0-1.47-.9c-.61-.21-1.46-.46-2.53-.73a28.12,28.12,0,0,1-3.64-1.12,5,5,0,0,1-2.23-1.76,4.16,4.16,0,0,1-.54-3.22,6.43,6.43,0,0,1,1.41-3.11,7.84,7.84,0,0,1,3.15-2.23,12.28,12.28,0,0,1,4.71-.82,14.14,14.14,0,0,1,3.64.47A8.69,8.69,0,0,1,434,82.17l-1.67,3a10.12,10.12,0,0,0-5.44-1.62,6.62,6.62,0,0,0-3.49.77,2.85,2.85,0,0,0-1.42,2,1.57,1.57,0,0,0,.4,1.44,3.81,3.81,0,0,0,1.47.89c.61.21,1.46.46,2.54.73A25.68,25.68,0,0,1,430,90.5a5.15,5.15,0,0,1,2.25,1.75,4.18,4.18,0,0,1,.55,3.19,6.26,6.26,0,0,1-1.42,3.09,7.83,7.83,0,0,1-3.16,2.21,12.4,12.4,0,0,1-4.72.83A14.73,14.73,0,0,1,419,100.89Z"/><circle cx="191.15" cy="155.79" r="82.07" fill="#fff"/><path fill="#2b54ae" d="M191.15,239.24a83.45,83.45,0,1,1,83.45-83.45A83.54,83.54,0,0,1,191.15,239.24Zm0-164.14a80.7,80.7,0,1,0,80.7,80.69A80.79,80.79,0,0,0,191.15,75.1Z"/><path fill="#3245a9" d="M214,203.5H156.8a9.19,9.19,0,0,1-9.18-9.18V116.81a9.19,9.19,0,0,1,9.18-9.18h61.58a9.19,9.19,0,0,1,9.19,9.18v65.74h-2.12V116.81a7.08,7.08,0,0,0-7.07-7.07H156.8a7.08,7.08,0,0,0-7.06,7.07v77.51a7.07,7.07,0,0,0,7.06,7.06H214Z"/><polygon fill="#3245a9" points="203.98 120.78 171.2 120.78 171.2 108.69 173.32 108.69 173.32 118.66 201.87 118.66 201.87 108.69 203.98 108.69 203.98 120.78"/><path fill="#3245a9" d="M196.8,108.69h-2.11a7.1,7.1,0,1,0-14.2,0h-2.11a9.21,9.21,0,0,1,18.42,0Z"/><path fill="#3245a9" d="M173.41,146.22H158.82V131.63h14.59Zm-12.48-2.11H171.3V133.75H160.93Z"/><path fill="#3245a9" d="M173.41,167.62H158.82V153h14.59Zm-12.48-2.11H171.3V155.15H160.93Z"/><path fill="#3245a9" d="M173.41,189H158.82V174.43h14.59Zm-12.48-2.11H171.3V176.54H160.93Z"/><rect width="28.57" height="2.11" x="182.14" y="137.87" fill="#3245a9"/><rect width="28.57" height="2.12" x="182.14" y="159.27" fill="#3245a9"/><rect width="28.57" height="2.11" x="182.14" y="180.67" fill="#3245a9"/><path fill="#3245a9" d="M224.51,208.87a13.65,13.65,0,1,1,13.64-13.65A13.66,13.66,0,0,1,224.51,208.87Zm0-25.18A11.53,11.53,0,1,0,236,195.22,11.55,11.55,0,0,0,224.51,183.69Z"/><polygon fill="#3245a9" points="224.86 203.85 218.71 195.28 220.43 194.05 224.03 199.06 227.42 187.24 229.46 187.82 224.86 203.85"/><circle cx="575.88" cy="159.3" r="82.07" fill="#fff" transform="rotate(-84.35 575.851 159.322)"/><path fill="#2b54ae" d="M575.88,242.75a83.45,83.45,0,1,1,83.45-83.45A83.54,83.54,0,0,1,575.88,242.75Zm0-164.15a80.7,80.7,0,1,0,80.7,80.7A80.79,80.79,0,0,0,575.88,78.6Z"/><polygon fill="#3245a9" points="595.32 205.41 530.64 205.41 530.64 115.72 551.69 115.72 551.69 117.76 532.68 117.76 532.68 203.37 593.27 203.37 593.27 117.76 574.26 117.76 574.26 115.72 595.32 115.72 595.32 205.41"/><path fill="#3245a9" d="M617.54,205.41h-5.83a5.76,5.76,0,0,1-5.75-5.75V177.11a2.23,2.23,0,0,1,2.22-2.23h12.88a2.23,2.23,0,0,1,2.23,2.23v22.55A5.76,5.76,0,0,1,617.54,205.41Zm-9.36-28.49a.18.18,0,0,0-.18.19v22.55a3.72,3.72,0,0,0,3.71,3.71h5.83a3.72,3.72,0,0,0,3.71-3.71V177.11a.18.18,0,0,0-.19-.19Z"/><rect width="8.51" height="2.04" x="610.37" y="180.39" fill="#3245a9"/><path fill="#3245a9" d="M622,175.9h-2v-45a.6.6,0,0,0-.6-.61h-9.55a.6.6,0,0,0-.6.61v45h-2v-45a2.65,2.65,0,0,1,2.64-2.65h9.55a2.65,2.65,0,0,1,2.64,2.65Z"/><polygon fill="#3245a9" points="609.34 130.52 607.49 129.65 614.64 114.41 621.4 129.34 619.54 130.18 614.61 119.28 609.34 130.52"/><rect width="2.04" height="2.87" x="613.53" y="113.97" fill="#3245a9"/><path fill="#3245a9" d="M622.65,197.66l-.44-2a4.43,4.43,0,0,0,3.45-4.31V169.28h2v22.08A6.47,6.47,0,0,1,622.65,197.66Z"/><path fill="#3245a9" d="M626.68,170a3.59,3.59,0,1,1,3.86-3.58A3.73,3.73,0,0,1,626.68,170Zm0-5.13a1.57,1.57,0,1,0,1.82,1.55A1.69,1.69,0,0,0,626.68,164.83Z"/><path fill="#3245a9" d="M575.51,121.56H550.44v-9.44h25.07Zm-23-2h21v-5.36h-21Z"/><rect width="41.46" height="2.04" x="542.18" y="146.03" fill="#3245a9"/><rect width="24.76" height="2.04" x="542.18" y="133.24" fill="#3245a9"/><rect width="41.46" height="2.04" x="542.18" y="158.67" fill="#3245a9"/><rect width="41.46" height="2.04" x="542.18" y="171.32" fill="#3245a9"/><rect width="41.46" height="2.04" x="542.18" y="183.96" fill="#3245a9"/><circle cx="487.95" cy="292.45" r="63.24" fill="#fff" transform="rotate(-45 487.954 292.443)"/><path fill="#2b54ae" d="M488,357.06a64.62,64.62,0,1,1,64.62-64.61A64.68,64.68,0,0,1,488,357.06Zm0-126.48a61.87,61.87,0,1,0,61.87,61.87A61.93,61.93,0,0,0,488,230.58Z"/><path fill="#3245a9" d="M445.42,339.4l-1.55-22.73a7.68,7.68,0,0,1,4.15-6.88l23.77-12.18,32.67.08,23.42,12.1a7.67,7.67,0,0,1,4.16,6.83l-1.26,22.77-1.51-.09,1.26-22.72a6.15,6.15,0,0,0-3.34-5.45l-23.26-12H472l-23.26,12a6.18,6.18,0,0,0-3.34,5.49l1.56,22.68Z"/><path fill="#3245a9" d="M488,336.16,470,298.67l1.51-1.06h32.8l1.51,1.06-.27.57Zm-16-37,16,33.5,16-33.5-.07-.06Z"/><path fill="#3245a9" d="M488,336.16l-11.36-23.77L488,300.84l11.36,11.55-.23.47Zm-9.54-23.47,9.54,20,9.54-20L488,303Z"/><path fill="#3245a9" d="M507.73,261c-2.12-11.67-10.44-20.14-19.8-20.14-9.06,0-17.11,7.81-19.56,19l-1.47-.32c2.61-11.87,11.26-20.17,21-20.17,10.09,0,19,9,21.28,21.38Z"/><path fill="#3245a9" d="M487.93,294.35c-8.93,0-15.84-7.12-21.1-21.78l1.42-.51c5,14,11.46,20.79,19.68,20.79,8.51,0,15-6.8,19.76-20.79l1.43.49C504.09,287.22,497.16,294.35,487.93,294.35Z"/><path fill="#3245a9" d="M500.18,265.76c-6.52,0-12.58-3.58-16.74-9.86a18.22,18.22,0,0,1-15.8,3.77l-.74-.18.18-.73c2-8.09,6.92-14.69,13.22-17.65h0l.53-.24.66-.27,1.07-.38.53.63.22.72-.49-.64.24.71-.5-.63.24.72-.26.09-.5-.62.26.7-.85.35-.58-.57.31.68-.56-.57.32.68c-5.7,2.68-10.22,8.59-12.21,15.89a17,17,0,0,0,14.4-4.15l.66-.58.47.75c3.88,6.27,9.68,9.87,15.92,9.87a16.45,16.45,0,0,0,7.75-2c-1.47-10.57-7.94-19-16.22-21l-.35-.08-.08-.79-.13.74-.78-.13-1-.13-1,0v0h-.47l-.82,0-.31-.74.05.76-.3-.74.08.75-.73.08-.36-.71.11.74-.33-.71.12.74-.41.07-.32-.7v.76l-.28-.71,0,.77-.84.18v-.76l-.2-.72.87-.21.42.69-.15-.74,2.19-.29.3.74-.06-.75.93,0v0l1.5.07c.4,0,.71.07,1,.12l1.43.27c9.18,2.21,16.18,11.34,17.59,22.77l.06.5-.44.25A18,18,0,0,1,500.18,265.76Z"/><path fill="#3245a9" d="M467.81,274.08h-1.27a2.5,2.5,0,0,1-2.43-2.56v-7.8a2.52,2.52,0,0,1,2.22-2.56c.4-1.38,1.29-4.42,1.42-4.75l1.4.54c-.1.29-1,3.32-1.52,5.17l-.16.54h-.93a1,1,0,0,0-.92,1.06v7.8a1,1,0,0,0,.92,1.05h1.27Z"/><path fill="#3245a9" d="M509.37,274.08h-.63v-1.51h.63a1,1,0,0,0,.92-1.05v-7.8a1,1,0,0,0-.92-1.06h-.88v-1.5h.88a2.49,2.49,0,0,1,2.42,2.56v7.8A2.49,2.49,0,0,1,509.37,274.08Z"/><rect width="16.58" height="1.51" x="502.75" y="323.74" fill="#3245a9"/><rect width="1.51" height="4.7" x="475.33" y="291.72" fill="#3245a9"/><rect width="1.51" height="4.7" x="499.33" y="291.72" fill="#3245a9"/><circle cx="187.59" cy="321.46" r="62.36" fill="#fff"/><path fill="#2b54ae" d="M187.59,385.2a63.74,63.74,0,1,1,63.74-63.74A63.81,63.81,0,0,1,187.59,385.2Zm0-124.73a61,61,0,1,0,61,61A61.06,61.06,0,0,0,187.59,260.47Z"/><polygon fill="#3245a9" points="221.18 344.88 154.01 344.88 154.01 284.61 155.54 284.61 155.54 343.34 219.64 343.34 219.64 285.5 221.18 285.5 221.18 344.88"/><rect width="75.74" height="1.53" x="149.72" y="283.84" fill="#3245a9"/><rect width="39.74" height="1.53" x="167.72" y="330.32" fill="#3245a9"/><rect width="28.41" height="1.53" x="167.72" y="335.52" fill="#3245a9"/><path fill="#3245a9" d="M189.53,321.43h-.75V307.2H174.55v-.75a15,15,0,1,1,15,15ZM176.06,305.7h14.22v14.21a13.48,13.48,0,1,0-14.22-14.21Z"/><path fill="#3245a9" d="M185.64,325.26a15,15,0,0,1-15-15h1.5a13.51,13.51,0,0,0,13.48,13.49Z"/><polygon fill="#3245a9" points="185.77 325.09 184.27 325.09 184.27 311.6 170.78 311.6 170.78 310.11 185.77 310.11 185.77 325.09"/><rect width="1.53" height="5.61" x="187.6" y="279" fill="#3245a9"/><polygon fill="#3245a9" points="168.28 368.35 166.98 367.76 177.86 343.81 179.16 344.41 168.28 368.35"/><polygon fill="#3245a9" points="206.91 368.35 196.03 344.41 197.32 343.81 208.2 367.76 206.91 368.35"/><rect width="1.42" height="17.4" x="186.92" y="344.11" fill="#3245a9"/></svg>