<svg xmlns="http://www.w3.org/2000/svg" viewBox="0 0 2000 2000"><circle cx="1000" cy="906.574" r="800" fill="#6556ff" opacity=".2" transform="rotate(-45 1000 906.575)"/><circle cx="1381.467" cy="992.135" r="104.854" fill="#080717"/><rect width="136.532" height="328.523" x="1205.113" y="863.812" fill="#fff"/><path fill="#090817" d="M1341.645,1196.337H1205.113a4,4,0,0,1-4-4V863.813a4,4,0,0,1,4-4h136.532a4,4,0,0,1,4,4v328.524A4,4,0,0,1,1341.645,1196.337Zm-132.532-8h128.532V867.813H1209.113Z"/><path fill="#6556ff" d="M804.168,1448.958a475.4,475.4,0,0,0,79.925-75.485c80.6-96.252,75.317-169.429,115.446-226.453,75.972-107.959,300.314-140.273,439.586-63.047,97.686,54.167,280.449,416.874,205.523,629.955L961.8,1715.373l-184.271,11.1Q790.848,1587.715,804.168,1448.958Z"/><rect width="175.945" height="65.216" x="1185.475" y="1018.53" fill="#6556ff"/><path fill="#fff" d="M1465.637,759.908c-14.223-140.361-153.871-232.537-288.857-190-90.48,12.226-162.093,89.476-163.192,185.582-1.067,93.357,12.19,207.2,76.937,248.82,116.174,74.67,319.1-25.726,347.484-112.537A221.7,221.7,0,0,0,1465.637,759.908Z"/><path fill="#090817" d="M1088.359,1007.676c-67-43.062-79.816-160.929-78.769-252.23,1.09-95.223,72.566-176.609,166.316-189.453,137.348-43.049,279.229,50.637,293.711,193.512h0a225.277,225.277,0,0,1-27.929,133.89C1412.436,982.578,1206.5,1083.615,1088.359,1007.676Zm156.024-444.128c-39.647,0-63.828,9.881-67.067,10.328C1087.3,586.04,1018.633,664.137,1017.59,755.54c-1.024,89.277,11.176,204.324,75.1,245.41,113.553,72.986,314.248-25.949,341.437-110.145,1.2-3.7,35.147-55.375,27.531-130.5h0C1450.05,645.744,1353.309,563.548,1244.383,563.548Z"/><path fill="#080717" d="M1319.523,770.61a3.979,3.979,0,0,1-2.6-.961c-39.078-33.4-79.9-16.211-81.617-15.465a4,4,0,0,1-3.215-7.324c1.9-.84,47.039-20.047,90.027,16.711A4,4,0,0,1,1319.523,770.61Z"/><path fill="#080717" d="M1266.082,798.649c-6.035-2.687-12.7,1.07-12.762,1.113a4,4,0,0,1-4.047-6.9c.411-.242,10.239-5.91,20.071-1.516,8.693,3.882,13.7,10.9,19.57,4.668a4,4,0,1,1,5.828,5.477C1284.027,812.885,1273.194,801.815,1266.082,798.649Z"/><circle cx="1259.687" cy="812.022" r="21.973" fill="#080717"/><path fill="#080717" d="M1043.867,774.223a4.006,4.006,0,0,1-2.922-6.734,73.3,73.3,0,0,1,79.223-18.566,4,4,0,1,1-2.8,7.492,65.271,65.271,0,0,0-70.574,16.543A4,4,0,0,1,1043.867,774.223Z"/><path fill="#080717" d="M1052.531,802.739a4,4,0,0,1,5.735-5.578c5.958,6.137,10.82-.952,19.488-4.992,9.769-4.563,19.676.945,20.1,1.183a4,4,0,0,1-3.938,6.965c-.094-.055-6.789-3.7-12.777-.9C1074.465,802.536,1063.519,814.034,1052.531,802.739Z"/><circle cx="1087.755" cy="812.683" r="21.973" fill="#080717"/><path fill="#080717" d="M1151.391,861.372c-5.914-8.606,7.375-46.653,13.363-62.61a4,4,0,0,1,7.492,2.813c-8.664,23.086-16.445,50.828-14.223,55.332,2.352,3.41,16.485,4.3,28.188,2.953a4,4,0,1,1,.922,7.945C1177.237,868.955,1157.067,869.626,1151.391,861.372Z"/><ellipse cx="1296.77" cy="867.396" fill="#6556ff" rx="30.356" ry="19.815" transform="rotate(-4.117 1296.786 867.41)"/><ellipse cx="1074.545" cy="877.861" fill="#6556ff" rx="30.356" ry="19.815" transform="rotate(-4.117 1074.565 877.879)"/><path fill="#080717" d="M1013.53,782.37c-24.313-56.092-18.649-118.419,19.3-167.1,71.806-117.275,224.577-157.619,343.574-92.109,130.765,71.988,157.729,237.11,102.681,345.23-38.78,76.168-110.667,108.9-137.942,119.656,30.476-33.368,42.077-61.715,46.917-81.913,2.686-11.206,5.648-29.745,20.814-44.958,11.164-11.2,17.393-9.012,28.306-18.316,23.358-19.911,34.081-63.383,16.652-83.255-8.288-9.449-24.976-15.884-35.422-11.195-2.195.985-8.625,2.295-16.2,10.836-15.818,17.842-17.483-.474-29.139-46.264s-163.735-6.66-187.6-91.58C1185.475,621.4,1060.268,587.005,1013.53,782.37Z"/><path fill="#6556ff" d="M975.5,681.518c180.593-30.653,366.67.148,529.412,92a21.514,21.514,0,0,0,32.077-19.611c-2.469-56.585-20.249-162.435-111.812-235.007-90.723-71.908-232.34-94.18-336.629-22.4C998.461,558.5,979.229,659.161,975.5,681.518Z"/><path fill="#6556ff" d="M995.175,614.051S913.4,662.131,933.6,699.807s309.681-21.114,309.681-21.114Z"/><path fill="#fff" d="M1186.176,667.2c-137.137-17.137-173.594-44.055-175.078-45.191a4,4,0,0,1,4.851-6.36c.449.332,37.168,26.863,171.219,43.613a4,4,0,1,1-.992,7.938Z"/><path fill="#fff" d="M1058.137,635.563a4,4,0,0,1-3.653-5.617c62.659-141.568,240.651-206.393,380.121-98.926,28.872,22.235,45.977,44.215,49.11,48.4a4,4,0,0,1-6.4,4.8c-3.027-4.036-19.543-25.254-47.593-46.86-133.51-102.86-306.4-43.18-367.926,95.824A4,4,0,0,1,1058.137,635.563Z"/><path fill="#fff" d="M967.6,1707.622a4,4,0,0,1-4-4.231l14.531-253.257c-39.793-50.215,13.519-140,19.746-150.094l11.676-108.133a4,4,0,0,1,7.953.859c-12.59,116.607-11.634,109.584-12.367,110.75-.6.946-59.387,95.364-19.856,142.735,1.574,1.884,1.852-13.419-13.7,257.6A4,4,0,0,1,967.6,1707.622Z"/><path fill="#080717" d="M1176.613,932.294a89.023,89.023,0,0,1-11.652-.692,4,4,0,0,1,1.129-7.922c.4.059,40.711,5.438,59.094-18.546a4,4,0,1,1,6.351,4.867C1216.82,929.2,1191.441,932.294,1176.613,932.294Z"/><path fill="#080717" d="M1419.473,831.282a4,4,0,0,1-3.383-6.129c6.418-10.211,8.472-19.148,6.113-26.562-3.074-9.653-12.871-13.817-12.973-13.86a4.008,4.008,0,0,1,.036-7.414l27.054-10.805a4,4,0,1,1,2.969,7.43l-19.684,7.859c12.382,9.816,16.731,26.166,3.258,47.61A4,4,0,0,1,1419.473,831.282Z"/><path fill="#fff" d="M1163.1,1676.278a4,4,0,0,1-3.977-4.477l77.059-641.781a4,4,0,0,1,7.945.953l-77.059,641.782A4,4,0,0,1,1163.1,1676.278Z"/><path fill="#fff" d="M1423.074,903.751c37.7-11.879,53.36-91.024,53.512-91.825a4,4,0,0,1,7.859,1.516c-.668,3.449-16.761,84.641-58.965,97.942C1420.339,912.981,1418.1,905.32,1423.074,903.751Z"/><path fill="#fff" d="M1437.8,1022.528a4,4,0,0,1-3.645-5.644c17.758-39.422-11.375-67.7-12.625-68.883a4,4,0,0,1,5.489-5.821c.347.329,34.57,33.278,14.433,77.993A4,4,0,0,1,1437.8,1022.528Z"/><path fill="#fff" d="M1452.4,1045.516a4.005,4.005,0,0,1-2.543-7.09c27.786-22.808,6.227-82.625,6.008-83.226a4,4,0,0,1,7.508-2.758c.984,2.672,23.691,65.789-8.437,92.164A3.984,3.984,0,0,1,1452.4,1045.516Z"/><rect width="530.508" height="744" x="335.958" y="1072.71" fill="#fff" rx="18.782" transform="rotate(-3.804 601.191 1444.67)"/><path fill="#090817" d="M378.684,1836.286a22.774,22.774,0,0,1-22.7-21.274l-46.867-704.878a22.812,22.812,0,0,1,21.223-24.247l491.855-32.7a22.889,22.889,0,0,1,24.246,21.223l46.864,704.879a22.773,22.773,0,0,1-21.219,24.246C357.743,1837.73,379.9,1836.286,378.684,1836.286Zm445.031-775.152c-.733,0,19.367-1.319-492.844,32.738A14.8,14.8,0,0,0,317.1,1109.6l46.867,704.879a14.769,14.769,0,0,0,15.726,13.77c463.67-30.829,491.43-32.7,491.86-32.7a14.77,14.77,0,0,0,13.765-15.731l-46.863-704.879A14.8,14.8,0,0,0,823.715,1061.134Z"/><rect width="512.569" height="691.361" x="280.865" y="1184.022" fill="#fff" rx="18.782" transform="rotate(-3.804 537.142 1529.665)"/><path fill="#090817" d="M321.82,1894.419a22.773,22.773,0,0,1-22.695-21.27L255.75,1220.794a22.812,22.812,0,0,1,21.223-24.246l473.957-31.512a22.77,22.77,0,0,1,24.246,21.219l43.371,652.359a22.77,22.77,0,0,1-21.219,24.242C300.943,1895.859,323.045,1894.419,321.82,1894.419Zm430.637-721.434c-.746,0,17.69-1.207-474.953,31.547a14.8,14.8,0,0,0-13.77,15.73l43.375,652.356a14.774,14.774,0,0,0,15.731,13.766c448.629-29.828,473.513-31.512,473.957-31.512a14.77,14.77,0,0,0,13.765-15.727l-43.371-652.359A14.8,14.8,0,0,0,752.457,1172.985Z"/><rect width="318.416" height="46.342" x="361.031" y="1252.196" fill="#080717" rx="12.251" transform="rotate(-3.62 526.695 1280.567)"/><path fill="#080717" d="M388.227,1412.747a4,4,0,0,1-.262-7.992l341.082-22.68a4.082,4.082,0,0,1,4.258,3.726,4.006,4.006,0,0,1-3.727,4.258C393.172,1412.428,388.636,1412.747,388.227,1412.747Z"/><path fill="#080717" d="M390.352,1444.751a4,4,0,0,1-.262-7.992l341.086-22.68a4.058,4.058,0,0,1,4.258,3.726,4.006,4.006,0,0,1-3.727,4.258C395.3,1444.432,390.761,1444.751,390.352,1444.751Z"/><path fill="#080717" d="M392.191,1472.411a4,4,0,0,1-.261-7.992l195.961-13.032a4.086,4.086,0,0,1,4.257,3.727,4.006,4.006,0,0,1-3.726,4.258C371.264,1473.813,393.493,1472.411,392.191,1472.411Z"/><path fill="#080717" d="M332.426,1459.954l-20.414-21.613a4,4,0,1,1,5.812-5.493l16.442,17.407,25.586-52.6a4,4,0,1,1,7.2,3.5l-28.117,57.8A4,4,0,0,1,332.426,1459.954Z"/><path fill="#080717" d="M395.8,1526.606a4,4,0,0,1-.262-7.992l341.082-22.68a4.046,4.046,0,0,1,4.258,3.727,4.006,4.006,0,0,1-3.727,4.258C400.743,1526.287,396.206,1526.606,395.8,1526.606Z"/><path fill="#080717" d="M397.922,1558.61a4,4,0,0,1-.262-7.992l341.086-22.676a4.092,4.092,0,0,1,4.258,3.727,4.006,4.006,0,0,1-3.727,4.257C402.871,1558.291,398.331,1558.61,397.922,1558.61Z"/><path fill="#080717" d="M399.762,1586.27a4,4,0,0,1-.262-7.992l195.961-13.031a4,4,0,1,1,.531,7.984C378.834,1587.672,401.063,1586.27,399.762,1586.27Z"/><path fill="#080717" d="M340,1573.813,319.582,1552.2a4,4,0,0,1,5.813-5.492l16.441,17.406,25.586-52.6a4,4,0,0,1,7.195,3.5l-28.117,57.8A4,4,0,0,1,340,1573.813Z"/><path fill="#080717" d="M403.367,1640.466a4,4,0,0,1-.262-7.993l341.083-22.679a4,4,0,0,1,.531,7.984C408.313,1640.147,403.776,1640.466,403.367,1640.466Z"/><path fill="#080717" d="M405.492,1672.469a4,4,0,0,1-.262-7.992L746.316,1641.8a4.052,4.052,0,0,1,4.258,3.727,4.006,4.006,0,0,1-3.726,4.258C410.442,1672.151,405.9,1672.469,405.492,1672.469Z"/><path fill="#080717" d="M407.332,1700.13a4,4,0,0,1-.262-7.993l195.961-13.027a4.077,4.077,0,0,1,4.258,3.727,4,4,0,0,1-3.727,4.257C386.405,1701.531,408.633,1700.13,407.332,1700.13Z"/><path fill="#080717" d="M347.566,1687.676l-20.418-21.617a4,4,0,0,1,5.817-5.492l16.441,17.41,25.586-52.6a4,4,0,0,1,7.2,3.5l-28.118,57.8A4,4,0,0,1,347.566,1687.676Z"/><path fill="#080717" d="M410.938,1754.325a4,4,0,0,1-.262-7.992l341.082-22.676a4,4,0,1,1,.531,7.984C415.883,1754.006,411.347,1754.325,410.938,1754.325Z"/><path fill="#080717" d="M413.062,1786.333a4,4,0,0,1-.261-7.992l341.086-22.68a4.087,4.087,0,0,1,4.258,3.726,4.006,4.006,0,0,1-3.727,4.258C418.012,1786.014,413.472,1786.333,413.062,1786.333Z"/><path fill="#080717" d="M414.9,1813.989a4,4,0,0,1-.261-7.992L610.6,1792.969a4,4,0,0,1,.531,7.985C393.975,1815.39,416.2,1813.989,414.9,1813.989Z"/><path fill="#080717" d="M355.137,1801.536l-20.418-21.617a4,4,0,0,1,5.816-5.493l16.442,17.411,25.585-52.6a4,4,0,1,1,7.2,3.5l-28.117,57.805A4,4,0,0,1,355.137,1801.536Z"/><path fill="#6556ff" d="M1615.379,1362.641c85.339,161.944,85.621,320.4,8.017,392.695-73.657,68.615-215.2,42.427-236.444,38.852-36.39-6.121-62.068-15.965-129.877-45.513-64.451-28.083-151.626-67.285-255.316-117.6q38.3-88.527,76.6-177.055l417.823,75.975Z"/><path fill="#fff" d="M1606.473,1662.833a4,4,0,0,1-3.805-2.762c-17.762-54.551-116.559-86.4-117.555-86.719a4.005,4.005,0,0,1-2.551-2.441l-124.9-342.231a4,4,0,0,1,7.516-2.742l124.23,340.4c14.543,4.863,103.028,36.472,120.867,91.253A4,4,0,0,1,1606.473,1662.833Z"/><path fill="#fff" d="M1486.324,1573.54c-.41,0,13.986,1.176-281.543-23.426a3.992,3.992,0,0,1-3.652-4.316,3.9,3.9,0,0,1,4.316-3.653l281.207,23.41a4,4,0,0,1-.328,7.985Z"/><path fill="#fff" d="M1197.391,1504.858s-43.924-18.191-69.128,2.513-48.2,22.981-66.028,48.144-12.491,92.775-25.873,121.368-42.163,69.883-21.815,74.258,54.1-58.883,54.1-58.883-23.609,104.278,2.3,102.831,49.55-104.715,49.55-104.715-1.325,121.838,20.179,118.729,22.426-136.826,22.426-136.826,36.189,145.846,56.7,131.5-4.184-194.711-7.807-214.769,46.257,3.285,65.831-13.609S1309.66,1538.673,1197.391,1504.858Z"/><path fill="#090817" d="M1139.879,1813.161a9.962,9.962,0,0,1-6.676-2.66c-11.879-10.4-15.379-57.883-16.367-90.227-9.406,32.356-26.047,77.711-45.672,78.805-24.63,1.695-15.261-60.049-11.016-84.453-12.39,19.332-31.343,43.715-46.441,40.425-5.352-1.148-7.812-4.277-8.934-6.7-5.011-10.836,5.848-31.1,17.348-52.551,13.886-25.892,15.77-27.094,20.809-74.558,6.246-58.8,9.415-74.1,54.347-98.7,9.157-5.012,18.629-10.2,28.446-18.262,26.136-21.484,69.3-4.7,73-3.2,80.128,24.152,93.168,40.172,95.566,51.429,2.207,10.364-5.355,18.582-13.852,25.914-10.906,9.411-29.195,7.868-43.879,6.633-8.175-.687-18.335-1.543-20.417.75a3.336,3.336,0,0,0-.211,2.489c.355,1.98,31.214,201.234,6.16,218.757a9.135,9.135,0,0,1-8.684,1.075c-16.492-6.184-36.121-68.411-46.933-107.336C1165.65,1723.548,1162.115,1813.161,1139.879,1813.161Zm-19.391-126.785a4,4,0,0,1,4,4.043c-.422,39,3,104.449,13.981,114.062.882.77,1.394.7,1.625.664,10.828-1.566,18.562-69.98,19-132.894.036-4.64,6.734-5.542,7.882-.938,11.727,47.262,35.465,124.164,49.239,129.324a1.128,1.128,0,0,0,1.289-.136c16.152-11.3-1.988-169.457-9.449-210.782-.692-3.824.039-6.953,2.168-9.293,4.742-5.21,14.554-4.39,27.007-3.335,13.192,1.109,29.618,2.5,37.981-4.719,6.637-5.731,12.594-11.9,11.254-18.2-4.644-21.8-86.653-43.967-90.606-45.625-.422-.167-42.027-17.007-65.062,1.911-25.555,20.994-48.192,23.219-65.3,47.367-9.16,12.93-11.93,39.023-14.609,64.258-5.182,48.752-7.247,50.52-21.715,77.5-9.121,17.015-20.477,38.195-17.137,45.41.363.785,1.07,1.746,3.352,2.238,12.035,2.621,36.3-31.691,49.734-56.855a4,4,0,0,1,7.43,2.765c-7.09,31.317-14.8,85.176-5.317,96.387,8.155,9.594,31.865-23.65,49.36-100.047A4,4,0,0,1,1120.488,1686.376Z"/><path fill="#080717" d="M1203.715,1586.473c-32.223,0-56.785-23.179-57.961-24.308a4,4,0,0,1,5.535-5.774c.305.285,30.469,28.668,65.445,20.6a4,4,0,0,1,1.8,7.8A65.637,65.637,0,0,1,1203.715,1586.473Z"/><path fill="#080717" d="M1091.027,1652.387a4,4,0,1,1-.152-8c1.594,0,47.539-.211,68.074-18.89a4,4,0,1,1,5.383,5.914C1141.8,1651.911,1095.238,1652.387,1091.027,1652.387Z"/><path fill="#fff" d="M777.569,806.769a175.422,175.422,0,1,0-43.594,43.7L791.9,888.7a6.587,6.587,0,0,0,9.891-7.538Z"/><path fill="#090817" d="M789.7,892.032,734.023,855.3A178.163,178.163,0,0,1,633.6,886.087c-98.879,0-179.325-80.442-179.325-179.321S534.719,527.442,633.6,527.442s179.32,80.445,179.32,179.324a178.211,178.211,0,0,1-30.934,100.645L805.6,879.919A10.588,10.588,0,0,1,789.7,892.032Zm-55.726-45.559c1.768,0-3.228-2.923,60.132,38.883a2.58,2.58,0,0,0,3.879-2.961l-24.222-74.386a4,4,0,0,1,.519-3.524,170.274,170.274,0,0,0,30.633-97.719c0-94.468-76.856-171.324-171.32-171.324S462.273,612.3,462.273,706.766,539.129,878.087,633.6,878.087A170.256,170.256,0,0,0,731.684,847.2,4,4,0,0,1,733.977,846.473Z"/><path fill="#080717" d="M543.53,665.763q31.782,68.187,63.562,136.373L801.065,558.56l-187.4,160.9Z"/><g><path fill="#fff" d="M216.911,1488.013c-3.434-2.566-10.919-8.158-10.557-15.528.335-6.85,7.352-13.239,17.635-16.734,0,0-28.066-32.788-1.827-44.377,0,0-27.171-28.081,2.115-43.775,0,0-16.078-28.537,6.037-41.293s91.529,20.432,98.318,37.6-28.939,18.705-28.939,18.705,42.408,26.912-1.659,35.509c0,0,43.74,25.233-3.227,42.26,15.834,9.962,18.734,16.636,18.029,21.038C310.054,1498.8,246.406,1510.05,216.911,1488.013Z"/><path fill="#090817" d="M214.516,1491.216c-1.641-1.641-12.679-8.34-12.157-18.926.348-7.168,6.063-13.887,15.262-18.27-10.53-14.826-16.725-33.61-1.648-43.8-12.083-15.852-13.669-33.166,3.054-44.152-5.457-12.035-8.992-32.68,9.285-43.226,12.633-7.278,35.336-1.1,47.747,3.226,21.371,7.455,67.847,29.6,55.414,48.734-4.078,6.286-13.77,9.243-21.4,10.625,15.828,13.734,16.966,27.764-2.609,34.387,17.821,14.363,18.433,30.672-4.254,41.422,10.289,7.531,14.625,14.234,13.574,20.813C313.263,1504.108,244.967,1513.969,214.516,1491.216Zm4.789-6.407c18.847,14.082,56.043,14.149,77.636,5.395,6.989-2.832,11.454-6.356,11.946-9.418.3-1.863-.688-7.25-16.207-17.016a4,4,0,0,1,.765-7.148c12-4.352,18.6-9.531,19.078-14.981.719-8.191-11.98-17.457-16.488-20.054a4,4,0,0,1,1.235-7.391c9.945-1.941,16.039-5.109,16.714-8.687,1.055-5.579-8.976-14.77-16.437-19.52a4,4,0,0,1,1.969-7.371c7.941-.352,21.816-2.879,25.25-8.176,9.138-14.082-71.337-52.838-92.454-40.672-18.394,10.61-5.121,34.844-4.546,35.871a4.013,4.013,0,0,1-1.6,5.485c-6.66,3.566-10.457,8.058-11.293,13.347-1.813,11.516,10.047,24,10.168,24.125a4.008,4.008,0,0,1-1.262,6.438c-4.82,2.129-7.6,5.078-8.5,9.015-2.265,9.969,7.707,24.387,11.742,29.1a4,4,0,0,1-1.75,6.387c-8.691,2.957-14.687,8.238-14.925,13.144-.258,5.243,5.96,9.891,8.949,12.125C216.172,1488.991,216.043,1489.16,219.305,1484.809Z"/><path fill="#080717" d="M298.93,1467.114c-.426,0,4.509.462-75.332-7.383a4,4,0,1,1,.781-7.961l74.937,7.364a4,4,0,0,1-.386,7.98Z"/><path fill="#080717" d="M298.039,1422.122c-.477,0,4.6.654-79.637-10.664a4,4,0,0,1,1.063-7.93l79.1,10.629a4,4,0,0,1-.527,7.965Z"/><path fill="#080717" d="M299.7,1386.614c-.611,0,4.6.993-76.2-15.094a4,4,0,1,1,1.563-7.844l75.414,15.016a4,4,0,0,1-.778,7.922Z"/></g></svg>