<svg xmlns="http://www.w3.org/2000/svg" enable-background="new 0 0 3000 3000" viewBox="0 0 3000 3000"><path fill="#e1e8f8" d="M281.8,1903.4C131.3,1617.5,61.4,1263.7,95.5,941.9c44.2-417.1,428.8-749,850.4-742.9
				c333.8,4.9,541.1,384.2,810,534c151.9,84.6,324.9,135,498.1,93.5c191.3-45.9,353.5-15.5,484,145.7
				c213.9,264.2,217,643.5,88.4,948.8c-151,358.5-477.4,546.8-851.9,595.4C1348.8,2597.7,605,2517,281.8,1903.4z"/><ellipse cx="1500" cy="2690.5" fill="#e1e8f8" rx="1475" ry="110.5"/><g><path fill="#feb582" d="M1249.8,1379.5c3.7,1.1,5.9,5,4.8,8.8c-0.6,2-2,3.5-3.8,4.4c-1.5,0.7-3.2,0.9-5,0.4l0.6,0.2
				c4.2,1.2,6.6,5.6,5.4,9.8c-0.7,2.2-2.2,4-4.2,4.9c-1.7,0.8-3.6,1-5.6,0.4l-3.7-1.1c3.7,1.5,5.7,5.6,4.5,9.5
				c-0.7,2.3-2.2,4-4.2,4.9c-1.7,0.8-3.7,1-5.6,0.4l-2.5-0.7c4,1.1,6.2,5.3,5.1,9.2c-0.6,2.2-2.1,3.8-4,4.7l0,0
				c-1.6,0.8-3.4,0.9-5.3,0.4l-39.8-11.7l-20-10.8l15.2-54.2c4.8,0.3,11.6-0.9,18.6-2.6c9.7-2.4,19.6-5.8,24.2-7.9
				c4.8-1.9,9.1-4,12.5-1.9c1.1,0.7,2,1.6,2.7,2.6c2.7,4,1.2,9.5-2.8,12.2l-18.2,8.9L1249.8,1379.5z"/><path fill="#a6b3ea" d="M970.8,1277.4l213.6,74.1l-14.8,73.2c0,0-227.9-48.8-254-60.2l-52.2-45.3l10.9-150.8L970.8,1277.4z"/><path fill="#a6b3ea" d="M998.5,1711.5c-46,9.1-92.4,11.2-139,11.5c-46.6-0.3-92.9-2.4-139-11.5c46-9.2,92.3-11.3,139-11.5
				C906.2,1700.3,952.5,1702.4,998.5,1711.5L998.5,1711.5z"/><path fill="#a6b3ea" d="M1635.8,1077.1c-9.1-46-11.2-92.4-11.5-139c0.3-46.6,2.4-92.9,11.5-139c9.2,46,11.3,92.4,11.5,139
				C1647,984.7,1644.9,1031.1,1635.8,1077.1L1635.8,1077.1z"/><path fill="#a6b3ea" d="M1315.4,1160.2c-30.9-35.3-55.9-74.4-79.5-114.6c-23.1-40.5-44.4-81.7-59.5-126.1
				c30.9,35.3,55.9,74.3,79.5,114.6C1278.9,1074.6,1300.2,1115.8,1315.4,1160.2L1315.4,1160.2z"/><path fill="#a6b3ea" d="M1079.4,1392.5c-44.4-15.1-85.6-36.5-126.1-59.5c-40.2-23.5-79.3-48.5-114.6-79.5
				c44.4,15.1,85.6,36.4,126.1,59.5C1005,1336.6,1044.1,1361.6,1079.4,1392.5L1079.4,1392.5z"/><path fill="#a6b3ea" d="M2262.9,1721.7c46-9.1,92.4-11.2,139-11.5c46.6,0.3,92.9,2.4,139,11.5c-46,9.2-92.4,11.3-139,11.5
				C2355.3,1733,2308.9,1730.8,2262.9,1721.7L2262.9,1721.7z"/><path fill="#a6b3ea" d="M2427.8,1262.3c-35.3,30.9-74.4,55.9-114.6,79.5c-40.5,23.1-81.7,44.4-126.1,59.5
				c35.3-30.9,74.3-55.9,114.6-79.5C2342.2,1298.8,2383.4,1277.5,2427.8,1262.3L2427.8,1262.3z"/><path fill="#a6b3ea" d="M1954.9,1165.3c15.1-44.4,36.5-85.6,59.5-126.1c23.5-40.2,48.5-79.3,79.5-114.6
				c-15.1,44.4-36.4,85.6-59.5,126.1C2010.8,1091,1985.8,1130,1954.9,1165.3L1954.9,1165.3z"/><path fill="#a6b3ea" d="M1842.8,1825.5c-16.3-11.7-37.6-13.5-55.6-4.7c-32.5,15.9-58.9,48.8-74.2,92.7
					c-5.7,16.3-10.3,33.6-13.6,51.6c-43,10.2-87.5,11.6-131.1,4.4c-4.5-17.8-10.2-34.8-17-50.6c-18.3-42.8-46.8-73.9-80.3-87.6
					c-18.6-7.5-39.7-4.3-55.2,8.4c-15.6,12.8-22.6,32.4-18.7,52.2c9.2,47,56.4,83.9,132.9,104c3.4,0.9,6.7,1.7,10.1,2.5
					c0.9,4.4,1.7,8.9,2.4,13.4c24.6,153.9,39.9,309.7,45.4,463.3h33.9c-5.5-155.4-20.9-313-45.8-468.7c-0.1-0.5-0.2-1.1-0.2-1.6
					c39.5,5.2,79.6,3.9,118.7-3.9c-0.1,0.5-0.1,1.1-0.2,1.6c-14.6,157.7-19.5,316.6-14.6,472.6h33.9c-4.9-155-0.1-312.9,14.5-469.5
					c0.4-4.6,0.9-9.1,1.5-13.5c3.3-1,6.7-2.1,9.9-3.2c75-25.1,119.6-65.1,125.7-112.6C1867.6,1856.3,1859.3,1837.3,1842.8,1825.5z
					 M1430.3,1885.3c-2.1-10.7,4.2-17.2,7-19.5c3.6-3,7.9-4.6,12.4-4.7c2.8-0.1,5.7,0.4,8.5,1.5c24.8,10.1,47.3,35.4,61.8,69.5
					c3.9,9.2,7.5,18.8,10.6,28.8C1472.9,1944.3,1436.5,1917,1430.3,1885.3z M1831.4,1872c-4.1,32-38.6,61.6-95.1,82
					c2.4-10.1,5.3-20,8.6-29.4c12.2-34.9,33-61.7,57.1-73.4c2.7-1.3,5.5-2,8.4-2.1c4.4-0.2,8.9,1.2,12.7,3.9
					C1826.1,1855.2,1832.8,1861.3,1831.4,1872z"/><path fill="#a6b3ea" d="M1812.9,2402.7h-364.3c-39.7,0-74.4-28.2-82.6-67.1l-11.3-53.8c-10.5-66.7-38.7-129.7-81.5-182l-68-83.1
				c-72.3-94.4-112.3-205.4-115.7-321c-4.3-145.6,48.7-283.5,149-388.2c102.3-106.9,241.5-166.9,392-169h0.2h0.2
				c150.4,2.2,289.6,62.2,391.9,169c100.3,104.8,153.2,242.7,149,388.2l0,0c-3.4,115.6-43.4,226.6-115.7,321l-0.3,0.4l-67.7,82.7
				c-42.8,52.3-71,115.2-81.5,182l-0.1,0.8l-11.1,53C1887.3,2374.5,1852.6,2402.7,1812.9,2402.7z M1385.4,2276.6l11,52.6
				c5.1,24.5,27.1,42.4,52.1,42.4h364.3c25.1,0,47-17.8,52.1-42.4l11-52.6c11.4-72.1,41.9-140,88.1-196.4l67.5-82.5
				c68.2-89.2,106-193.9,109.2-302.8c4-137.2-45.9-267.1-140.4-365.8c-96.4-100.7-227.7-157.3-369.7-159.4
				c-142,2.1-273.3,58.7-369.7,159.4c-94.5,98.7-144.3,228.6-140.3,365.8c3.2,108.9,40.9,213.6,109.1,302.8l67.5,82.5
				C1343.6,2136.6,1374,2204.5,1385.4,2276.6z"/><path fill="#a6b3ea" d="M1976.5,1645.7c-1-9-3-17.6-6-25.8c-2.5-6.9-5.6-13.6-9.3-19.8c-4.5-7.7-9.9-14.7-16-21.1
				c-5-5.3-10.5-10-16.5-14.2c-7.2-5.2-15-9.5-23.2-12.9c-6.6-2.7-13.6-4.8-20.7-6.3l0,0c-8.5-1.7-17.4-2.5-26.4-2.3l0,0
				c-1.2,0-2.3,0.1-3.5,0.1c-6.1,0.4-12.1,1.2-17.9,2.5c-8.8,1.9-17.2,4.8-25.1,8.6l0,0c-6.5,3.1-12.7,6.8-18.5,11.1
				c-7.2,5.3-13.7,11.3-19.5,18l0,0c-4.7,5.4-8.8,11.3-12.4,17.6c-4.4,7.6-8,15.8-10.5,24.4c-2.1,6.8-3.5,13.9-4.3,21.2l0,0
				c-0.6,6.2-0.8,12.5-0.4,18.9c0.2,2.6,0.4,5.1,0.7,7.6c0.9,7.3,2.5,14.4,4.7,21.2c2.8,8.6,6.5,16.6,11.1,24.1l0,0
				c3.8,6.2,8.1,12.1,13,17.5l0,0c5.9,6.6,12.6,12.5,19.9,17.5c6,4.2,12.4,7.8,19.1,10.8c8,3.6,16.5,6.3,25.3,8
				c7.1,1.3,14.4,2.1,21.9,2c2.2,0,4.4-0.1,6.6-0.2c6.8-0.4,13.3-1.4,19.7-2.9c7.3-1.7,14.3-4.1,20.9-7.1
				c8.1-3.7,15.8-8.2,22.8-13.6c5.9-4.5,11.3-9.5,16.2-15c5.9-6.6,11-13.9,15.2-21.7c3.5-6.4,6.4-13.2,8.6-20.3l0,0
				c2.6-8.3,4.4-17,5-26c0.4-5.1,0.5-10.4,0.1-15.7C1976.9,1649.9,1976.7,1647.8,1976.5,1645.7z M1857.4,1587.6
				c39.3-2.3,73.2,27.7,75.5,67s-27.7,73.1-67,75.5c-39.3,2.3-73.1-27.7-75.5-67C1788,1623.7,1818,1589.9,1857.4,1587.6z"/><path fill="#a6b3ea" d="M1882.5,1551.9l-22.6-1.1c-1.2-0.1-2.1-1.1-2-2.3l1.7-21.4c0.1-1.1,1.1-2,2.2-1.9l21.4,1.1
						c1.1,0.1,2,1,2,2.1l-0.5,21.5C1884.6,1551,1883.6,1552,1882.5,1551.9z"/><path fill="#a6b3ea" d="M1837.3,1552.5l-21.1,8.2c-1.1,0.4-2.3-0.1-2.7-1.3l-7.2-20.3c-0.4-1.1,0.2-2.2,1.2-2.7l19.9-7.7
						c1.1-0.4,2.3,0.1,2.7,1.1l8.3,19.8C1839,1550.8,1838.4,1552,1837.3,1552.5z"/><path fill="#a6b3ea" d="M1796.3,1571.3l-16,16c-0.8,0.8-2.2,0.8-3,0l-14.8-15.6c-0.8-0.8-0.8-2.1,0-2.9l15.1-15.2
						c0.8-0.8,2.1-0.8,2.9,0l15.7,14.7C1797.1,1569.2,1797.1,1570.5,1796.3,1571.3z"/><path fill="#a6b3ea" d="M1766.5,1605.3l-8.1,21.1c-0.4,1.1-1.7,1.6-2.8,1.2l-19.9-8.2c-1-0.4-1.6-1.6-1.2-2.7l7.6-20
						c0.4-1.1,1.6-1.6,2.6-1.2l20.3,7.1C1766.4,1602.9,1767,1604.2,1766.5,1605.3z"/><path fill="#a6b3ea" d="M1753.1,1648.4l1.2,22.6c0.1,1.2-0.9,2.2-2,2.2l-21.5,0.6c-1.1,0-2.1-0.8-2.1-2l-1.2-21.4
						c-0.1-1.1,0.8-2.1,1.9-2.2l21.4-1.8C1752,1646.3,1753.1,1647.2,1753.1,1648.4z"/><path fill="#a6b3ea" d="M1758.4,1693.2l10.3,20.1c0.5,1.1,0.1,2.3-1,2.8l-19.4,9.3c-1,0.5-2.3,0.1-2.8-0.9l-9.8-19
						c-0.5-1-0.1-2.2,0.9-2.8l18.8-10.3C1756.6,1691.8,1757.9,1692.2,1758.4,1693.2z"/><path fill="#a6b3ea" d="M1781.5,1732l17.6,14.2c0.9,0.7,1,2.1,0.3,3l-14,16.3c-0.7,0.9-2,1-2.9,0.3l-16.7-13.4
						c-0.9-0.7-1-2-0.4-2.9l13-17.1C1779.2,1731.4,1780.6,1731.3,1781.5,1732z"/><path fill="#a6b3ea" d="M1818.3,1758.1l21.9,5.8c1.1,0.3,1.8,1.5,1.5,2.6l-6.1,20.6c-0.3,1.1-1.5,1.7-2.5,1.4l-20.7-5.5
						c-1.1-0.3-1.8-1.4-1.5-2.5l4.9-20.9C1816,1758.5,1817.2,1757.8,1818.3,1758.1z"/><path fill="#a6b3ea" d="M1862.6,1766.9l22.3-3.6c1.2-0.2,2.3,0.6,2.4,1.8l2.8,21.3c0.1,1.1-0.6,2.2-1.7,2.3l-21.1,3.4
						c-1.1,0.2-2.2-0.6-2.4-1.7l-4-21.1C1860.7,1768.2,1861.4,1767.1,1862.6,1766.9z"/><path fill="#a6b3ea" d="M1906.6,1757l18.9-12.4c1-0.6,2.3-0.3,2.9,0.7l11.2,18.3c0.6,1,0.3,2.2-0.6,2.9l-17.9,11.7
						c-1,0.6-2.2,0.4-2.9-0.6l-12.3-17.6C1905.4,1759,1905.6,1757.6,1906.6,1757z"/><path fill="#a6b3ea" d="M1942.8,1730l12.3-19c0.6-1,2-1.3,2.9-0.6l17.7,12.2c0.9,0.6,1.2,1.9,0.6,2.9l-11.6,18
						c-0.6,1-1.9,1.2-2.8,0.7l-18.4-11.1C1942.5,1732.3,1942.2,1731,1942.8,1730z"/><path fill="#a6b3ea" d="M1964.9,1690.6l3.5-22.3c0.2-1.2,1.3-2,2.5-1.7l21.1,3.9c1.1,0.2,1.9,1.3,1.7,2.4l-3.3,21.1
						c-0.2,1.1-1.2,1.9-2.3,1.8l-21.3-2.7C1965.5,1692.9,1964.7,1691.8,1964.9,1690.6z"/><path fill="#a6b3ea" d="M1969,1645.7l-5.9-21.8c-0.3-1.1,0.4-2.3,1.5-2.6l20.9-5c1.1-0.3,2.2,0.4,2.5,1.5l5.6,20.6
						c0.3,1.1-0.3,2.2-1.4,2.6l-20.6,6.2C1970.5,1647.5,1969.4,1646.8,1969,1645.7z"/><path fill="#a6b3ea" d="M1954.6,1602.9l-14.3-17.5c-0.7-0.9-0.6-2.3,0.3-3l17-13.1c0.9-0.7,2.2-0.5,2.9,0.3l13.5,16.6
						c0.7,0.9,0.6,2.2-0.3,2.9l-16.3,14C1956.7,1603.9,1955.3,1603.8,1954.6,1602.9z"/><path fill="#a6b3ea" d="M1923.9,1569.7l-20.2-10.2c-1.1-0.5-1.5-1.8-0.9-2.9l10.3-18.9c0.5-1,1.8-1.4,2.8-0.9l19.1,9.7
						c1,0.5,1.4,1.7,0.9,2.8l-9.2,19.4C1926.3,1569.8,1925,1570.3,1923.9,1569.7z"/><g><path fill="#a6b3ea" d="M1703.6,1533.5c-1.3-11.7-3.8-23.2-7.3-34.3c-4.3-13.6-10.2-26.6-17.4-38.8c-5.9-10-12.8-19.4-20.5-28.2
				c-9.3-10.6-19.9-20.2-31.6-28.4l0,0c-9.3-6.7-19.4-12.5-30-17.4c-12.7-5.8-26.2-10.3-40.4-13.1l0,0c-1.8-0.4-3.7-0.7-5.5-1.1
				c-9.7-1.7-19.3-2.5-28.8-2.7c-14.4-0.2-28.6,1.3-42.3,4.3l0,0c-11.3,2.5-22.3,6-32.8,10.5c-13.1,5.6-25.5,12.7-36.9,21.1
				c-9.3,6.8-17.9,14.5-25.8,22.9c-9.6,10.3-18.1,21.8-25.3,34.2c-5.7,9.9-10.5,20.4-14.3,31.5c-3.3,9.4-5.8,19.2-7.5,29.3
				c-0.7,4.1-1.3,8.1-1.7,12.2l0,0c-1.2,11.7-1.3,23.3-0.4,34.7c1.2,14.3,4.1,28.2,8.5,41.6l0,0c3.6,11.1,8.3,21.8,13.9,32l0,0
				c6.8,12.4,15.1,24.1,24.7,34.6c7.8,8.7,16.5,16.6,25.9,23.7c11.2,8.5,23.4,15.8,36.6,21.6c10.6,4.7,21.8,8.4,33.5,11.1
				c3.4,0.8,6.9,1.5,10.4,2.1c10.7,1.8,21.3,2.7,31.8,2.7l0,0c11.9,0,23.7-1.2,35.2-3.5c14-2.7,27.6-7.1,40.4-12.9l0,0
				c10.8-4.9,21-10.8,30.7-17.6c11.5-8.2,22.2-17.7,31.6-28.3c7.8-8.8,14.8-18.3,20.8-28.5c7.1-12,13-25,17.3-38.8
				c2.5-7.9,4.5-16,5.9-24.4c0.6-3.4,1.1-6.7,1.4-10C1705.3,1561.5,1705.2,1547.3,1703.6,1533.5z M1538.9,1442.2
				c62.2,10.6,104.1,69.7,93.4,131.9c-10.6,62.2-69.7,104-131.9,93.4c-62.2-10.6-104-69.7-93.4-131.9
				C1417.6,1473.3,1476.7,1431.5,1538.9,1442.2z"/><path fill="#a6b3ea" d="M1590.9,1395.6l-34.8-9.9c-1.8-0.5-2.9-2.4-2.3-4.2l10.4-32.8c0.5-1.7,2.4-2.7,4.1-2.2l32.9,9.4
						c1.7,0.5,2.8,2.3,2.3,4.1l-8.5,33.3C1594.6,1395,1592.8,1396.1,1590.9,1395.6z"/><path fill="#a6b3ea" d="M1520.3,1380.1l-35.9,5.1c-1.9,0.3-3.6-1.1-3.8-2.9l-3.8-34.2c-0.2-1.8,1.1-3.4,2.9-3.7l33.9-4.8
						c1.8-0.3,3.5,1,3.8,2.8l5.8,33.9C1523.5,1378.1,1522.2,1379.8,1520.3,1380.1z"/><path fill="#a6b3ea" d="M1449.5,1394.7l-30.7,19.2c-1.6,1-3.7,0.5-4.7-1.1l-17.4-29.7c-0.9-1.6-0.4-3.6,1.1-4.5l29-18.2
						c1.5-1,3.6-0.5,4.6,1l19.1,28.6C1451.6,1391.5,1451.1,1393.7,1449.5,1394.7z"/><path fill="#a6b3ea" d="M1390.8,1436.8l-20.2,30c-1.1,1.6-3.2,2-4.7,0.9l-28-20c-1.5-1.1-1.8-3.1-0.8-4.6l19.1-28.4
						c1-1.5,3-1.9,4.6-1l29.1,18.4C1391.4,1433.1,1391.8,1435.2,1390.8,1436.8z"/><path fill="#a6b3ea" d="M1354.2,1499.2l-6.3,35.7c-0.3,1.9-2.1,3.1-4,2.7l-33.7-6.9c-1.8-0.4-2.9-2.1-2.6-3.9l5.9-33.7
						c0.3-1.8,2-3,3.8-2.7l34.1,5C1353.3,1495.5,1354.6,1497.3,1354.2,1499.2z"/><path fill="#a6b3ea" d="M1346.2,1571l8.8,35.1c0.5,1.8-0.7,3.7-2.5,4.1l-33.6,7.4c-1.8,0.4-3.5-0.7-4-2.5l-8.3-33.2
						c-0.4-1.8,0.6-3.6,2.3-4l33.1-9.3C1343.9,1568.1,1345.8,1569.2,1346.2,1571z"/><path fill="#a6b3ea" d="M1368.1,1639.9l22.3,28.5c1.2,1.5,0.9,3.6-0.7,4.8l-27.7,20.4c-1.5,1.1-3.5,0.8-4.6-0.6l-21.1-27
						c-1.1-1.4-0.9-3.5,0.5-4.7l26.5-22C1364.8,1638.2,1367,1638.4,1368.1,1639.9z"/><path fill="#a6b3ea" d="M1416.2,1693.9l32,17c1.7,0.9,2.3,3,1.3,4.6l-17,29.9c-0.9,1.6-2.9,2.2-4.5,1.3l-30.3-16
						c-1.6-0.9-2.2-2.8-1.4-4.5l15.2-30.9C1412.4,1693.7,1414.5,1693.1,1416.2,1693.9z"/><path fill="#a6b3ea" d="M1482,1723.8l36.1,2.5c1.9,0.1,3.3,1.8,3.1,3.7l-3.3,34.2c-0.2,1.8-1.8,3.1-3.6,3l-34.2-2.4
						c-1.8-0.1-3.2-1.7-3.1-3.5l1.4-34.4C1478.5,1725.1,1480.1,1723.6,1482,1723.8z"/><path fill="#a6b3ea" d="M1554.3,1724.2l34-12.4c1.8-0.6,3.7,0.3,4.3,2.1l10.9,32.6c0.6,1.7-0.3,3.6-2,4.2l-32.2,11.7
						c-1.7,0.6-3.6-0.2-4.3-1.9l-12.7-32C1551.6,1726.8,1552.5,1724.9,1554.3,1724.2z"/><path fill="#a6b3ea" d="M1620.5,1695.2l26-25.2c1.4-1.3,3.5-1.2,4.8,0.1l23.2,25.4c1.2,1.3,1.2,3.4-0.1,4.7l-24.6,23.8
						c-1.3,1.3-3.4,1.3-4.7,0l-24.6-24C1619.2,1698.7,1619.2,1696.5,1620.5,1695.2z"/><path fill="#a6b3ea" d="M1669.2,1641.8l13.5-33.6c0.7-1.8,2.7-2.6,4.5-1.8l31.5,13.8c1.7,0.7,2.5,2.6,1.8,4.3l-12.8,31.8
						c-0.7,1.7-2.6,2.5-4.3,1.9l-32.3-11.9C1669.4,1645.6,1668.5,1643.6,1669.2,1641.8z"/><path fill="#a6b3ea" d="M1692,1573.2l-1.3-36.2c-0.1-1.9,1.4-3.5,3.3-3.5l34.4-0.3c1.8,0,3.3,1.4,3.4,3.2l1.2,34.2
						c0.1,1.8-1.3,3.4-3.1,3.5l-34.3,2.2C1693.7,1576.5,1692.1,1575.1,1692,1573.2z"/><path fill="#a6b3ea" d="M1684.9,1501.3l-15.9-32.5c-0.8-1.7-0.1-3.8,1.6-4.5l31.3-14.2c1.7-0.8,3.6-0.1,4.4,1.6l15,30.8
						c0.8,1.6,0.2,3.6-1.5,4.4l-30.5,16C1687.8,1503.6,1685.7,1503,1684.9,1501.3z"/><path fill="#a6b3ea" d="M1649.2,1438.4l-27.8-23.3c-1.5-1.2-1.6-3.4-0.4-4.8l22.8-25.7c1.2-1.4,3.3-1.5,4.7-0.3l26.3,22
						c1.4,1.2,1.6,3.2,0.5,4.7l-21.3,27C1652.8,1439.4,1650.6,1439.6,1649.2,1438.4z"/></g><path fill="#6f87d2" d="M1624.2,2718.2L1624.2,2718.2c-100.1,0-181.2-81.1-181.2-181.2v-135h362.4v135
			C1805.4,2637.1,1724.3,2718.2,1624.2,2718.2z"/><g><path fill="#a6b3ea" d="M1830.4,2603.6l-397.8,33.9c-17.1,1.5-32.2-11.2-33.6-28.3l0,0c-1.5-17.1,11.2-32.2,28.3-33.6l397.8-33.9
					c17.1-1.5,32.2,11.2,33.6,28.3l0,0C1860.2,2587.1,1847.5,2602.2,1830.4,2603.6z"/><path fill="#a6b3ea" d="M1830.4,2499.2l-397.8,33.9c-17.1,1.5-32.2-11.2-33.6-28.3l0,0c-1.5-17.1,11.2-32.2,28.3-33.6l397.8-33.9
					c17.1-1.5,32.2,11.2,33.6,28.3l0,0C1860.2,2482.7,1847.5,2497.8,1830.4,2499.2z"/></g><g><rect width="72.6" height="94" x="804" y="2547.9" fill="#feb582" transform="rotate(-2.04 840.182 2594.454)"/><path fill="#a6b3ea" d="M881.5,2600.3c0,0,92.1,58.7,97.4,63.3c5.7,5.1,5.1,8.4,4.9,11.1c-0.9,8.4-8,15.6-17.3,15.7H798
						c-1.2,0-2.3-0.9-2.5-2.1c-0.8-4.9-1.4-9.4-1.9-13.7c-3.4-31.3,1.5-63.2,6.1-73.5c0.5-1.1,2-1.1,2.5,0c14.3,31.6,60,28.9,74.1,1
						C877.2,2600.3,879.5,2599.4,881.5,2600.3z"/><path fill="#6f87d2" d="M983.7,2674.7c-0.9,8.4-8,15.6-17.3,15.7H797.9c-1.2,0-2.3-0.9-2.5-2.1c-0.8-4.9-1.4-9.4-1.9-13.7h190.2
						V2674.7z"/><g><rect width="94" height="72.6" x="520.2" y="2558.3" fill="#feb582" transform="rotate(-88.205 567.197 2594.576) scale(.99999)"/><path fill="#a6b3ea" d="M608.2,2600.3c0,0,92.1,58.7,97.4,63.3c5.7,5.1,5.1,8.4,4.9,11.1c-0.9,8.4-8,15.6-17.3,15.7H524.7
						c-1.2,0-2.3-0.9-2.5-2.1c-0.8-4.9-1.4-9.4-1.9-13.7c-3.4-31.3,1.5-63.2,6.1-73.5c0.5-1.1,2-1.1,2.5,0c14.3,31.6,60,28.9,74.1,1
						C603.9,2600.3,606.2,2599.4,608.2,2600.3z"/><path fill="#6f87d2" d="M710.4,2674.7c-0.9,8.4-8,15.6-17.3,15.7H524.6c-1.2,0-2.3-0.9-2.5-2.1c-0.8-4.9-1.4-9.4-1.9-13.7h190.2
						V2674.7z"/></g></g><path fill="#6f87d2" d="M893.5,2566l-106.5,2.4l-91.2-794.7c-0.7-4.4-7-4.4-7.7-0.1l-63.7,793.5l-115,1.2v-908.6l346.2,23.4
			L893.5,2566z"/><path fill="#a6b3ea" d="M615.6,1130.6c-34.1,9.9-84.4,32.3-101.2,79.2c-4.8,13.4-4.8,33.6-6.4,53.5l-12.2,410.4
			c-0.1,8,1.8,11.2,7.6,11.5c112.2,23.7,232.8,27.5,359.3,17.5c4.7,0.2,8.7-3.4,8.9-8.1c8.9-187.6-6.4-379.3-6.1-387l8.8-139.2
			c-11.7-8.6-24.8-15-38.8-18.9l-71.3-19.8l-0.4-0.2c-8.9-2-18.1-3.7-27.1-5.1c-29.4-4.3-59.2-4.7-88.7-1.2"/><g><path fill="#222824" d="M626.4,1050.7c0,0,0.9,21.3,8.6,32.1l2.1-26.1l-6.9-13.5L626.4,1050.7z"/><path fill="#feb582" d="M634.4,1025.8c0,0-9.3,39.9,6.4,74.1c9.7,21,30.6,33.8,53.7,34.7c47.9,1.8,76.4-39.2,70.9-147.1l-77.9-46.8
					l-58.3,26.2L634.4,1025.8z"/><path fill="#feb582" d="M646.3,1084.4l2.2,52.9c1,23.6,20.3,42.3,43.9,42.5l0,0c26.2,0.3,46.9-22,44.7-48.1l-3.1-37.3L646.3,1084.4
					z"/><path fill="#222824" d="M633.4,1030.2c0,0,10.7-6.6,8.6-23.4c18.4-6.5,27.8-20.1,20.1-47.5c0,0,77.3,52.9,119.7,36
					c0,0,20.1-9.8,8.6-30.9c0.4-24.2-5.6-41.7-24.6-45.7l-24.4,2.1c0,0-30.5-30-60.6-21.3c0,0-42,7.7-50.7,27.2
					c0,0-31.6-1.3-26.8,36.7l13.6,53.6l1.1,14.6L633.4,1030.2z"/><path fill="#feb582" d="M641.5,1033.5c1,11.1-5,20.6-13.3,21.4c-8.3,0.7-15.8-7.7-16.8-18.7c-1-11.1,5-20.6,13.3-21.4
					C633,1014.1,640.5,1022.5,641.5,1033.5z"/><g><path fill="#6f87d2" d="M764.1,1129.7l-33.2,52.2l-27.2-4.2l32.9-53.3c9,1.3,18.1,3.1,27,5.2L764.1,1129.7z"/><polyline fill="#6f87d2" points="648 1123.2 683.2 1179.1 656.9 1187.1 615.6 1130.6"/><polygon fill="#fff" points="714 1175 696.2 1191.1 676.4 1177.7 694.1 1161.6"/><path fill="#fff" d="M681.3,1178.9c0,0,4.4,207.8-31,288l37.3,58.4l45.1-53.8c0,0-20.4-283.6-24.3-293.7L681.3,1178.9z"/></g></g><g><path fill="#a6b3ea" d="M925,1420.2l154,18.2l-10.3,86.4l-211.8-32c-50.4-55.2-266.1-182.6-285.8-214.7c-11.5-18.7-10-42.6,3.5-59.8
				c0,0,33.1-31.2,80.9-1.7L925,1420.2z"/><path fill="#feb582" d="M1165.8,1455.8c5,0.6,8.6,5.1,8.1,10.2c-0.3,2.7-1.8,5-3.8,6.4c-1.7,1.2-3.9,1.9-6.3,1.6l0.9,0.1
				c5.7,0.6,9.7,5.8,9.1,11.4c-0.3,3-2,5.6-4.3,7.3c-2,1.4-4.4,2.1-7.1,1.8l-4.9-0.5c5,1.2,8.5,6,7.9,11.2c-0.3,3.1-2,5.6-4.3,7.3
				c-2,1.4-4.5,2.1-7.1,1.8l-3.3-0.4c5.3,0.6,9.2,5.4,8.5,10.7c-0.3,2.9-1.9,5.3-4,6.9l0,0c-1.9,1.3-4.2,2-6.7,1.7l-53.6-6.1
				l-28-9.4l7.4-72.8c6.2-0.7,14.7-3.7,23.3-7.4c11.9-5.2,23.8-11.8,29.3-15.5c5.7-3.5,10.8-7.1,15.6-5.2c1.6,0.6,2.9,1.5,4,2.7
				c4.4,4.5,3.7,11.9-0.9,16.2l-21.3,15.4L1165.8,1455.8z"/></g></g></svg>