<svg xmlns="http://www.w3.org/2000/svg" enable-background="new 0 0 600 500" viewBox="0 0 600 500"><path fill="#c2d5ff" d="M427.72 404.644 556 359.364H44l128.28 45.28z"/><path fill="#e7ecff" d="M556 359.364 447.295 95.356h-294.59L44 359.364z"/><path fill="#f42a64" d="M84.154 228.504c-.65.29-1.099.503-1.099.503l-3.46 5.51c-2.28 4.74-3.78 10.02-5.08 15.38 0 0-11.83 57.23-5.81 68.59.14.26.3.51.5.75-4.63-13.97 6.37-67.21 6.37-67.21 1.3-5.36 2.8-10.63 5.08-15.37l3.439-5.47.06-2.683z"/><path fill="#c2d5ff" d="M196.626 107.713H393.58v155.669H196.626z"/><path fill="#d7e3f4" d="M206.245 117.333h177.714v136.429H206.245z"/><path fill="#fff" d="M210.093 121.181h170.019v128.733H210.093z"/><path fill="#c2d5ff" d="m345.945 179.26-3.801-.992a17.202 17.202 0 0 0-2.282-5.505l1.99-3.39a.633.633 0 0 0-.098-.768l-3.068-3.072a.633.633 0 0 0-.77-.097l-3.392 1.992a17.12 17.12 0 0 0-5.505-2.281l-.993-3.805a.633.633 0 0 0-.613-.476h-4.336a.633.633 0 0 0-.613.476l-.993 3.805a17.12 17.12 0 0 0-5.505 2.281l-3.393-1.992a.633.633 0 0 0-.769.097l-3.068 3.072a.633.633 0 0 0-.097.769l1.989 3.39a17.203 17.203 0 0 0-2.282 5.504l-3.8.993a.633.633 0 0 0-.477.613v4.34c0 .288.195.54.476.613l3.801.989a17.222 17.222 0 0 0 2.282 5.508l-1.99 3.39a.633.633 0 0 0 .098.769l3.068 3.071c.202.203.52.246.77.098l3.392-1.993a17.121 17.121 0 0 0 5.505 2.282l.993 3.804a.633.633 0 0 0 .613.477h4.336a.633.633 0 0 0 .613-.477l.993-3.804c1.985-.44 3.84-1.22 5.505-2.282l3.393 1.993c.249.148.566.105.769-.098l3.068-3.071a.633.633 0 0 0 .097-.77l-1.989-3.389a17.14 17.14 0 0 0 2.282-5.508l3.8-.99a.633.633 0 0 0 .477-.613v-4.339a.633.633 0 0 0-.476-.613zm-20.702 10.88a8.1 8.1 0 0 1-8.096-8.096 8.1 8.1 0 0 1 8.096-8.097c4.472 0 8.1 3.628 8.1 8.097 0 4.469-3.628 8.096-8.1 8.096z"/><path fill="#78a7ff" d="M325.243 171.247c-5.96 0-10.796 4.837-10.796 10.797 0 5.96 4.837 10.796 10.796 10.796 5.963 0 10.8-4.837 10.8-10.796 0-5.96-4.837-10.797-10.8-10.797zm0 18.893a8.1 8.1 0 0 1-8.096-8.096 8.1 8.1 0 0 1 8.096-8.097c4.472 0 8.1 3.628 8.1 8.097 0 4.469-3.628 8.096-8.1 8.096z"/><path fill="#c2d5ff" d="m347.982 144.593-2.872-.75a12.996 12.996 0 0 0-1.723-4.159l1.503-2.56a.478.478 0 0 0-.074-.581l-2.318-2.321a.478.478 0 0 0-.58-.074l-2.564 1.506a12.933 12.933 0 0 0-4.159-1.724l-.75-2.874a.478.478 0 0 0-.464-.36h-3.275a.478.478 0 0 0-.463.36l-.75 2.874c-1.5.333-2.902.922-4.159 1.724l-2.563-1.506a.478.478 0 0 0-.581.074l-2.318 2.32a.478.478 0 0 0-.074.581l1.503 2.561a12.996 12.996 0 0 0-1.724 4.159l-2.871.75a.478.478 0 0 0-.36.463v3.278c0 .218.147.41.36.464l2.871.747a13.01 13.01 0 0 0 1.724 4.161l-1.503 2.561a.478.478 0 0 0 .074.58l2.318 2.322a.478.478 0 0 0 .58.073l2.564-1.505a12.935 12.935 0 0 0 4.159 1.723l.75 2.875c.054.212.245.36.463.36h3.275c.219 0 .41-.148.464-.36l.75-2.875c1.5-.332 2.902-.921 4.159-1.723l2.563 1.505c.188.112.428.08.581-.073l2.318-2.321a.478.478 0 0 0 .074-.58l-1.503-2.562a12.95 12.95 0 0 0 1.723-4.161l2.872-.747a.478.478 0 0 0 .36-.464v-3.278a.478.478 0 0 0-.36-.463zm-15.64 8.219a6.12 6.12 0 0 1-6.116-6.117 6.12 6.12 0 0 1 6.117-6.116 6.12 6.12 0 0 1 6.119 6.116 6.12 6.12 0 0 1-6.12 6.117z"/><path fill="#78a7ff" d="M332.343 138.539c-4.503 0-8.157 3.654-8.157 8.156s3.654 8.157 8.157 8.157c4.505 0 8.159-3.654 8.159-8.157s-3.654-8.156-8.16-8.156zm0 14.273a6.12 6.12 0 0 1-6.117-6.117 6.12 6.12 0 0 1 6.117-6.116 6.12 6.12 0 0 1 6.119 6.116 6.12 6.12 0 0 1-6.12 6.117z"/><path fill="#c2d5ff" d="m371.088 162.766-2.605-.68a11.792 11.792 0 0 0-1.564-3.774l1.363-2.324a.434.434 0 0 0-.067-.527l-2.103-2.106a.434.434 0 0 0-.527-.067l-2.326 1.366a11.736 11.736 0 0 0-3.774-1.563l-.68-2.609a.434.434 0 0 0-.42-.326h-2.973a.434.434 0 0 0-.42.326l-.68 2.609a11.736 11.736 0 0 0-3.774 1.563l-2.326-1.366a.434.434 0 0 0-.527.067l-2.104 2.106a.434.434 0 0 0-.067.527l1.364 2.324a11.792 11.792 0 0 0-1.564 3.773l-2.606.68a.434.434 0 0 0-.326.421v2.975c0 .198.133.371.326.42l2.606.678a11.805 11.805 0 0 0 1.564 3.777l-1.364 2.323a.434.434 0 0 0 .067.527l2.104 2.106a.434.434 0 0 0 .527.067l2.326-1.366a11.737 11.737 0 0 0 3.773 1.564l.68 2.608c.05.193.224.327.421.327h2.972a.434.434 0 0 0 .421-.327l.68-2.608a11.737 11.737 0 0 0 3.774-1.564l2.326 1.366c.17.101.389.072.527-.067l2.103-2.106a.434.434 0 0 0 .067-.527l-1.363-2.323a11.75 11.75 0 0 0 1.564-3.777l2.605-.678a.434.434 0 0 0 .327-.42v-2.975a.434.434 0 0 0-.327-.42zm-14.19 7.458a5.553 5.553 0 0 1-5.551-5.55 5.553 5.553 0 0 1 11.103 0 5.553 5.553 0 0 1-5.553 5.55z"/><path fill="#78a7ff" d="M356.897 157.272c-4.085 0-7.401 3.316-7.401 7.402a7.404 7.404 0 0 0 14.805 0 7.405 7.405 0 0 0-7.404-7.402zm0 12.952a5.553 5.553 0 0 1-5.55-5.55 5.553 5.553 0 0 1 11.103 0 5.553 5.553 0 0 1-5.553 5.55z"/><path fill="#c2d5ff" d="M218.79 128.784h78.81v48.73h-78.81z"/><path fill="#78a7ff" d="M231.12 170.038a.25.25 0 0 1-.25-.25V136.51a.25.25 0 1 1 .5 0v33.278a.25.25 0 0 1-.25.25zM240.145 170.038a.25.25 0 0 1-.25-.25V136.51a.25.25 0 1 1 .5 0v33.278a.25.25 0 0 1-.25.25zM249.17 170.038a.25.25 0 0 1-.25-.25V136.51a.25.25 0 1 1 .5 0v33.278a.25.25 0 0 1-.25.25zM258.195 170.038a.25.25 0 0 1-.25-.25V136.51a.25.25 0 1 1 .5 0v33.278a.25.25 0 0 1-.25.25zM267.22 170.038a.25.25 0 0 1-.25-.25V136.51a.25.25 0 1 1 .5 0v33.278a.25.25 0 0 1-.25.25zM276.245 170.038a.25.25 0 0 1-.25-.25V136.51a.25.25 0 1 1 .5 0v33.278a.25.25 0 0 1-.25.25zM285.27 170.038a.25.25 0 0 1-.25-.25V136.51a.25.25 0 1 1 .5 0v33.278a.25.25 0 0 1-.25.25z"/><path fill="#434389" d="M231.12 164.232a.25.25 0 0 1-.222-.365l9.025-17.391a.25.25 0 0 1 .211-.135c.099.003.175.04.222.116l8.952 14.137h8.744l8.953-15.176a.25.25 0 0 1 .215-.123h9.025c.059 0 .116.021.161.059l9.025 7.604a.25.25 0 0 1-.322.382l-8.955-7.545h-8.791l-8.953 15.176a.25.25 0 0 1-.215.123h-9.025a.25.25 0 0 1-.211-.116l-8.793-13.886-8.824 17.005a.25.25 0 0 1-.222.135z"/><path fill="#c2cee3" d="M232.525 163.98c0 .776-.63 1.415-1.406 1.415a1.414 1.414 0 0 1-1.405-1.416 1.405 1.405 0 1 1 2.811 0zM241.55 146.95c0 .777-.628 1.416-1.405 1.416a1.414 1.414 0 0 1-1.406-1.415 1.405 1.405 0 1 1 2.812 0zM250.576 160.798c0 .777-.63 1.416-1.406 1.416a1.414 1.414 0 0 1-1.406-1.416 1.405 1.405 0 1 1 2.812 0zM259.6 160.798c0 .777-.628 1.416-1.405 1.416a1.414 1.414 0 0 1-1.406-1.416 1.405 1.405 0 1 1 2.812 0zM268.626 145.627c0 .777-.63 1.416-1.406 1.416a1.414 1.414 0 0 1-1.406-1.416 1.405 1.405 0 1 1 2.812 0zM277.65 145.54c0 .777-.628 1.416-1.405 1.416a1.414 1.414 0 0 1-1.406-1.416 1.405 1.405 0 1 1 2.812 0zM286.54 153.144c0 .776-.63 1.415-1.406 1.415a1.414 1.414 0 0 1-1.406-1.415 1.405 1.405 0 1 1 2.811 0z"/><path fill="#ffdc8e" d="M218.79 198.107h11.109v44.204H218.79z"/><path fill="#c2d5ff" d="M234.305 210.259h11.109v32.052h-11.109z"/><path fill="#f97b78" d="M249.819 194.438h11.109v47.873h-11.109z"/><path fill="#9a9afc" d="M265.334 220.852h11.109v21.459h-11.109z"/><path fill="#a7c161" d="M280.849 204.145h11.109v38.166h-11.109z"/><path fill="#78a7ff" d="M313.325 236.481h58.09v5.83h-58.09z"/><path fill="#c2d5ff" d="M335.247 225.751h36.168v5.83h-36.168z"/><path fill="#f1ab97" d="M227.728 289.26c14.13 2.023 28.275-8.737 28.275-8.737 4.783-3.011-.237-4.793-.237-4.793 5.337-3.932-.767-4.206-.767-4.206 5.3-5.53-2.522-4.516-2.522-4.516 4.196-7.141-2.407-3.52-3.843-2.885-2.285 1.024-8.876 3.472-8.876 3.472s5.714-5.582 2.987-7.18c-2.964-1.741-20.008 12.406-20.008 12.406l4.991 16.44z"/><path fill="#ec8b73" d="M252.48 266.977c-3.76 2.68-6.72 3.262-9.761 4.828l.016.052c3.584-.498 7.856-3.2 9.78-4.838l-.035-.042zM255.014 271.49c-3.76 2.679-6.721 3.262-9.762 4.827l.016.052c.917-.127 1.804-.382 2.677-.675 1.459-.49 4.914-2.3 7.104-4.163l-.035-.042zM255.751 275.7c-3.76 2.68-6.691 3.248-9.762 4.83l.016.05c.917-.126 1.804-.381 2.677-.674 1.472-.495 4.935-2.317 7.104-4.163l-.035-.042zM235.997 269.978c.1.097 2.12 1.062 2.033 3.38-.034 1.413-.786 2.741-1.252 3.697l.062.051c.492-.478.856-.79 1.356-1.626.793-1.46.861-2.864-.078-4.234a4.697 4.697 0 0 0-1.322-1.293c1.005-.76 1.995-1.551 2.988-2.33l-.048-.054-3.739 2.41z"/><path d="M263.035 373.208c0 1.41-29.06 2.55-64.91 2.55-35.86 0-64.92-1.14-64.92-2.55 0-1.42 29.06-2.56 64.92-2.56 35.85 0 64.91 1.14 64.91 2.56z"/><path fill="#78a7ff" d="M263.035 371.804c0 1.41-29.06 2.55-64.91 2.55-35.86 0-64.92-1.14-64.92-2.55 0-1.42 29.06-2.56 64.92-2.56 35.85 0 64.91 1.14 64.91 2.56z"/><path fill="#434389" d="m190.972 317.552-6.706 53.559h-5.159l6.722-53.559z"/><path fill="#434389" d="m185.175 363.849-.91 7.26h-34.87v-6.315c0-.522.423-.945.945-.945h34.835z"/><path fill="#5c5ca0" d="m256.372 317.666-6.714 53.557h-65.397l6.713-53.557z"/><path fill="#434389" d="M228.178 340.633c-.664 3.295-3.828 5.96-7.06 5.96-1.623 0-2.953-.668-3.795-1.747-.845-1.072-1.199-2.57-.867-4.213.331-1.645 1.29-3.142 2.568-4.221 1.278-1.08 2.877-1.747 4.5-1.747 1.616 0 2.946.668 3.789 1.747.843 1.079 1.197 2.576.865 4.22z"/><path fill="#5c5ca0" d="M225.468 340.63c-.358 1.772-2.058 3.205-3.795 3.205-.873 0-1.587-.36-2.04-.94-.454-.575-.645-1.38-.466-2.264.178-.884.693-1.689 1.38-2.269.687-.58 1.547-.939 2.42-.939.868 0 1.582.36 2.035.94.453.58.644 1.384.466 2.268z"/><path fill="#fc6865" d="M229.835 292.523c-14.88 4.5-38.01 17.85-49.72 17.34-1.89-.08-3.9-.94-5.82-2.14-.25-.16-.5-.32-.75-.49-2.23-1.5-4.28-3.38-5.79-4.9v-75.67s5.59 4.18 6.81 6.11c6.42 10.17 13.56 46.14 13.56 46.14.104-.029 21.078-3.012 33.89-9.55 5.45-2.77 13.67 21.39 7.82 23.16z"/><path fill="#f24e4e" d="M173.545 307.233c-2.23-1.5-4.28-3.38-5.79-4.9v-29.99l5.79 34.89z"/><path fill="#fc6865" d="M167.755 226.667v133.21h-84.7v-130.87l26.09-12.02 9.37-4.31 7.38-3.4 9.45 3.93 9.66 4.01z"/><path fill="#f24e4e" d="m144.435 223.837-9.98 17.73-1.43-4.26c-3.021-8.934-7.954-10.6-9-11.63l11.32-12.47 9.66 4.01c.02.06.04.11.06.17.7 2.14.47 4.49-.63 6.45z"/><path fill="#f24e4e" d="M130.115 225.817c-2.96 1.815-6.164 3.093-9.09 11.5l-1.45 4.21-9.95-17.69a8.078 8.078 0 0 1-.63-6.45c.04-.13.09-.27.15-.4l9.37-4.31 11.6 13.14z"/><path fill="#47090e" d="M156.885 162.45s5.083 7.128-.927 19.52l-14.078-16.981 15.005-2.538z"/><path fill="#f1ab97" d="M156.489 173.744c-.462 14.533-4.002 35.232-18.44 34.03l-.18 7.02c0 2.95-1.19 5.63-3.13 7.57-.91.91-2 1.65-3.2 2.19-3.08 1.4-5.98 1.41-8.71 0-3.73-1.67-6.34-5.4-6.34-9.76l.06-39.3c.83-1.49 1.69-2.84 2.57-4.06 10.29-14.29 23.34-10.2 37.37 2.31z"/><path fill="#ec8b73" d="M156.489 173.744c-.02.63-.04 1.29-.08 1.96-2.11 1.403-4.98 1.6-7.44 1.53-6.22-.17-12.4-1.72-17.97-4.5-1.26-.63-2.64-1.34-4-.97-1.32.36-2.22 1.64-3.53 2.01-1.6.44-3.26-.65-4.17-2.04-.06-.1-.13-.2-.18-.3 10.29-14.29 23.34-10.2 37.37 2.31zM117.429 190.024l-.041 26.797c0 1.16.18 2.27.53 3.32-.91-1.57-1.43-3.4-1.43-5.35l.038-24.767h.903z"/><path fill="#5f1113" d="M156.639 174.464c-6.53 2.66-24.81-2.44-31.46-4.46-1.54-.47-2.46-.77-2.46-.77.93 2.8.67 5.15-1.03 6.81-7.51-6-9.28 5.75-9.28 5.75-6.24-12.6-3.46-31.87 8.98-34.76 1.02-.25 2.11-.38 3.26-.38 46.83-.17 38.9 25 31.99 27.81z"/><path fill="#47090e" d="M157.533 159.086c-.844-1.42-1.9-2.7-3.156-3.746l-.064.077c1.149 1.13 2.081 2.474 2.778 3.904 1.565 3.16 1.874 6.98-.713 12.351.118-.358.228-.72.314-1.088.114-.819.322-1.646.26-2.49.106-2.585-1.405-6.265-4.36-8.714-1.288-1.035-2.726-1.864-4.269-2.404l-.033.094c2.67 1.189 5.412 3.534 6.689 6.521 1.416 3.463.997 6.58.85 9.304h.001v.016l.036.01.045.032.014-.016.001-.001c.536-.606 1.072-1.234 1.526-1.919.394-.727.878-1.429 1.115-2.24 1.005-2.386.877-6.362-1.034-9.69zM122.719 169.234c.93 2.8.67 5.15-1.03 6.81-7.51-6-9.28 5.75-9.28 5.75-6.24-12.6-3.46-31.87 8.98-34.76-2.26 2.49-4.43 6.61-1.8 12.08 1.84 3.84 4.09 7.48 5.59 10.89-1.54-.47-2.46-.77-2.46-.77z"/><path fill="#f1ab97" d="M121.693 176.04c-1.296-1.227-2.941-2.167-4.721-2.284-1.78-.117-3.678.72-4.506 2.3-.657 1.254-.579 2.76-.362 4.159a24.588 24.588 0 0 0 2.482 7.575c.59 1.135 1.29 2.247 2.3 3.032 2.136 1.66 4.698 1.163 5.923-1.469.567-1.217.682-2.282 1.393-6.6.37-2.241 1.53-2.892-2.51-6.714z"/><path fill="#ec8b73" d="M116.364 178.018c-2.279 3.443-.061 7.73 3.136 10.079l.087-.064c-.803-2.396-2.397-3.952-2.875-4.779-.894-1.492-1.024-3.482-.253-5.183l-.095-.053z"/><path fill="#ec8b73" d="M115.663 177.415c.589-.838 1.873-.986 2.522-.362.334.291.552.724.576 1.149.082.905-.888 1.538-1.044 2.873-.245 2.177 1.666 3.626 3.255 3.322l.01-.108c-2.074-.837-2.651-2.96-1.863-4.45.217-.457.47-1.105.339-1.73a2.317 2.317 0 0 0-.947-1.487c-1.035-.701-2.45-.224-2.94.738l.092.055z"/><path fill="#39191a" d="M141.643 186.416c0 .89-.718 1.608-1.607 1.608a1.606 1.606 0 0 1-1.608-1.608c0-.888.719-1.607 1.608-1.607.889 0 1.607.719 1.607 1.607z"/><path fill="#39191a" d="M135.433 186.861c.746-1.033 1.79-2.268 3.03-2.536 1.308-.121 2.81.568 3.674 1.344l-.036.093c-1.455.016-3.09-.498-3.574-.554-.806-.06-2.417 1.193-3.019 1.72l-.075-.067z"/><path fill="#ec8b73" d="M146.006 185.705c-.366 3.343-.694 4.643-.23 6.097.513 1.732 1.155 1.939 1.756 2.609.323.307.663.77.669.894.035-.1.152.201-1.398.427-.58.07-1.554.04-2.062.008l-.023.09c.834.388 1.97.683 2.873.571l-.04.007c1.67-.093 1.98-1.075 1.195-2.086-1.053-1.262-1.662-.921-2.349-2.725-.368-.89-.355-1.853-.335-2.868l.038-3.018-.094-.006z"/><path fill="#39191a" d="M154.345 186.416c0 .89-.72 1.608-1.608 1.608a1.606 1.606 0 0 1-1.608-1.608c0-.888.72-1.607 1.608-1.607.889 0 1.608.719 1.608 1.607z"/><path fill="#39191a" d="M148.135 186.861c2.076-2.88 3.383-2.876 5.036-2.2.594.255 1.164.556 1.668 1.008l-.036.093c-.67.007-1.29-.096-1.897-.2-1.57-.216-1.618-.781-3.202.25-.515.328-1.022.703-1.494 1.115l-.075-.066z"/><path fill="#ec8b73" d="M138.047 207.774s-6.69.647-13.38-5.144c0 0 .75 8.604 13.273 9.367l.107-4.223zM139.974 199.373c1.354.793 3.355 1.583 4.936 1.684.852.061 1.645-.126 2.39-.348.75-.261 1.395-.744 2.135-1.322l.085.054a3.736 3.736 0 0 1-1.827 2.188c-.925.455-1.968.384-2.884.221-1.868-.345-3.48-1.283-4.893-2.396l.058-.08z"/><path fill="#39191a" d="M142.609 180.277c.216.205.401.517.277.788-.115.25-.427.326-.698.372-7.113 1.212-7.426 1.34-8.005 1.177-.406-.115-.777-.47-.763-.893.032-.939 1.642-1.115 2.323-1.386 1.883-.751 5.374-1.473 6.866-.058zM156.518 181.144c.173.243.295.585.12.827-.16.223-.48.238-.756.231-7.213-.173-7.545-.108-8.082-.379-.376-.19-.672-.61-.578-1.021.211-.916 1.826-.78 2.547-.916 1.992-.377 5.556-.416 6.75 1.258z"/><path fill="#f1ab97" d="M131.727 310.824s9.12-2.954 12.21-2.541c6.466.864 22.108 10.72 25.498 12.895.472.303.864.72 1.128 1.214.954 1.788.726 2.97-.271 3.76-.86.682-2.057.758-3.08.361l-12.143-4.712s3.273 3.373-1.226 4.706c0 0 2.398 3.224-1.375 4.585 0 0 2.097 3.026-1.848 3.026s-19.98-5.108-19.98-5.108l1.087-18.186z"/><path fill="#f24e4e" d="M107.59 311.884h6.358c-3.16-.788-6.024-2.845-7.553-5.727 6.53.68 14.6 3.61 20.66 1.09-5.68-1.59-12.75-7.09-18.43-8.68-1.89-.53-4.18-1.54-4.2-3.5-.03-2.16-3.002-41.887-3.002-41.887s-17.518 22.407-18.368 23.967v82.73h24.536v-47.993z"/><path fill="#fc6865" d="M128.725 332.407c-8.88-2.78-28.85-4.01-43.42-6.87-8.31-1.62-14.86-3.77-16.6-7.05-6.02-11.36 5.81-68.59 5.81-68.59 1.3-5.36 2.8-10.64 5.08-15.38l3.46-5.51s15.19-5.43 18.29 19.3c1.49 11.89-9.25 52.2-9.25 52.2s23.92 6.07 34.96 6.74c1.53.1 2.81.08 3.75-.06 6.25-.97 3.96 27.12-2.08 25.22z"/><path fill="#f1ab97" d="M351.373 227.654c-13.004-5.884-19.157-22.557-19.157-22.557-2.417-5.11 2.774-3.916 2.774-3.916-2.389-6.183 2.907-3.135 2.907-3.135-1.501-7.512 4.552-2.455 4.552-2.455.297-8.278 3.92-1.676 4.792-.37 1.378 2.091 5.622 7.696 5.622 7.696s-1.822-7.777 1.337-7.661c3.436.124 10.214 21.211 10.214 21.211l-13.04 11.187z"/><path fill="#ec8b73" d="M342.463 195.562c1.733 4.28 3.918 6.362 5.641 9.316l-.04.035c-.706-.6-1.317-1.29-1.896-2.007-.58-.717-1.032-1.525-1.496-2.317-.912-1.595-1.72-3.256-2.26-5.01l.051-.017zM337.903 198.008c1.732 4.28 3.917 6.362 5.64 9.316l-.04.035c-.706-.6-1.317-1.291-1.896-2.007-.58-.718-1.032-1.525-1.496-2.318-.912-1.595-1.72-3.255-2.26-5.01l.052-.016zM335.019 201.165c1.732 4.28 3.9 6.333 5.64 9.315l-.04.036c-.706-.6-1.317-1.291-1.896-2.008-.579-.717-1.032-1.525-1.496-2.317-.912-1.595-1.72-3.256-2.26-5.01l.052-.016zM354.755 206.947c-.115.024-2.354-.25-3.53 1.76-.733 1.214-.808 2.727-.93 3.79l-.08.01c-.157-.667-.297-1.125-.27-2.1.115-1.657.812-2.878 2.34-3.53.58-.25 1.18-.37 1.81-.38-.44-1.18-.85-2.38-1.27-3.57l.07-.02 1.86 4.04z"/><path fill="#f9c55f" d="M422.735 226.667v37.42s-21.55 13.1-29.99 15.08c-.9.22-1.65.31-2.21.24-11.67-1.45-33.15-36.68-42.44-49.14-3.65-4.9 17.32-19.44 20.06-13.97 6.716 13.327 27.092 32.775 27.18 32.88 0 0 15.08-13.72 27.4-22.51zM507.425 229.007v130.87h-84.69v-133.21l22.21-9.23 10.56-4.39 9.08-3.77 7 3.23 9.68 4.45z"/><path fill="#e5a638" d="m480.575 223.257-9.97 17.72-1.44-4.26c-1.4-4.14-3.38-7.27-6.05-9.5-.35-.28-.71-.56-1.09-.82l-1.86-1.3 3.03-3.34 8.39-9.25 9.68 4.45c.64 2.1.39 4.38-.69 6.3z"/><path fill="#e5a638" d="m466.265 225.227-2.06 1.24c-.38.23-.74.48-1.09.75-2.46 1.91-4.37 4.97-5.94 9.52l-1.45 4.2-9.95-17.68c-1-1.77-1.29-3.86-.83-5.82l10.56-4.39 7.69 8.71 3.07 3.47zM492.705 241.497c-5.38 3.46 4.698 51.772-25.174 90.415l10.874 27.965h29.02v-115.19c-4.54-3.13-9.91-6.29-14.72-3.19z"/><path fill="#f1ab97" d="M482.841 340.973c-3.415 12.69-17.652 20.758-17.652 20.758-4.284 2.956-3.971-1.939-3.971-1.939-5.264 3.09-3.28-2.175-3.28-2.175-6.603 2.48-2.908-3.773-2.908-3.773-7.566.96-2.105-3.314-1.047-4.299 1.695-1.563 6.158-6.252 6.158-6.252s-6.796 2.81-7.16-.077c-.398-3.14 16.32-11.304 16.32-11.304l13.54 9.06z"/><path fill="#ec8b73" d="M455.002 353.836c3.632-2.21 5.2-4.505 7.628-6.51l.038.032c-.44.73-.978 1.388-1.542 2.02-.953 1.066-3.752 3.336-6.101 4.502l-.023-.044zM457.902 357.617c3.632-2.21 5.2-4.505 7.628-6.51l.038.032c-.44.73-.978 1.388-1.543 2.02-.565.634-1.232 1.165-1.883 1.705-1.314 1.065-2.703 2.046-4.217 2.797l-.023-.044zM461.199 359.769c3.632-2.21 5.176-4.485 7.628-6.51l.038.032c-.44.73-.978 1.388-1.543 2.02-.565.633-1.232 1.165-1.883 1.704-1.314 1.066-2.703 2.047-4.217 2.798l-.023-.044z"/><path fill="#f9c55f" d="M497.93 287.716s-3.639-14.024-4.679-25.674v-.01c-.55-6.1-.76-11.77-.11-14.88 4.51-21.9 14.27-18.16 14.27-18.16s11.33 6.46 11.31 9.71c-.29 35.91 8.494 45.733.418 57.68-8.186 12.11-23.094 37.823-34.665 47.138-4 3.221-19.868-9.2-16.469-13.05 13.202-14.95 29.926-42.754 29.926-42.754z"/><path fill="#e5a638" d="M497.93 287.716s3.087-2.653 5.491-7.954c0 0-1.418 6.308 4.993 6.637l-3.822 10.993-3.513-8.075-7.52 12.267 4.372-13.868z"/><path fill="#39191a" d="M433.845 171.737s1.804 9.286 6.101 10.195l11.367-12.821-17.468 2.626z"/><path fill="#f1ab97" d="M474.058 213.653c.01 0 .01.01.02.01l-10.83 11.17-10.55-10.59v-6.74c-17.37.24-15.86-16.81-15.08-30.11.297-5.367.21-5.718.21-7.41l36.19 2.93.06 40.74h-.02z"/><path fill="#ec8b73" d="M474.028 182.533c0 .01-.01.02-.02.03-.94.95-2.42 1.49-3.65.97-1.43-.6-2.12-2.43-3.61-2.87-.79-.24-1.62-.04-2.44.02-.81.06-1.75-.09-2.19-.78-.77-1.22.54-3.18-.54-4.13-.55-.49-1.41-.35-2.13-.19a79.668 79.668 0 0 1-21.83 1.81c.14-2.53.26-4.93.22-7.05 2.215-.444 5.536 1.3 11.93.61l24.25 1.96.01 9.62z"/><path fill="#541f19" d="m475.978 187.523-6.88-7.43c-8.31 1.27-6.42-6.62-6.42-6.62-12.65 3.14-25.16 4.06-27.9.03-2.88-4.23-3.81-16.23 6.63-20.95 13.24-5.99 25.9 7.76 25.9 7.76 21.1-2.59 8.67 27.21 8.67 27.21z"/><path fill="#39191a" d="M434.92 167.126c.3-7.49 4.844-13.82 11.838-14.247 2.276-.13 4.54.18 6.64.937l-.022.097c-7.454-.657-13.31.223-16.56 6.932a18.493 18.493 0 0 0-1.797 6.285l-.1-.004z"/><path fill="#39191a" d="M438.031 170.561c-1.712-10.192 4.664-18.316 15.356-16.817v.1c-3.197.381-6.307.877-9.296 2.592-4.86 2.707-6.529 8.794-5.961 14.108l-.099.017zM475.978 187.523l-2.34-2.53c2.78-5.25 6.72-14.55 1.01-16.47-8.06-2.7-7.34-8.21-7.34-8.21 21.1-2.59 8.67 27.21 8.67 27.21z"/><path fill="#f1ab97" d="M468.876 175.768c1.295-1.226 2.94-2.166 4.72-2.283 1.78-.117 3.678.72 4.506 2.3.657 1.253.58 2.759.363 4.158a24.59 24.59 0 0 1-2.482 7.576c-.59 1.134-1.291 2.247-2.3 3.031-2.137 1.661-4.699 1.163-5.924-1.468-.567-1.217-.682-2.283-1.393-6.6-.123-.75-.446-1.609-.442-2.371.006-1.534 1.912-3.36 2.952-4.343z"/><path fill="#ec8b73" d="M474.204 177.746c2.28 3.443.062 7.73-3.135 10.08l-.088-.064c.803-2.396 2.397-3.952 2.875-4.78.895-1.491 1.024-3.481.254-5.183l.094-.053z"/><path fill="#ec8b73" d="M474.906 177.144c-.59-.839-1.874-.986-2.522-.363a1.699 1.699 0 0 0-.577 1.149c-.081.906.888 1.539 1.045 2.873.244 2.177-1.667 3.626-3.256 3.322l-.01-.108c2.075-.836 2.651-2.96 1.864-4.45-.218-.457-.47-1.104-.34-1.73.107-.608.46-1.143.947-1.486 1.036-.702 2.45-.225 2.941.737l-.092.056zM445.188 185.155l.348 2.999c.13.978.208 2.077-.118 3.098-.513 1.732-1.155 1.94-1.756 2.61-.323.306-.663.77-.669.893-.038-.107.178.645 3.46.435l.023.091c-.85.395-1.976.682-2.873.57l.04.008c-1.781-.1-2.22-1.274-.613-2.671.794-.707 1.217-.698 1.767-2.14.368-.891.355-1.854.335-2.869l-.038-3.018.094-.006z"/><path fill="#2b1b15" d="M439.145 186.31a1.418 1.418 0 1 0 2.839 0c0-.785-.635-1.42-1.42-1.42-.785 0-1.42.635-1.42 1.42z"/><path fill="#2b1b15" d="M443.19 186.562c-1.651-2.288-2.735-2.372-4.128-1.802-.487.209-.954.455-1.366.825l.03.077c.549.006 1.056-.079 1.554-.165 1.286-.176 1.326-.64 2.624.206.421.268.837.576 1.224.913l.062-.054zM449.355 186.31c0 .785.634 1.42 1.42 1.42.784 0 1.419-.635 1.419-1.42 0-.785-.635-1.42-1.42-1.42-.785 0-1.42.635-1.42 1.42z"/><path fill="#2b1b15" d="M453.4 186.562c-1.651-2.288-2.734-2.372-4.128-1.802-.486.209-.953.455-1.366.825l.03.077c1.192.013 2.533-.408 2.929-.454.66-.05 1.98.978 2.473 1.408l.062-.054z"/><path fill="#ec8b73" d="M441.8 198.365c.801.468 1.984.935 2.92.995.503.036.972-.074 1.412-.206.443-.154.825-.44 1.262-.781l.05.031a2.209 2.209 0 0 1-1.08 1.294c-.546.27-1.163.227-1.705.13-1.104-.203-2.058-.758-2.893-1.416l.035-.047z"/><path fill="#2b1b15" d="M448.353 181.292c-.174.165-.323.417-.222.635.092.2.343.262.562.3 5.725.975 5.978 1.078 6.444.946.327-.092.625-.378.614-.718-.026-.756-1.322-.897-1.87-1.116-1.517-.605-4.327-1.186-5.528-.047zM439.4 180.1c-.854-.045-1.788.053-2.407.64-.174.166-.323.418-.223.635.092.202.344.263.562.3 5.726.975 5.978 1.079 6.444.947.327-.092.625-.379.614-.718-.025-.756-1.322-.898-1.87-1.116a9.85 9.85 0 0 0-3.12-.688z"/><path fill="#ec8b73" d="M452.696 207.502s4.486.672 10.687-1.899c0 0-1.588 4.405-10.687 6.08v-4.181z"/><path fill="#f9c55f" d="m474.004 212.823 2.059.972a6.05 6.05 0 0 1 2.773 8.477l-7.771 13.81c-1.584-4.698-4.036-8.63-7.89-11.326l10.83-11.933zM452.623 212.801l-2.335.994a6.05 6.05 0 0 0-2.773 8.477l7.77 13.81c1.71-4.945 4.092-9.036 7.89-11.326L452.623 212.8z"/><path fill="#fc6865" d="m137.858 213.41 2.059.971a6.05 6.05 0 0 1 2.773 8.477l-7.771 13.81c-1.584-4.697-4.036-8.63-7.89-11.326l10.829-11.932zM116.476 213.388l-2.334.993a6.05 6.05 0 0 0-2.773 8.477l7.77 13.81c1.71-4.945 4.092-9.036 7.89-11.326l-10.553-11.954z"/><path fill="#ec8b73" d="M155.07 321.801a13.83 13.83 0 0 1-.923-.302l-.898-.347c-.587-.262-1.18-.5-1.744-.836.321.058.638.132.946.23.31.094.61.217.912.329.59.264 1.18.533 1.706.926zM154.023 326.625c-.298-.085-.59-.176-.877-.282l-.85-.33c-.556-.25-1.118-.478-1.647-.805.305.054.606.124.898.217.294.089.576.206.864.312.557.253 1.117.509 1.612.888zM152.5 331.115c-.586-.114-1.117-.329-1.654-.537-.522-.24-1.046-.47-1.534-.811.575.108 1.114.327 1.654.537.526.241 1.057.476 1.534.811z"/><path fill="#ffcf86" d="M433.464 134.466a16.58 16.58 0 0 1-5.811 12.627c-2.083 1.786-3.528 4.165-4.227 6.776a1.686 1.686 0 0 0-.21-.013h-12.748a1.5 1.5 0 0 0-.2.013c-.73-2.65-2.263-5.047-4.38-6.907a16.572 16.572 0 0 1-5.602-13.963c.69-8.05 7.226-14.508 15.286-15.106 9.754-.73 17.892 6.972 17.892 16.573z"/><path fill="#2b1b15" d="M425.41 156.047c0 1.21-.982 2.192-2.192 2.192h-12.75a2.192 2.192 0 1 1 0-4.384h12.75c1.21 0 2.191.982 2.191 2.192zM425.41 160.43c0 1.211-.982 2.193-2.192 2.193h-12.75a2.192 2.192 0 0 1 0-4.384h12.75c1.21 0 2.191.981 2.191 2.192z"/><path fill="#2b1b15" d="m421.585 162.623-1.262 2.164a.804.804 0 0 1-.694.399h-5.571a.804.804 0 0 1-.695-.4l-1.261-2.163h9.483zM422.095 132.518a3.67 3.67 0 0 0-3.665 3.666v2.624h-3.174v-2.624a3.67 3.67 0 0 0-3.668-3.666 3.67 3.67 0 0 0-3.665 3.669 3.67 3.67 0 0 0 3.665 3.665h2.625v14.004h1.043v-14.004h3.174v14.004h1.044v-14.004h2.625a3.67 3.67 0 0 0 3.665-3.668 3.67 3.67 0 0 0-3.669-3.666zm-13.129 3.666a2.625 2.625 0 0 1 2.625-2.622 2.625 2.625 0 0 1 2.622 2.622v2.624h-2.625a2.625 2.625 0 0 1-2.622-2.624zm13.133 2.624h-2.625v-2.624a2.625 2.625 0 0 1 2.625-2.622 2.625 2.625 0 0 1 2.621 2.625 2.625 2.625 0 0 1-2.621 2.621z"/><path fill="#78a7ff" d="M186.736 121.469c-.155 10.616-9.157 18.987-19.774 18.987h-18.195a.58.58 0 0 1-.58-.58v-18.201c0-10.652 8.43-19.664 19.082-19.77a19.202 19.202 0 0 1 13.82 5.649 19.203 19.203 0 0 1 5.647 13.915z"/><path fill="#3d79f3" d="m164.176 125.786-3.936-6.62 3.231-1.922 2.056 3.458 7.307-4.134 1.852 3.273z"/><path d="M340.724 373.208c0 1.41 29.06 2.55 64.91 2.55 35.86 0 64.92-1.14 64.92-2.55 0-1.42-29.06-2.56-64.92-2.56-35.85 0-64.91 1.14-64.91 2.56z"/><path fill="#78a7ff" d="M340.724 371.804c0 1.41 29.06 2.55 64.91 2.55 35.86 0 64.92-1.14 64.92-2.55 0-1.42-29.06-2.56-64.92-2.56-35.85 0-64.91 1.14-64.91 2.56z"/><path fill="#434389" d="m413.035 317.304 6.705 53.558h5.16l-6.723-53.558z"/><path fill="#434389" d="m418.831 363.6.91 7.26h34.87v-6.315a.945.945 0 0 0-.945-.944h-34.835z"/><path fill="#5c5ca0" d="m347.647 317.303 6.714 53.558h65.397l-6.713-53.558z"/><path fill="#434389" d="M375.58 340.633c.665 3.295 3.828 5.96 7.06 5.96 1.623 0 2.953-.668 3.796-1.747.844-1.072 1.198-2.57.867-4.213s-1.29-3.142-2.569-4.221c-1.278-1.08-2.877-1.747-4.5-1.747-1.616 0-2.946.668-3.789 1.747-.843 1.079-1.197 2.576-.865 4.22z"/><path fill="#5c5ca0" d="M378.29 340.63c.358 1.772 2.058 3.205 3.796 3.205.872 0 1.587-.36 2.04-.94.453-.575.644-1.38.466-2.264s-.694-1.689-1.38-2.269c-.688-.58-1.547-.939-2.42-.939-.868 0-1.583.36-2.036.94s-.644 1.384-.465 2.268z"/><path fill="#f24e4e" d="M216.4 271.82c6.831 6.188 9.48 14.698 7.994 22.133l-.1-.007c-.644-9.015-1.535-15.417-7.963-22.053l.07-.072zM123.733 306.92a31.932 31.932 0 0 1 .915 12.096c-.223 2.029-.577 4.065-1.267 5.996-.693 1.926-1.59 3.782-2.764 5.452l-.088-.046c.685-1.915 1.355-3.796 1.9-5.713.547-1.912 1.102-3.825 1.427-5.797a33.9 33.9 0 0 0-.22-11.966l.097-.023z"/><path fill="#e5a638" d="M470.976 327.22c1.523 3.34 3.853 6.301 6.848 8.316 2.814 1.9 6.854 3.227 9.978 4.206l-.015.099c-7.118-.061-13.906-4.576-16.903-12.583l.092-.038zM350.898 234.19c4.93-6.798 11.816-13.749 20.209-12.898l.003.1c-8.979 1.478-14.447 6.07-20.133 12.858l-.08-.06z"/><path fill="#c2d5ff" d="M95.511 132.304a1 1 0 0 1-1-1v-3.574a1 1 0 0 1 2 0v3.574a1 1 0 0 1-1 1zM95.511 121.945a1 1 0 0 1-1-1v-3.574a1 1 0 0 1 2 0v3.574a1 1 0 0 1-1 1zM92.119 125.338h-3.574a1 1 0 0 1 0-2h3.574a1 1 0 0 1 0 2zM102.478 125.338h-3.574a1 1 0 0 1 0-2h3.574a1 1 0 0 1 0 2zM502.477 194.9a1 1 0 0 1 0-1.414l2.121-2.122a1 1 0 1 1 1.414 1.414l-2.121 2.122a1 1 0 0 1-1.414 0zM508.626 188.75a1 1 0 0 1 0-1.414l2.123-2.122a1 1 0 1 1 1.414 1.414l-2.123 2.122a1 1 0 0 1-1.414 0zM504.598 188.75l-2.121-2.122a1 1 0 1 1 1.414-1.414l2.121 2.122a1 1 0 1 1-1.414 1.414zM510.749 194.9l-2.123-2.122a1 1 0 1 1 1.414-1.414l2.123 2.122a1 1 0 1 1-1.414 1.414zM286.406 279.788l-.28 2.775 2.126 1.8a.29.29 0 0 1-.125.505l-2.724.591-1.056 2.58a.289.289 0 0 1-.519.035l-1.405-2.405-2.78-.209a.293.293 0 0 1-.246-.182.29.29 0 0 1 .05-.3l1.858-2.08-.66-2.707c-.054-.216.195-.425.397-.333l2.553 1.12 2.369-1.465a.293.293 0 0 1 .306 0 .293.293 0 0 1 .136.275zM487.273 105.021l-.628 6.216 4.763 4.033a.65.65 0 0 1-.28 1.131l-6.101 1.325-2.367 5.779a.638.638 0 0 1-.188.25.641.641 0 0 1-.975-.173l-3.147-5.387-6.226-.468a.656.656 0 0 1-.554-.407.65.65 0 0 1 .115-.672l4.161-4.658-1.48-6.066c-.119-.484.438-.951.89-.746l5.72 2.51 5.306-3.283a.657.657 0 0 1 .686 0c.21.129.327.37.305.616zM178.862 194.068l-.527 5.226 4.003 3.39a.546.546 0 0 1-.234.951l-5.13 1.114-1.99 4.858a.544.544 0 0 1-.977.065l-2.646-4.529-5.234-.393a.551.551 0 0 1-.466-.343.546.546 0 0 1 .097-.564l3.498-3.917-1.245-5.099c-.1-.407.369-.8.748-.627l4.809 2.11 4.461-2.76c.18-.108.4-.108.577 0a.55.55 0 0 1 .256.518zM327.99 289.461a1 1 0 0 1 0-1.414l2.122-2.122a1 1 0 1 1 1.414 1.414l-2.122 2.122a1 1 0 0 1-1.414 0zM334.14 283.311a1 1 0 0 1 0-1.414l2.122-2.122a1 1 0 1 1 1.414 1.414l-2.122 2.122a1 1 0 0 1-1.414 0zM330.112 283.311l-2.122-2.122a1 1 0 1 1 1.414-1.414l2.122 2.122a1 1 0 1 1-1.414 1.414zM336.262 289.461l-2.122-2.122a1 1 0 1 1 1.414-1.414l2.122 2.122a1 1 0 1 1-1.414 1.414z"/></svg>